{"glyphs":{"0":{"ha":561,"x_min":49,"x_max":538,"o":"m 229 -17 q 133 9 175 -17 q 69 90 90 35 q 61 226 49 144 l 113 593 q 198 774 129 715 q 351 832 267 832 q 487 773 436 832 q 521 593 538 714 l 469 228 q 422 88 457 143 q 337 8 388 33 q 229 -17 286 -17 m 235 18 q 353 70 301 18 q 417 215 404 122 l 469 597 q 447 745 485 693 q 344 797 410 797 q 228 745 281 797 q 163 597 176 693 l 111 215 q 134 70 97 122 q 235 18 171 18 z "},"1":{"ha":324,"x_min":99,"x_max":289,"o":"m 122 0 l 225 735 l 99 735 l 103 764 l 188 765 q 226 776 214 765 q 249 821 238 788 l 289 821 l 172 0 l 122 0 z "},"2":{"ha":515,"x_min":21,"x_max":507,"o":"m 21 0 q 31 75 26 38 q 42 153 36 113 q 78 258 53 219 q 147 323 104 297 q 247 375 190 349 q 337 427 296 396 q 406 502 378 458 q 442 601 435 546 l 444 619 q 428 742 456 697 q 324 786 400 786 q 211 747 256 786 q 157 629 167 708 l 146 556 l 96 556 l 106 632 q 179 778 121 731 q 329 826 238 826 q 441 802 401 826 q 494 731 481 778 q 497 615 507 685 q 463 506 489 556 q 397 417 438 456 q 301 351 356 379 q 211 308 254 332 q 138 251 168 285 q 99 160 108 217 q 88 103 93 132 q 78 46 82 75 l 426 46 l 419 0 l 21 0 z "},"3":{"ha":542,"x_min":35,"x_max":521,"o":"m 219 -11 q 101 16 143 -11 q 47 90 60 43 q 42 194 35 138 l 54 271 l 107 271 l 94 190 q 117 73 85 115 q 224 29 150 31 q 339 71 292 29 q 397 186 386 113 l 407 260 q 379 369 418 331 q 268 410 340 407 l 181 410 l 186 450 l 275 450 q 343 464 310 450 q 401 504 376 478 q 433 551 421 526 q 449 603 446 575 l 456 646 q 434 745 463 704 q 331 786 406 786 q 215 744 256 786 q 165 642 174 703 l 158 585 l 104 585 l 111 638 q 178 776 124 726 q 336 826 232 826 q 481 777 440 826 q 508 639 521 728 l 504 608 q 451 490 494 535 q 350 428 407 446 q 443 365 417 414 q 458 246 469 317 l 451 194 q 419 90 444 138 q 345 16 393 43 q 219 -11 297 -11 z "},"4":{"ha":483,"x_min":0,"x_max":442,"o":"m 275 0 l 300 168 l 0 168 l 7 207 l 403 821 l 442 821 l 356 206 l 435 206 l 429 168 l 350 168 l 325 0 l 275 0 m 54 206 l 306 206 l 374 700 l 54 206 z "},"5":{"ha":549,"x_min":40,"x_max":521,"o":"m 229 -11 q 117 8 161 -11 q 57 74 74 26 q 53 211 40 122 l 57 246 l 108 246 l 106 217 q 120 73 90 117 q 236 29 150 29 q 358 80 317 29 q 413 225 399 131 l 426 335 q 428 424 435 383 q 391 490 421 465 q 300 514 361 514 q 197 483 243 514 q 132 403 151 453 l 85 403 l 143 821 l 521 821 l 514 778 l 188 778 l 144 474 q 218 531 175 513 q 315 550 261 550 q 451 506 407 550 q 479 342 496 461 l 463 225 q 414 76 449 126 q 331 7 379 25 q 229 -11 282 -11 z "},"6":{"ha":556,"x_min":47,"x_max":531,"o":"m 229 -11 q 113 16 153 -11 q 60 91 72 43 q 56 196 47 139 l 115 624 q 193 771 129 718 q 350 824 257 824 q 486 776 442 824 q 517 631 531 729 l 508 579 l 458 579 l 467 638 q 444 751 476 715 q 344 786 413 786 q 226 742 274 786 q 168 632 178 697 l 138 419 q 215 481 169 458 q 315 504 261 504 q 444 453 396 504 q 481 315 492 401 l 464 194 q 429 90 456 138 q 354 16 403 43 q 229 -11 306 -11 m 235 24 q 351 65 301 24 q 413 189 400 107 l 429 310 q 402 424 440 386 q 297 465 364 463 q 184 427 232 465 q 125 322 136 389 l 107 189 q 130 68 96 110 q 235 24 164 26 z "},"7":{"ha":396,"x_min":29,"x_max":424,"o":"m 29 0 l 369 781 l 82 781 l 86 821 l 424 821 l 417 778 l 81 0 l 29 0 z "},"8":{"ha":547,"x_min":42,"x_max":522,"o":"m 226 -11 q 108 16 150 -11 q 54 90 67 43 q 49 194 42 138 l 56 244 q 78 323 63 286 q 124 385 94 360 q 165 413 142 401 q 219 431 189 425 q 176 451 194 438 q 142 483 157 465 q 117 540 124 507 q 115 614 110 572 l 118 640 q 153 740 126 699 q 226 804 179 782 q 343 826 274 826 q 453 804 413 826 q 508 740 493 782 q 514 640 522 699 l 511 614 q 483 528 504 565 q 429 468 461 492 q 357 431 397 444 q 415 406 392 422 q 451 365 439 389 q 467 310 464 340 q 465 244 469 279 l 458 194 q 426 92 451 139 q 351 17 400 46 q 226 -11 303 -11 m 229 24 q 346 65 299 24 q 403 176 393 106 l 414 258 q 388 366 424 328 q 285 407 351 404 q 169 367 218 407 q 111 258 121 326 l 100 176 q 124 67 90 108 q 229 24 157 26 m 290 451 q 399 496 351 451 q 456 606 447 540 l 463 651 q 442 751 471 710 q 338 792 413 792 q 222 751 263 792 q 174 651 182 710 l 168 607 q 195 495 158 539 q 290 451 232 451 z "},"9":{"ha":554,"x_min":42,"x_max":525,"o":"m 222 -11 q 86 36 131 -11 q 56 182 42 83 l 64 239 l 115 239 l 106 175 q 128 63 96 99 q 226 26 160 26 q 347 71 299 26 q 404 181 396 115 l 435 396 q 358 333 404 356 q 257 311 313 311 q 164 335 204 311 q 105 402 124 358 q 93 506 86 446 l 108 618 q 143 723 117 676 q 219 797 169 769 q 343 824 268 824 q 460 797 419 824 q 513 722 500 769 q 517 617 525 675 l 457 189 q 379 42 443 94 q 222 -11 315 -11 m 275 349 q 388 388 339 349 q 447 493 438 426 l 465 624 q 443 745 476 704 q 338 789 410 786 q 222 747 271 789 q 160 624 172 706 l 143 504 q 172 390 133 429 q 275 349 210 351 z "},"\r":{"ha":833,"x_min":0,"x_max":0,"o":""}," ":{"ha":271,"x_min":0,"x_max":0,"o":""}," ":{"ha":271,"x_min":0,"x_max":0,"o":""},"A":{"ha":497,"x_min":-28,"x_max":424,"o":"m -28 0 l 288 821 l 343 821 l 424 0 l 371 0 l 349 210 l 106 210 l 24 0 l -28 0 m 113 242 l 349 242 l 301 733 l 113 242 z "},"А":{"ha":497,"x_min":-28,"x_max":424,"o":"m -28 0 l 288 821 l 343 821 l 424 0 l 371 0 l 349 210 l 106 210 l 24 0 l -28 0 m 113 242 l 349 242 l 301 733 l 113 242 z "},"Æ":{"ha":738,"x_min":-39,"x_max":729,"o":"m -39 0 l 375 821 l 729 821 l 722 783 l 429 783 l 385 451 l 640 451 l 635 411 l 381 411 l 333 38 l 633 38 l 626 0 l 275 0 l 301 210 l 118 210 l 11 0 l -39 0 m 129 242 l 308 242 l 375 717 l 378 733 l 374 719 l 129 242 z "},"Á":{"ha":497,"x_min":-28,"x_max":436,"o":"m -28 0 l 288 821 l 343 821 l 424 0 l 371 0 l 349 210 l 106 210 l 24 0 l -28 0 m 113 242 l 349 242 l 301 733 l 113 242 m 250 879 l 376 988 l 436 988 l 289 879 l 250 879 z "},"Ă":{"ha":497,"x_min":-28,"x_max":467,"o":"m -28 0 l 288 821 l 343 821 l 424 0 l 371 0 l 349 210 l 106 210 l 24 0 l -28 0 m 113 242 l 349 242 l 301 733 l 113 242 m 319 872 q 262 883 285 872 q 228 913 239 894 q 213 951 217 931 q 210 988 208 971 l 244 988 q 267 924 246 944 q 325 903 289 903 q 392 923 364 903 q 431 988 421 943 l 465 988 q 442 937 460 964 q 396 891 425 910 q 319 872 367 872 z "},"Ắ":{"ha":497,"x_min":-28,"x_max":428,"o":"m -28 0 l 288 821 l 343 821 l 424 0 l 371 0 l 349 210 l 106 210 l 24 0 l -28 0 m 113 242 l 349 242 l 301 733 l 113 242 m 319 869 q 266 883 283 869 q 243 917 249 897 q 239 953 238 936 l 274 953 q 287 912 274 925 q 324 899 300 899 q 368 911 350 899 q 392 953 386 924 l 426 953 q 395 897 421 924 q 319 869 369 869 m 306 967 l 365 1056 l 419 1056 l 336 967 l 306 967 z "},"Ặ":{"ha":497,"x_min":-28,"x_max":467,"o":"m -28 0 l 288 821 l 343 821 l 424 0 l 371 0 l 349 210 l 106 210 l 24 0 l -28 0 m 113 242 l 349 242 l 301 733 l 113 242 m 197 -135 q 173 -124 183 -135 q 163 -100 163 -114 q 173 -76 163 -85 q 197 -67 183 -67 q 222 -76 213 -67 q 232 -100 232 -85 q 222 -124 232 -114 q 197 -135 213 -135 m 319 872 q 262 883 285 872 q 228 913 239 894 q 213 951 217 931 q 210 988 208 971 l 244 988 q 267 924 246 944 q 325 903 289 903 q 392 923 364 903 q 431 988 421 943 l 465 988 q 442 937 460 964 q 396 891 425 910 q 319 872 367 872 z "},"Ằ":{"ha":497,"x_min":-28,"x_max":428,"o":"m -28 0 l 288 821 l 343 821 l 424 0 l 371 0 l 349 210 l 106 210 l 24 0 l -28 0 m 113 242 l 349 242 l 301 733 l 113 242 m 321 869 q 267 883 285 869 q 244 917 250 897 q 240 953 239 936 l 275 953 q 288 912 275 925 q 325 899 301 899 q 369 911 351 899 q 393 953 388 924 l 428 953 q 397 897 422 924 q 321 869 371 869 m 339 967 l 274 1056 l 328 1056 l 369 967 l 339 967 z "},"Ẳ":{"ha":497,"x_min":-28,"x_max":428,"o":"m -28 0 l 288 821 l 343 821 l 424 0 l 371 0 l 349 210 l 106 210 l 24 0 l -28 0 m 113 242 l 349 242 l 301 733 l 113 242 m 319 869 q 266 883 283 869 q 243 917 249 897 q 239 953 238 936 l 274 953 q 287 912 274 925 q 324 899 300 899 q 368 911 350 899 q 392 953 386 924 l 426 953 q 395 897 421 924 q 319 869 369 869 m 322 961 l 324 981 q 336 999 325 994 q 358 1010 347 1004 q 369 1031 369 1015 l 369 1033 q 367 1055 371 1044 q 346 1065 363 1065 q 318 1042 325 1065 l 292 1047 q 353 1088 304 1088 q 393 1072 383 1088 q 403 1032 403 1056 l 403 1031 q 394 1003 403 1011 q 377 992 386 996 q 360 985 368 989 q 353 975 353 982 l 353 961 l 322 961 z "},"Ẵ":{"ha":497,"x_min":-28,"x_max":446,"o":"m -28 0 l 288 821 l 343 821 l 424 0 l 371 0 l 349 210 l 106 210 l 24 0 l -28 0 m 113 242 l 349 242 l 301 733 l 113 242 m 321 869 q 267 883 285 869 q 244 917 250 897 q 240 953 239 936 l 275 953 q 288 912 275 925 q 325 899 301 899 q 369 911 351 899 q 393 953 388 924 l 428 953 q 397 897 422 924 q 321 869 371 869 m 382 975 q 360 980 368 975 q 340 993 351 985 q 325 1005 335 999 q 304 1011 315 1011 q 282 1001 290 1011 q 268 976 274 992 l 247 976 q 269 1021 253 1003 q 308 1039 285 1039 q 333 1033 322 1039 q 353 1019 343 1028 q 371 1009 363 1013 q 388 1006 379 1006 q 408 1013 399 1006 q 422 1036 417 1019 l 446 1036 q 422 992 440 1010 q 382 975 404 975 z "},"Ǎ":{"ha":497,"x_min":-28,"x_max":479,"o":"m -28 0 l 288 821 l 343 821 l 424 0 l 371 0 l 349 210 l 106 210 l 24 0 l -28 0 m 113 242 l 349 242 l 301 733 l 113 242 m 300 872 l 197 990 l 238 990 l 326 903 l 442 990 l 481 990 l 343 872 l 300 872 z "},"Â":{"ha":497,"x_min":-28,"x_max":464,"o":"m -28 0 l 288 821 l 343 821 l 424 0 l 371 0 l 349 210 l 106 210 l 24 0 l -28 0 m 113 242 l 349 242 l 301 733 l 113 242 m 182 872 l 319 990 l 361 990 l 464 872 l 426 872 l 335 960 l 222 872 l 182 872 z "},"Ấ":{"ha":497,"x_min":-28,"x_max":542,"o":"m -28 0 l 288 821 l 343 821 l 424 0 l 371 0 l 349 210 l 106 210 l 24 0 l -28 0 m 113 242 l 349 242 l 301 733 l 113 242 m 219 871 l 318 957 l 354 957 l 426 871 l 390 871 l 332 929 l 257 871 l 219 871 m 426 922 l 488 1010 l 542 1010 l 458 922 l 426 922 z "},"Ậ":{"ha":497,"x_min":-28,"x_max":464,"o":"m -28 0 l 288 821 l 343 821 l 424 0 l 371 0 l 349 210 l 106 210 l 24 0 l -28 0 m 113 242 l 349 242 l 301 733 l 113 242 m 197 -135 q 173 -124 183 -135 q 163 -100 163 -114 q 173 -76 163 -85 q 197 -67 183 -67 q 222 -76 213 -67 q 232 -100 232 -85 q 222 -124 232 -114 q 197 -135 213 -135 m 182 872 l 319 990 l 361 990 l 464 872 l 426 872 l 335 960 l 222 872 l 182 872 z "},"Ầ":{"ha":497,"x_min":-28,"x_max":490,"o":"m -28 0 l 288 821 l 343 821 l 424 0 l 371 0 l 349 210 l 106 210 l 24 0 l -28 0 m 113 242 l 349 242 l 301 733 l 113 242 m 219 871 l 318 957 l 354 957 l 426 871 l 390 871 l 332 929 l 257 871 l 219 871 m 460 922 l 394 1010 l 449 1010 l 490 922 l 460 922 z "},"Ẩ":{"ha":497,"x_min":-28,"x_max":524,"o":"m -28 0 l 288 821 l 343 821 l 424 0 l 371 0 l 349 210 l 106 210 l 24 0 l -28 0 m 113 242 l 349 242 l 301 733 l 113 242 m 219 871 l 318 957 l 354 957 l 426 871 l 390 871 l 332 929 l 257 871 l 219 871 m 443 917 l 446 935 q 460 954 449 949 q 482 965 471 960 q 493 985 493 971 l 493 990 q 490 1010 493 999 q 469 1021 488 1021 q 440 999 447 1021 l 413 1003 q 435 1033 419 1022 q 475 1043 450 1043 q 515 1028 504 1043 q 524 989 525 1013 l 524 985 q 516 958 524 967 q 499 947 508 950 q 482 940 489 943 q 474 929 475 938 l 474 917 l 443 917 z "},"Ẫ":{"ha":497,"x_min":-28,"x_max":439,"o":"m -28 0 l 288 821 l 343 821 l 424 0 l 371 0 l 349 210 l 106 210 l 24 0 l -28 0 m 113 242 l 349 242 l 301 733 l 113 242 m 219 871 l 318 957 l 354 957 l 426 871 l 390 871 l 332 929 l 257 871 l 219 871 m 375 979 q 354 983 363 979 q 335 996 346 986 q 317 1008 326 1001 q 296 1014 308 1014 q 276 1006 285 1014 q 261 981 267 997 l 239 981 q 261 1025 244 1007 q 301 1043 278 1043 q 324 1037 314 1043 q 344 1024 335 1031 q 363 1013 356 1017 q 379 1008 369 1008 q 401 1015 392 1008 q 415 1039 410 1022 l 439 1039 q 424 1008 435 1022 q 401 987 414 994 q 375 979 389 979 z "},"Ä":{"ha":497,"x_min":-28,"x_max":424,"o":"m -28 0 l 288 821 l 343 821 l 424 0 l 371 0 l 349 210 l 106 210 l 24 0 l -28 0 m 113 242 l 349 242 l 301 733 l 113 242 m 271 892 q 245 902 256 892 q 235 926 235 913 q 245 950 235 940 q 271 960 256 960 q 295 950 285 960 q 306 926 306 940 q 295 902 306 913 q 271 892 285 892 m 389 892 q 365 902 375 892 q 354 926 354 913 q 365 950 354 940 q 389 960 375 960 q 414 950 404 960 q 424 926 424 940 q 414 902 424 913 q 389 892 404 892 z "},"Ạ":{"ha":497,"x_min":-28,"x_max":424,"o":"m -28 0 l 288 821 l 343 821 l 424 0 l 371 0 l 349 210 l 106 210 l 24 0 l -28 0 m 113 242 l 349 242 l 301 733 l 113 242 m 197 -135 q 173 -124 183 -135 q 163 -100 163 -114 q 173 -76 163 -85 q 197 -67 183 -67 q 222 -76 213 -67 q 232 -100 232 -85 q 222 -124 232 -114 q 197 -135 213 -135 z "},"À":{"ha":497,"x_min":-28,"x_max":424,"o":"m -28 0 l 288 821 l 343 821 l 424 0 l 371 0 l 349 210 l 106 210 l 24 0 l -28 0 m 113 242 l 349 242 l 301 733 l 113 242 m 333 879 l 200 986 l 261 986 l 372 879 l 333 879 z "},"Ả":{"ha":497,"x_min":-28,"x_max":424,"o":"m -28 0 l 288 821 l 343 821 l 424 0 l 371 0 l 349 210 l 106 210 l 24 0 l -28 0 m 113 242 l 349 242 l 301 733 l 113 242 m 304 861 l 308 888 q 327 914 311 907 q 359 928 343 921 q 375 958 375 936 l 375 964 q 369 996 375 981 q 338 1011 363 1011 q 293 976 304 1011 l 263 983 q 292 1023 272 1008 q 344 1038 311 1038 q 397 1017 383 1038 q 408 963 410 997 l 408 958 q 398 922 408 933 q 373 904 388 910 q 348 894 358 899 q 338 879 338 890 l 335 861 l 304 861 z "},"Ā":{"ha":497,"x_min":-28,"x_max":454,"o":"m -28 0 l 288 821 l 343 821 l 424 0 l 371 0 l 349 210 l 106 210 l 24 0 l -28 0 m 113 242 l 349 242 l 301 733 l 113 242 m 207 908 l 210 939 l 454 939 l 450 908 l 207 908 z "},"Ą":{"ha":497,"x_min":-28,"x_max":426,"o":"m -28 0 l 288 821 l 343 821 l 424 0 l 371 0 l 349 210 l 106 210 l 24 0 l -28 0 m 113 242 l 349 242 l 301 733 l 113 242 m 369 -182 q 312 -161 335 -182 q 293 -106 289 -140 q 330 -38 300 -65 q 389 0 360 -11 l 424 0 q 361 -44 385 -18 q 333 -99 338 -71 q 345 -140 329 -126 q 379 -154 361 -154 q 403 -151 393 -154 q 419 -144 414 -147 l 426 -167 q 402 -177 417 -172 q 369 -182 388 -182 z "},"Å":{"ha":497,"x_min":-28,"x_max":443,"o":"m -28 0 l 288 821 l 343 821 l 424 0 l 371 0 l 349 210 l 106 210 l 24 0 l -28 0 m 113 242 l 349 242 l 301 733 l 113 242 m 318 847 q 247 876 272 847 q 228 946 222 906 q 267 1017 233 988 q 346 1046 300 1046 q 419 1017 394 1046 q 438 946 443 988 q 396 876 432 906 q 318 847 360 847 m 322 878 q 378 897 356 878 q 404 946 400 917 q 392 997 408 978 q 342 1015 375 1015 q 287 997 308 1015 q 261 946 265 978 q 273 897 257 917 q 322 878 289 878 z "},"Ã":{"ha":497,"x_min":-28,"x_max":465,"o":"m -28 0 l 288 821 l 343 821 l 424 0 l 371 0 l 349 210 l 106 210 l 24 0 l -28 0 m 113 242 l 349 242 l 301 733 l 113 242 m 381 889 q 353 894 364 889 q 325 914 342 900 q 303 930 315 921 q 274 939 290 939 q 244 928 257 939 q 222 890 231 917 l 194 890 q 224 948 203 925 q 278 971 246 971 q 310 963 296 971 q 339 943 325 954 q 362 928 351 933 q 386 922 372 922 q 416 933 403 922 q 438 968 429 943 l 465 968 q 435 911 457 933 q 381 889 413 889 z "},"B":{"ha":576,"x_min":53,"x_max":546,"o":"m 53 0 l 168 821 l 403 821 q 506 790 467 821 q 535 686 546 760 l 522 583 q 500 513 517 543 q 464 465 483 483 q 410 439 439 444 q 364 433 381 433 l 364 436 q 422 430 394 436 q 463 406 449 424 q 485 357 478 386 q 488 289 493 328 l 471 167 q 434 60 461 96 q 367 13 407 25 q 275 0 326 0 l 53 0 m 107 33 l 272 33 q 342 43 311 33 q 392 83 372 53 q 421 172 413 113 l 438 292 q 410 388 449 364 q 311 411 372 411 l 161 411 l 107 33 m 167 449 l 317 449 q 424 483 385 449 q 471 576 463 517 l 485 676 q 465 760 493 733 q 392 788 436 788 l 214 788 l 167 449 z "},"Б":{"ha":532,"x_min":53,"x_max":521,"o":"m 53 0 l 169 821 l 521 821 l 515 782 l 214 782 l 189 604 l 336 604 q 434 584 400 604 q 478 524 468 564 q 479 425 488 485 l 447 199 q 425 110 439 147 q 389 48 411 72 q 332 12 367 24 q 249 0 297 0 l 53 0 m 247 33 q 332 54 301 33 q 376 111 363 75 q 396 192 390 147 l 428 414 q 431 490 433 454 q 403 547 428 525 q 318 569 378 569 l 183 569 l 110 33 l 247 33 z "},"C":{"ha":557,"x_min":51,"x_max":535,"o":"m 232 -17 q 133 -3 175 -17 q 72 50 92 10 q 63 174 51 90 l 132 651 q 174 769 143 731 q 251 819 204 807 q 354 832 297 832 q 453 819 411 832 q 515 767 494 806 q 524 651 535 729 l 506 519 l 454 519 l 472 650 q 467 747 482 715 q 422 789 453 779 q 349 799 390 799 q 270 789 304 799 q 213 747 236 779 q 181 650 190 715 l 114 167 q 117 69 104 101 q 163 28 131 38 q 238 18 194 18 q 315 28 281 18 q 373 69 350 38 q 406 167 396 101 l 419 272 l 469 272 l 456 174 q 414 49 444 89 q 337 -4 383 8 q 232 -17 290 -17 z "},"Ć":{"ha":557,"x_min":51,"x_max":535,"o":"m 232 -17 q 133 -3 175 -17 q 72 50 92 10 q 63 174 51 90 l 132 651 q 174 769 143 731 q 251 819 204 807 q 354 832 297 832 q 453 819 411 832 q 515 767 494 806 q 524 651 535 729 l 506 519 l 454 519 l 472 650 q 467 747 482 715 q 422 789 453 779 q 349 799 390 799 q 270 789 304 799 q 213 747 236 779 q 181 650 190 715 l 114 167 q 117 69 104 101 q 163 28 131 38 q 238 18 194 18 q 315 28 281 18 q 373 69 350 38 q 406 167 396 101 l 419 272 l 469 272 l 456 174 q 414 49 444 89 q 337 -4 383 8 q 232 -17 290 -17 m 281 879 l 407 988 l 467 988 l 319 879 l 281 879 z "},"Č":{"ha":557,"x_min":51,"x_max":535,"o":"m 232 -17 q 133 -3 175 -17 q 72 50 92 10 q 63 174 51 90 l 132 651 q 174 769 143 731 q 251 819 204 807 q 354 832 297 832 q 453 819 411 832 q 515 767 494 806 q 524 651 535 729 l 506 519 l 454 519 l 472 650 q 467 747 482 715 q 422 789 453 779 q 349 799 390 799 q 270 789 304 799 q 213 747 236 779 q 181 650 190 715 l 114 167 q 117 69 104 101 q 163 28 131 38 q 238 18 194 18 q 315 28 281 18 q 373 69 350 38 q 406 167 396 101 l 419 272 l 469 272 l 456 174 q 414 49 444 89 q 337 -4 383 8 q 232 -17 290 -17 m 331 872 l 228 990 l 268 990 l 357 903 l 472 990 l 511 990 l 374 872 l 331 872 z "},"Ç":{"ha":557,"x_min":51,"x_max":535,"o":"m 232 -17 q 133 -3 175 -17 q 72 50 92 10 q 63 174 51 90 l 132 651 q 174 769 143 731 q 251 819 204 807 q 354 832 297 832 q 453 819 411 832 q 515 767 494 806 q 524 651 535 729 l 506 519 l 454 519 l 472 650 q 467 747 482 715 q 422 789 453 779 q 349 799 390 799 q 270 789 304 799 q 213 747 236 779 q 181 650 190 715 l 114 167 q 117 69 104 101 q 163 28 131 38 q 238 18 194 18 q 315 28 281 18 q 373 69 350 38 q 406 167 396 101 l 419 272 l 469 272 l 456 174 q 414 49 444 89 q 337 -4 383 8 q 232 -17 290 -17 m 197 -190 q 163 -184 178 -190 q 138 -172 149 -178 l 151 -149 q 174 -160 158 -156 q 199 -165 189 -165 q 245 -151 229 -165 q 263 -121 261 -137 q 221 -78 269 -78 q 200 -82 211 -78 q 179 -93 189 -86 l 160 -81 l 215 0 l 244 0 l 196 -69 l 189 -68 q 213 -58 200 -61 q 236 -56 225 -56 q 285 -75 269 -56 q 297 -117 300 -94 q 266 -170 293 -150 q 197 -190 239 -190 z "},"Ċ":{"ha":557,"x_min":51,"x_max":535,"o":"m 232 -17 q 133 -3 175 -17 q 72 50 92 10 q 63 174 51 90 l 132 651 q 174 769 143 731 q 251 819 204 807 q 354 832 297 832 q 453 819 411 832 q 515 767 494 806 q 524 651 535 729 l 506 519 l 454 519 l 472 650 q 467 747 482 715 q 422 789 453 779 q 349 799 390 799 q 270 789 304 799 q 213 747 236 779 q 181 650 190 715 l 114 167 q 117 69 104 101 q 163 28 131 38 q 238 18 194 18 q 315 28 281 18 q 373 69 350 38 q 406 167 396 101 l 419 272 l 469 272 l 456 174 q 414 49 444 89 q 337 -4 383 8 q 232 -17 290 -17 m 363 892 q 337 903 347 892 q 325 928 326 914 q 336 953 325 943 q 363 964 347 964 q 390 953 379 964 q 400 928 400 943 q 390 903 401 914 q 363 892 378 892 z "},"Ч":{"ha":524,"x_min":53,"x_max":489,"o":"m 322 0 l 356 235 q 292 203 333 218 q 203 188 250 188 q 95 212 128 188 q 58 279 63 236 q 60 375 53 322 l 124 821 l 174 821 l 110 372 q 122 264 101 301 q 219 226 142 226 q 316 246 283 226 q 360 274 349 265 l 439 821 l 489 821 l 372 0 l 322 0 z "},"D":{"ha":583,"x_min":53,"x_max":549,"o":"m 53 0 l 169 821 l 394 821 q 481 806 446 821 q 533 753 517 792 q 538 646 549 715 l 472 181 q 435 69 464 108 q 366 15 407 29 q 274 0 325 0 l 53 0 m 110 33 l 275 33 q 371 64 332 33 q 422 181 410 94 l 486 638 q 469 756 500 725 q 381 788 438 788 l 214 788 l 110 33 z "},"Ď":{"ha":583,"x_min":53,"x_max":549,"o":"m 53 0 l 169 821 l 394 821 q 481 806 446 821 q 533 753 517 792 q 538 646 549 715 l 472 181 q 435 69 464 108 q 366 15 407 29 q 274 0 325 0 l 53 0 m 110 33 l 275 33 q 371 64 332 33 q 422 181 410 94 l 486 638 q 469 756 500 725 q 381 788 438 788 l 214 788 l 110 33 m 343 872 l 240 990 l 281 990 l 369 903 l 485 990 l 524 990 l 386 872 l 343 872 z "},"Đ":{"ha":597,"x_min":24,"x_max":550,"o":"m 53 0 l 169 821 l 397 821 q 484 806 449 821 q 535 753 519 792 q 540 646 550 715 l 475 181 q 438 69 465 108 q 369 15 410 29 q 276 0 328 0 l 53 0 m 24 382 l 28 419 l 260 419 l 256 382 l 24 382 m 110 33 l 275 33 q 374 64 335 33 q 425 181 413 94 l 489 638 q 472 756 503 725 q 382 788 440 788 l 214 788 l 110 33 z "},"Д":{"ha":738,"x_min":-19,"x_max":644,"o":"m -19 -144 l 8 35 l 72 35 q 129 65 106 38 q 167 161 153 92 q 196 293 181 226 q 225 427 211 360 q 253 562 239 494 q 281 694 267 629 q 307 821 294 760 l 639 821 l 529 35 l 644 35 l 618 -144 l 571 -144 l 592 -6 l 49 -6 l 28 -144 l -19 -144 m 164 35 l 478 35 l 582 782 l 349 782 l 222 171 q 202 99 214 139 q 164 35 190 58 z "},"Δ":{"ha":713,"x_min":58,"x_max":642,"o":"m 58 0 l 338 813 l 394 813 l 642 0 l 58 0 m 129 46 l 569 46 l 360 742 l 129 46 z "},"Ђ":{"ha":603,"x_min":78,"x_max":554,"o":"m 119 0 l 231 782 l 78 782 l 83 821 l 443 821 l 438 782 l 282 782 l 244 522 q 303 573 263 549 q 404 597 343 597 q 510 574 476 597 q 549 509 543 550 q 546 414 554 468 l 524 246 q 492 117 513 167 q 444 42 472 68 q 380 8 415 17 q 303 0 344 0 q 289 1 296 0 q 276 1 282 1 l 282 33 q 293 33 288 33 q 304 33 299 33 q 419 85 381 33 q 472 238 457 136 l 494 411 q 486 523 506 485 q 386 561 467 561 q 286 531 322 561 q 239 469 250 500 l 171 0 l 119 0 z "},"Ѕ":{"ha":508,"x_min":32,"x_max":492,"o":"m 214 -8 q 106 14 149 -8 q 48 88 64 36 q 46 231 32 140 l 53 276 l 101 276 l 94 229 q 95 108 83 151 q 138 46 107 64 q 213 28 168 28 q 316 67 269 28 q 378 207 363 107 q 371 307 386 272 q 321 362 356 342 q 235 404 286 382 q 161 444 194 421 q 112 507 128 467 q 104 613 96 547 q 140 727 114 681 q 210 797 165 774 q 321 821 254 821 q 450 774 408 821 q 481 644 492 728 l 468 557 q 444 557 457 557 q 421 557 432 557 l 432 635 q 411 742 440 704 q 315 781 382 781 q 204 740 243 781 q 153 614 165 699 q 162 523 144 557 q 212 469 179 489 q 283 435 244 450 q 377 385 342 410 q 425 320 413 360 q 428 211 438 281 q 385 81 417 129 q 308 13 353 33 q 214 -8 264 -8 z "},"Џ":{"ha":564,"x_min":53,"x_max":528,"o":"m 193 -137 l 211 0 l 53 0 l 168 821 l 221 821 l 111 38 l 368 38 l 476 821 l 528 821 l 413 0 l 251 0 l 233 -137 l 193 -137 z "},"E":{"ha":482,"x_min":53,"x_max":513,"o":"m 53 0 l 169 821 l 513 821 l 506 783 l 215 783 l 169 451 l 394 451 l 390 411 l 163 411 l 111 38 l 401 38 l 396 0 l 53 0 z "},"É":{"ha":482,"x_min":53,"x_max":513,"o":"m 53 0 l 169 821 l 513 821 l 506 783 l 215 783 l 169 451 l 394 451 l 390 411 l 163 411 l 111 38 l 401 38 l 396 0 l 53 0 m 272 879 l 399 988 l 458 988 l 311 879 l 272 879 z "},"Ě":{"ha":482,"x_min":53,"x_max":513,"o":"m 53 0 l 169 821 l 513 821 l 506 783 l 215 783 l 169 451 l 394 451 l 390 411 l 163 411 l 111 38 l 401 38 l 396 0 l 53 0 m 322 872 l 219 990 l 260 990 l 349 903 l 464 990 l 503 990 l 365 872 l 322 872 z "},"Ê":{"ha":482,"x_min":53,"x_max":513,"o":"m 53 0 l 169 821 l 513 821 l 506 783 l 215 783 l 169 451 l 394 451 l 390 411 l 163 411 l 111 38 l 401 38 l 396 0 l 53 0 m 204 872 l 342 990 l 383 990 l 486 872 l 449 872 l 357 960 l 244 872 l 204 872 z "},"Ế":{"ha":482,"x_min":53,"x_max":564,"o":"m 53 0 l 169 821 l 513 821 l 506 783 l 215 783 l 169 451 l 394 451 l 390 411 l 163 411 l 111 38 l 401 38 l 396 0 l 53 0 m 242 871 l 340 957 l 376 957 l 449 871 l 413 871 l 354 929 l 279 871 l 242 871 m 449 922 l 510 1010 l 564 1010 l 481 922 l 449 922 z "},"Ệ":{"ha":482,"x_min":53,"x_max":513,"o":"m 53 0 l 169 821 l 513 821 l 506 783 l 215 783 l 169 451 l 394 451 l 390 411 l 163 411 l 111 38 l 401 38 l 396 0 l 53 0 m 179 -135 q 155 -124 165 -135 q 144 -100 144 -114 q 155 -76 144 -85 q 179 -67 165 -67 q 204 -76 194 -67 q 214 -100 214 -85 q 204 -124 214 -114 q 179 -135 194 -135 m 204 872 l 342 990 l 383 990 l 486 872 l 449 872 l 357 960 l 244 872 l 204 872 z "},"Ề":{"ha":482,"x_min":53,"x_max":513,"o":"m 53 0 l 169 821 l 513 821 l 506 783 l 215 783 l 169 451 l 394 451 l 390 411 l 163 411 l 111 38 l 401 38 l 396 0 l 53 0 m 242 871 l 340 957 l 376 957 l 449 871 l 413 871 l 354 929 l 279 871 l 242 871 m 482 922 l 417 1010 l 471 1010 l 513 922 l 482 922 z "},"Ể":{"ha":482,"x_min":53,"x_max":547,"o":"m 53 0 l 169 821 l 513 821 l 506 783 l 215 783 l 169 451 l 394 451 l 390 411 l 163 411 l 111 38 l 401 38 l 396 0 l 53 0 m 242 871 l 340 957 l 376 957 l 449 871 l 413 871 l 354 929 l 279 871 l 242 871 m 465 917 l 468 935 q 482 954 471 949 q 504 965 493 960 q 515 985 515 971 l 515 990 q 513 1010 515 999 q 492 1021 510 1021 q 463 999 469 1021 l 435 1003 q 457 1033 442 1022 q 497 1043 472 1043 q 537 1028 526 1043 q 546 989 547 1013 l 546 985 q 538 958 546 967 q 521 947 531 950 q 504 940 511 943 q 496 929 497 938 l 496 917 l 465 917 z "},"Ễ":{"ha":482,"x_min":53,"x_max":513,"o":"m 53 0 l 169 821 l 513 821 l 506 783 l 215 783 l 169 451 l 394 451 l 390 411 l 163 411 l 111 38 l 401 38 l 396 0 l 53 0 m 242 871 l 340 957 l 376 957 l 449 871 l 413 871 l 354 929 l 279 871 l 242 871 m 397 979 q 376 983 385 979 q 357 996 368 986 q 340 1008 349 1001 q 318 1014 331 1014 q 298 1006 307 1014 q 283 981 289 997 l 261 981 q 283 1025 267 1007 q 324 1043 300 1043 q 347 1037 336 1043 q 367 1024 357 1031 q 385 1013 378 1017 q 401 1008 392 1008 q 423 1015 414 1008 q 438 1039 432 1022 l 461 1039 q 447 1008 457 1022 q 424 987 436 994 q 397 979 411 979 z "},"Ë":{"ha":482,"x_min":53,"x_max":513,"o":"m 53 0 l 169 821 l 513 821 l 506 783 l 215 783 l 169 451 l 394 451 l 390 411 l 163 411 l 111 38 l 401 38 l 396 0 l 53 0 m 293 892 q 267 902 278 892 q 257 926 257 913 q 267 950 257 940 q 293 960 278 960 q 317 950 307 960 q 328 926 328 940 q 317 902 328 913 q 293 892 307 892 m 411 892 q 387 902 397 892 q 376 926 376 913 q 387 950 376 940 q 411 960 397 960 q 436 950 426 960 q 446 926 446 940 q 436 902 446 913 q 411 892 426 892 z "},"Ė":{"ha":482,"x_min":53,"x_max":513,"o":"m 53 0 l 169 821 l 513 821 l 506 783 l 215 783 l 169 451 l 394 451 l 390 411 l 163 411 l 111 38 l 401 38 l 396 0 l 53 0 m 356 892 q 330 903 340 892 q 318 928 319 914 q 329 953 318 943 q 356 964 340 964 q 383 953 372 964 q 393 928 393 943 q 383 903 394 914 q 356 892 371 892 z "},"Ẹ":{"ha":482,"x_min":53,"x_max":513,"o":"m 53 0 l 169 821 l 513 821 l 506 783 l 215 783 l 169 451 l 394 451 l 390 411 l 163 411 l 111 38 l 401 38 l 396 0 l 53 0 m 179 -135 q 155 -124 165 -135 q 144 -100 144 -114 q 155 -76 144 -85 q 179 -67 165 -67 q 204 -76 194 -67 q 214 -100 214 -85 q 204 -124 214 -114 q 179 -135 194 -135 z "},"Ф":{"ha":626,"x_min":40,"x_max":604,"o":"m 239 -6 l 253 85 l 225 85 q 83 130 125 85 q 54 276 40 175 l 93 547 q 160 689 107 643 q 314 735 214 735 l 343 735 l 356 821 l 407 821 l 394 735 l 419 735 q 561 692 518 735 q 590 543 604 650 l 553 281 q 482 126 538 168 q 324 85 426 85 l 303 85 l 290 -6 l 239 -6 m 233 118 l 256 118 l 339 701 l 317 701 q 200 663 243 701 q 143 542 157 625 l 107 279 q 127 156 94 194 q 233 118 160 118 m 325 118 q 445 152 400 118 q 503 279 490 186 l 539 539 q 517 666 553 631 q 406 701 482 701 l 390 701 l 307 118 l 325 118 z "},"È":{"ha":482,"x_min":53,"x_max":513,"o":"m 53 0 l 169 821 l 513 821 l 506 783 l 215 783 l 169 451 l 394 451 l 390 411 l 163 411 l 111 38 l 401 38 l 396 0 l 53 0 m 356 879 l 222 986 l 283 986 l 394 879 l 356 879 z "},"Ẻ":{"ha":482,"x_min":53,"x_max":513,"o":"m 53 0 l 169 821 l 513 821 l 506 783 l 215 783 l 169 451 l 394 451 l 390 411 l 163 411 l 111 38 l 401 38 l 396 0 l 53 0 m 328 861 l 332 888 q 351 914 335 907 q 383 928 367 921 q 399 958 399 936 l 399 964 q 392 996 399 981 q 361 1011 386 1011 q 317 976 328 1011 l 286 983 q 315 1023 296 1008 q 368 1038 335 1038 q 420 1017 407 1038 q 432 963 433 997 l 432 958 q 422 922 432 933 q 397 904 411 910 q 372 894 382 899 q 361 879 361 890 l 358 861 l 328 861 z "},"Л":{"ha":599,"x_min":-32,"x_max":564,"o":"m -32 0 l -28 33 q 21 57 0 33 q 53 136 42 81 l 196 821 l 564 821 l 447 0 l 396 0 l 504 782 l 239 782 l 100 119 q 90 85 97 104 q 72 47 83 65 q 40 16 60 29 q -7 0 21 3 l -32 0 z "},"М":{"ha":733,"x_min":53,"x_max":699,"o":"m 53 0 l 169 821 l 224 821 l 331 85 l 649 821 l 699 821 l 582 0 l 536 0 l 632 690 l 338 0 l 299 0 l 197 690 l 101 0 l 53 0 z "},"Ē":{"ha":482,"x_min":53,"x_max":513,"o":"m 53 0 l 169 821 l 513 821 l 506 783 l 215 783 l 169 451 l 394 451 l 390 411 l 163 411 l 111 38 l 401 38 l 396 0 l 53 0 m 229 908 l 232 939 l 476 939 l 472 908 l 229 908 z "},"Н":{"ha":597,"x_min":53,"x_max":563,"o":"m 53 0 l 169 821 l 219 821 l 168 451 l 460 451 l 514 821 l 563 821 l 446 0 l 397 0 l 454 411 l 163 411 l 103 0 l 53 0 z "},"Ŋ":{"ha":597,"x_min":53,"x_max":563,"o":"m 285 -232 q 260 -232 272 -232 q 235 -231 249 -232 l 240 -192 l 288 -193 q 353 -176 331 -194 q 382 -107 375 -158 l 399 1 l 200 694 l 101 0 l 53 0 l 169 821 l 215 821 l 415 108 l 515 821 l 563 821 l 438 -61 q 415 -162 431 -125 q 370 -216 400 -200 q 285 -232 340 -232 z "},"Ę":{"ha":482,"x_min":53,"x_max":513,"o":"m 53 0 l 169 821 l 513 821 l 506 783 l 215 783 l 169 451 l 394 451 l 390 411 l 163 411 l 111 38 l 401 38 l 396 0 l 53 0 m 338 -168 q 280 -147 303 -168 q 261 -92 257 -126 q 298 -24 268 -51 q 357 14 328 3 l 392 14 q 329 -31 353 -4 q 301 -85 306 -57 q 313 -126 297 -112 q 347 -140 329 -140 q 372 -137 361 -140 q 388 -131 382 -133 l 394 -153 q 370 -163 385 -158 q 338 -168 356 -168 z "},"Р":{"ha":529,"x_min":53,"x_max":549,"o":"m 53 0 l 169 821 l 406 821 q 509 790 469 821 q 538 686 549 760 l 515 531 q 491 449 510 488 q 431 388 472 411 q 315 365 390 365 l 157 365 l 106 0 l 53 0 m 161 399 l 311 399 q 417 434 378 399 q 467 539 457 469 l 485 671 q 465 759 493 731 q 393 788 436 788 l 215 788 l 161 399 z "},"Э":{"ha":565,"x_min":44,"x_max":532,"o":"m 231 -17 q 128 -4 172 -17 q 65 49 85 8 q 56 175 44 89 l 71 268 l 122 268 l 107 163 q 112 67 97 99 q 159 26 126 36 q 235 17 192 17 q 310 26 276 17 q 368 67 344 36 q 400 163 392 99 l 433 394 l 206 394 l 210 432 l 438 432 l 468 649 q 463 744 478 713 q 418 785 449 775 q 344 796 388 796 q 267 786 301 796 q 208 747 232 776 q 176 654 185 717 l 158 522 l 107 522 l 124 649 q 167 766 136 726 q 244 819 197 806 q 347 832 290 832 q 448 819 404 832 q 512 767 492 806 q 521 649 532 728 l 454 175 q 410 51 442 92 q 333 -3 379 10 q 231 -17 286 -17 z "},"С":{"ha":557,"x_min":51,"x_max":535,"o":"m 232 -17 q 133 -3 175 -17 q 72 50 92 10 q 63 174 51 90 l 132 651 q 174 769 143 731 q 251 819 204 807 q 354 832 297 832 q 453 819 411 832 q 515 767 494 806 q 524 651 535 729 l 506 519 l 454 519 l 472 650 q 467 747 482 715 q 422 789 453 779 q 349 799 390 799 q 270 789 304 799 q 213 747 236 779 q 181 650 190 715 l 114 167 q 117 69 104 101 q 163 28 131 38 q 238 18 194 18 q 315 28 281 18 q 373 69 350 38 q 406 167 396 101 l 419 272 l 469 272 l 456 174 q 414 49 444 89 q 337 -4 383 8 q 232 -17 290 -17 z "},"Ð":{"ha":597,"x_min":24,"x_max":550,"o":"m 53 0 l 169 821 l 397 821 q 484 806 449 821 q 535 753 519 792 q 540 646 550 715 l 475 181 q 438 69 465 108 q 369 15 410 29 q 276 0 328 0 l 53 0 m 24 382 l 28 419 l 260 419 l 256 382 l 24 382 m 110 33 l 275 33 q 374 64 335 33 q 425 181 413 94 l 489 638 q 472 756 503 725 q 382 788 440 788 l 214 788 l 110 33 z "},"Ẽ":{"ha":482,"x_min":53,"x_max":513,"o":"m 53 0 l 169 821 l 513 821 l 506 783 l 215 783 l 169 451 l 394 451 l 390 411 l 163 411 l 111 38 l 401 38 l 396 0 l 53 0 m 403 889 q 375 894 386 889 q 347 914 364 900 q 325 930 338 921 q 296 939 313 939 q 266 928 279 939 q 244 890 253 917 l 217 890 q 247 948 225 925 q 300 971 268 971 q 333 963 318 971 q 361 943 347 954 q 384 928 374 933 q 408 922 394 922 q 438 933 425 922 q 460 968 451 943 l 488 968 q 457 911 479 933 q 403 889 435 889 z "},"F":{"ha":468,"x_min":53,"x_max":513,"o":"m 53 0 l 169 821 l 513 821 l 506 783 l 215 783 l 169 451 l 394 451 l 390 411 l 163 411 l 106 0 l 53 0 z "},"G":{"ha":563,"x_min":51,"x_max":535,"o":"m 222 -17 q 131 -3 171 -17 q 71 49 90 10 q 63 169 51 89 l 132 650 q 172 769 142 731 q 250 819 203 807 q 354 832 297 832 q 453 819 411 832 q 515 767 496 806 q 524 650 535 729 l 510 553 l 460 553 l 472 649 q 469 746 483 714 q 423 788 454 778 q 349 797 392 797 q 269 788 304 797 q 212 746 235 778 q 179 649 189 714 l 113 167 q 117 69 103 101 q 163 28 131 38 q 238 18 194 18 q 349 56 301 18 q 406 167 396 94 l 431 343 l 304 343 l 308 376 l 485 376 l 432 0 l 396 0 l 406 86 q 388 62 396 74 q 371 42 379 50 q 308 -2 344 13 q 222 -17 272 -17 z "},"Ğ":{"ha":563,"x_min":51,"x_max":535,"o":"m 222 -17 q 131 -3 171 -17 q 71 49 90 10 q 63 169 51 89 l 132 650 q 172 769 142 731 q 250 819 203 807 q 354 832 297 832 q 453 819 411 832 q 515 767 496 806 q 524 650 535 729 l 510 553 l 460 553 l 472 649 q 469 746 483 714 q 423 788 454 778 q 349 797 392 797 q 269 788 304 797 q 212 746 235 778 q 179 649 189 714 l 113 167 q 117 69 103 101 q 163 28 131 38 q 238 18 194 18 q 349 56 301 18 q 406 167 396 94 l 431 343 l 304 343 l 308 376 l 485 376 l 432 0 l 396 0 l 406 86 q 388 62 396 74 q 371 42 379 50 q 308 -2 344 13 q 222 -17 272 -17 m 353 872 q 295 883 318 872 q 261 913 272 894 q 246 951 250 931 q 243 988 242 971 l 278 988 q 301 924 279 944 q 358 903 322 903 q 426 923 397 903 q 464 988 454 943 l 499 988 q 476 937 493 964 q 429 891 458 910 q 353 872 400 872 z "},"Ģ":{"ha":563,"x_min":51,"x_max":535,"o":"m 222 -17 q 131 -3 171 -17 q 71 49 90 10 q 63 169 51 89 l 132 650 q 172 769 142 731 q 250 819 203 807 q 354 832 297 832 q 453 819 411 832 q 515 767 496 806 q 524 650 535 729 l 510 553 l 460 553 l 472 649 q 469 746 483 714 q 423 788 454 778 q 349 797 392 797 q 269 788 304 797 q 212 746 235 778 q 179 649 189 714 l 113 167 q 117 69 103 101 q 163 28 131 38 q 238 18 194 18 q 349 56 301 18 q 406 167 396 94 l 431 343 l 304 343 l 308 376 l 485 376 l 432 0 l 396 0 l 406 86 q 388 62 396 74 q 371 42 379 50 q 308 -2 344 13 q 222 -17 272 -17 m 161 -194 q 195 -142 183 -164 q 207 -110 207 -121 q 203 -98 207 -103 q 194 -87 199 -93 q 190 -71 189 -81 q 199 -51 190 -61 q 222 -42 208 -42 q 244 -50 236 -42 q 253 -71 253 -58 q 242 -108 253 -86 q 216 -152 231 -129 q 185 -194 201 -175 l 161 -194 z "},"Ġ":{"ha":563,"x_min":51,"x_max":535,"o":"m 222 -17 q 131 -3 171 -17 q 71 49 90 10 q 63 169 51 89 l 132 650 q 172 769 142 731 q 250 819 203 807 q 354 832 297 832 q 453 819 411 832 q 515 767 496 806 q 524 650 535 729 l 510 553 l 460 553 l 472 649 q 469 746 483 714 q 423 788 454 778 q 349 797 392 797 q 269 788 304 797 q 212 746 235 778 q 179 649 189 714 l 113 167 q 117 69 103 101 q 163 28 131 38 q 238 18 194 18 q 349 56 301 18 q 406 167 396 94 l 431 343 l 304 343 l 308 376 l 485 376 l 432 0 l 396 0 l 406 86 q 388 62 396 74 q 371 42 379 50 q 308 -2 344 13 q 222 -17 272 -17 m 365 892 q 340 903 350 892 q 328 928 329 914 q 339 953 328 943 q 365 964 350 964 q 392 953 382 964 q 403 928 403 943 q 392 903 404 914 q 365 892 381 892 z "},"Г":{"ha":483,"x_min":53,"x_max":517,"o":"m 53 0 l 169 821 l 517 821 l 510 782 l 215 782 l 106 0 l 53 0 z "},"ẞ":{"ha":1061,"x_min":57,"x_max":1001,"o":"m 708 -8 q 613 14 651 -8 q 558 88 574 36 q 556 231 543 140 q 559 253 557 235 q 563 276 561 272 l 611 276 q 608 253 610 271 q 604 229 606 235 q 605 108 593 151 q 645 46 617 64 q 713 28 674 28 q 825 67 778 28 q 888 207 872 107 q 881 307 896 272 q 831 362 865 342 q 744 404 796 382 q 671 444 704 421 q 622 507 638 467 q 614 613 606 547 q 649 727 624 681 q 719 797 675 774 q 831 821 764 821 q 960 774 918 821 q 990 644 1001 728 l 978 557 q 954 557 967 557 q 931 557 942 557 l 942 635 q 922 742 951 704 q 825 781 892 781 q 714 740 753 781 q 663 614 675 699 q 672 523 654 557 q 722 469 689 489 q 793 435 754 450 q 887 385 851 410 q 935 320 922 360 q 938 211 947 281 q 857 40 921 89 q 708 -8 793 -8 m 222 -8 q 127 14 165 -8 q 73 88 89 36 q 69 231 57 140 q 73 253 71 235 q 76 276 75 272 l 126 276 q 123 253 125 271 q 119 229 121 235 q 120 108 110 151 q 160 46 131 64 q 229 28 189 28 q 340 67 292 28 q 401 207 388 107 q 396 307 411 272 q 346 362 381 342 q 260 404 311 382 q 185 444 218 421 q 135 507 151 467 q 128 613 119 547 q 163 727 138 681 q 233 797 189 774 q 344 821 278 821 q 474 774 432 821 q 506 644 517 728 l 494 557 q 469 557 481 557 q 444 557 457 557 l 456 635 q 436 742 467 704 q 340 781 406 781 q 228 740 267 781 q 178 614 190 699 q 187 523 169 557 q 237 469 204 489 q 307 435 269 450 q 402 385 367 410 q 451 320 438 360 q 453 211 464 281 q 372 40 436 89 q 222 -8 308 -8 z "},"Ѓ":{"ha":483,"x_min":53,"x_max":517,"o":"m 53 0 l 169 821 l 517 821 l 510 782 l 215 782 l 106 0 l 53 0 m 285 879 l 411 988 l 471 988 l 324 879 l 285 879 z "},"H":{"ha":597,"x_min":53,"x_max":563,"o":"m 53 0 l 169 821 l 219 821 l 168 451 l 460 451 l 514 821 l 563 821 l 446 0 l 397 0 l 454 411 l 163 411 l 103 0 l 53 0 z "},"Х":{"ha":414,"x_min":-22,"x_max":451,"o":"m -22 0 l 175 415 l 110 821 l 158 821 l 219 439 l 403 821 l 451 821 l 257 414 l 332 0 l 282 0 l 213 383 l 32 0 l -22 0 z "},"Ъ":{"ha":539,"x_min":50,"x_max":483,"o":"m 50 0 l 160 782 l 64 782 l 72 821 l 218 821 l 188 604 l 332 604 q 431 584 397 604 q 474 524 465 564 q 475 425 483 485 l 443 199 q 422 110 436 147 q 385 48 408 72 q 328 12 363 24 q 246 0 293 0 l 50 0 m 106 33 l 243 33 q 328 55 299 33 q 373 115 358 76 q 393 201 388 153 q 409 306 401 253 q 424 411 417 360 q 428 488 431 453 q 401 547 425 524 q 317 569 376 569 l 182 569 q 144 300 164 435 q 106 33 125 165 z "},"Ħ":{"ha":596,"x_min":47,"x_max":589,"o":"m 47 658 l 57 686 l 589 686 l 581 658 l 47 658 m 53 0 l 169 821 l 219 821 l 168 451 l 460 451 l 514 821 l 563 821 l 446 0 l 397 0 l 454 411 l 163 411 l 103 0 l 53 0 z "},"I":{"ha":256,"x_min":53,"x_max":219,"o":"m 53 0 l 169 821 l 219 821 l 103 0 l 53 0 z "},"І":{"ha":256,"x_min":53,"x_max":219,"o":"m 53 0 l 169 821 l 219 821 l 103 0 l 53 0 z "},"Я":{"ha":576,"x_min":7,"x_max":540,"o":"m 426 0 l 375 0 l 431 392 l 303 392 q 247 375 271 392 q 208 333 224 358 q 179 278 193 307 l 60 0 l 7 0 l 133 282 q 188 375 161 344 q 258 406 214 406 l 260 403 q 146 440 188 404 q 115 550 104 475 l 135 686 q 192 790 144 760 q 303 821 240 821 l 540 821 l 426 0 m 435 428 l 486 788 l 307 788 q 228 761 264 788 q 183 676 192 735 l 168 560 q 188 458 157 488 q 283 428 218 428 l 435 428 z "},"Í":{"ha":256,"x_min":53,"x_max":317,"o":"m 53 0 l 169 821 l 219 821 l 103 0 l 53 0 m 129 879 l 256 988 l 315 988 l 168 879 l 129 879 z "},"Ǐ":{"ha":256,"x_min":53,"x_max":360,"o":"m 53 0 l 169 821 l 219 821 l 103 0 l 53 0 m 179 872 l 76 990 l 117 990 l 206 903 l 321 990 l 360 990 l 222 872 l 179 872 z "},"Î":{"ha":256,"x_min":53,"x_max":343,"o":"m 53 0 l 169 821 l 219 821 l 103 0 l 53 0 m 61 872 l 199 990 l 240 990 l 343 872 l 306 872 l 214 960 l 101 872 l 61 872 z "},"Ï":{"ha":256,"x_min":53,"x_max":304,"o":"m 53 0 l 169 821 l 219 821 l 103 0 l 53 0 m 150 892 q 124 902 135 892 q 114 926 114 913 q 124 950 114 940 q 150 960 135 960 q 174 950 164 960 q 185 926 185 940 q 174 902 185 913 q 150 892 164 892 m 268 892 q 244 902 254 892 q 233 926 233 913 q 244 950 233 940 q 268 960 254 960 q 293 950 283 960 q 303 926 303 940 q 293 902 303 913 q 268 892 283 892 z "},"İ":{"ha":256,"x_min":53,"x_max":250,"o":"m 53 0 l 169 821 l 219 821 l 103 0 l 53 0 m 213 892 q 187 903 197 892 q 175 928 176 914 q 186 953 175 943 q 213 964 197 964 q 240 953 229 964 q 250 928 250 943 q 240 903 251 914 q 213 892 228 892 z "},"Ị":{"ha":256,"x_min":31,"x_max":219,"o":"m 53 0 l 169 821 l 219 821 l 103 0 l 53 0 m 65 -135 q 41 -124 51 -135 q 31 -100 31 -114 q 41 -76 31 -85 q 65 -67 51 -67 q 90 -76 81 -67 q 100 -100 100 -85 q 90 -124 100 -114 q 65 -135 81 -135 z "},"Е":{"ha":482,"x_min":53,"x_max":513,"o":"m 53 0 l 169 821 l 513 821 l 506 783 l 215 783 l 169 451 l 394 451 l 390 411 l 163 411 l 111 38 l 401 38 l 396 0 l 53 0 z "},"Ѐ":{"ha":482,"x_min":53,"x_max":513,"o":"m 53 0 l 169 821 l 513 821 l 506 783 l 215 783 l 169 451 l 394 451 l 390 411 l 163 411 l 111 38 l 401 38 l 396 0 l 53 0 m 360 879 l 226 986 l 288 986 l 399 879 l 360 879 z "},"Ì":{"ha":256,"x_min":53,"x_max":253,"o":"m 53 0 l 169 821 l 219 821 l 103 0 l 53 0 m 213 879 l 79 986 l 140 986 l 251 879 l 213 879 z "},"Ỉ":{"ha":256,"x_min":53,"x_max":290,"o":"m 53 0 l 169 821 l 219 821 l 103 0 l 53 0 m 185 861 l 189 888 q 208 914 192 907 q 240 928 224 921 q 256 958 256 936 l 256 964 q 249 996 256 981 q 218 1011 243 1011 q 174 976 185 1011 l 143 983 q 172 1023 153 1008 q 225 1038 192 1038 q 277 1017 264 1038 q 289 963 290 997 l 289 958 q 278 922 289 933 q 253 904 268 910 q 228 894 239 899 q 218 879 218 890 l 215 861 l 185 861 z "},"И":{"ha":601,"x_min":53,"x_max":567,"o":"m 53 0 l 169 821 l 218 821 l 117 107 l 518 821 l 567 821 l 450 0 l 401 0 l 500 696 l 104 0 l 53 0 z "},"Ѝ":{"ha":601,"x_min":53,"x_max":567,"o":"m 53 0 l 169 821 l 218 821 l 117 107 l 518 821 l 567 821 l 450 0 l 401 0 l 500 696 l 104 0 l 53 0 m 394 879 l 261 986 l 322 986 l 433 879 l 394 879 z "},"Й":{"ha":601,"x_min":53,"x_max":567,"o":"m 53 0 l 169 821 l 218 821 l 117 107 l 518 821 l 567 821 l 450 0 l 401 0 l 500 696 l 104 0 l 53 0 m 382 872 q 324 883 347 872 q 290 913 301 894 q 275 951 279 931 q 272 988 271 971 l 307 988 q 330 924 308 944 q 388 903 351 903 q 455 923 426 903 q 493 988 483 943 l 528 988 q 505 937 522 964 q 458 891 488 910 q 382 872 429 872 z "},"Ī":{"ha":256,"x_min":53,"x_max":333,"o":"m 53 0 l 169 821 l 219 821 l 103 0 l 53 0 m 86 908 l 89 939 l 333 939 l 329 908 l 86 908 z "},"Ё":{"ha":482,"x_min":53,"x_max":513,"o":"m 53 0 l 169 821 l 513 821 l 506 783 l 215 783 l 169 451 l 394 451 l 390 411 l 163 411 l 111 38 l 401 38 l 396 0 l 53 0 m 297 892 q 272 902 282 892 q 261 926 261 913 q 272 950 261 940 q 297 960 282 960 q 322 950 311 960 q 332 926 332 940 q 322 902 332 913 q 297 892 311 892 m 415 892 q 391 902 401 892 q 381 926 381 913 q 391 950 381 940 q 415 960 401 960 q 440 950 431 960 q 450 926 450 940 q 440 902 450 913 q 415 892 431 892 z "},"Į":{"ha":256,"x_min":-31,"x_max":219,"o":"m 53 0 l 169 821 l 219 821 l 103 0 l 53 0 m 50 -182 q -8 -161 15 -182 q -26 -106 -31 -140 q 10 -38 -19 -65 q 69 0 40 -11 l 104 0 q 42 -44 65 -18 q 14 -99 18 -71 q 26 -140 10 -126 q 60 -154 42 -154 q 84 -151 74 -154 q 100 -144 94 -147 l 107 -167 q 83 -177 97 -172 q 50 -182 68 -182 z "},"Ĩ":{"ha":256,"x_min":53,"x_max":344,"o":"m 53 0 l 169 821 l 219 821 l 103 0 l 53 0 m 260 889 q 232 894 243 889 q 204 914 221 900 q 182 930 194 921 q 153 939 169 939 q 123 928 136 939 q 101 890 110 917 l 74 890 q 103 948 82 925 q 157 971 125 971 q 190 963 175 971 q 218 943 204 954 q 241 928 231 933 q 265 922 251 922 q 295 933 282 922 q 317 968 308 943 l 344 968 q 314 911 336 933 q 260 889 292 889 z "},"Ю":{"ha":871,"x_min":53,"x_max":836,"o":"m 531 -17 q 432 -3 475 -17 q 369 51 389 10 q 361 176 350 92 l 394 411 l 163 411 l 104 0 l 53 0 l 168 821 l 219 821 l 169 451 l 400 451 l 426 649 q 470 768 439 729 q 549 819 501 807 q 653 832 596 832 q 753 819 710 832 q 816 767 796 806 q 824 649 836 728 l 760 176 q 715 49 747 90 q 637 -4 683 8 q 531 -17 590 -17 m 538 18 q 615 28 581 18 q 672 68 649 38 q 704 161 696 99 l 774 653 q 768 747 783 717 q 722 788 753 778 q 647 797 690 797 q 572 788 607 797 q 514 747 538 778 q 481 653 490 717 l 411 161 q 417 68 403 99 q 464 28 432 38 q 538 18 496 18 z "},"J":{"ha":286,"x_min":-37,"x_max":258,"o":"m 13 -1 q -12 -1 0 -1 q -37 0 -24 -1 l -32 39 l 15 38 q 81 54 58 36 q 110 124 103 72 l 208 821 l 258 821 l 168 169 q 145 67 160 106 q 100 14 131 29 q 13 -1 69 -1 z "},"Ј":{"ha":286,"x_min":-37,"x_max":258,"o":"m 13 -1 q -12 -1 0 -1 q -37 0 -24 -1 l -32 39 l 15 38 q 81 54 58 36 q 110 124 103 72 l 208 821 l 258 821 l 168 169 q 145 67 160 106 q 100 14 131 29 q 13 -1 69 -1 z "},"K":{"ha":496,"x_min":53,"x_max":535,"o":"m 368 0 l 189 428 l 478 821 l 535 821 l 242 425 l 426 0 l 368 0 m 53 0 l 169 821 l 219 821 l 103 0 l 53 0 z "},"К":{"ha":510,"x_min":53,"x_max":549,"o":"m 53 0 l 169 821 l 219 821 l 167 440 l 218 440 l 492 821 l 549 821 l 264 425 l 440 0 l 379 0 l 215 401 l 161 401 l 103 0 l 53 0 z "},"Ķ":{"ha":496,"x_min":53,"x_max":535,"o":"m 368 0 l 189 428 l 478 821 l 535 821 l 242 425 l 426 0 l 368 0 m 53 0 l 169 821 l 219 821 l 103 0 l 53 0 m 161 -194 q 195 -142 183 -164 q 207 -110 207 -121 q 203 -98 207 -103 q 194 -87 199 -93 q 190 -71 189 -81 q 199 -51 190 -61 q 222 -42 208 -42 q 244 -50 236 -42 q 253 -71 253 -58 q 242 -108 253 -86 q 216 -152 231 -129 q 185 -194 201 -175 l 161 -194 z "},"Ќ":{"ha":510,"x_min":53,"x_max":549,"o":"m 53 0 l 169 821 l 219 821 l 167 440 l 218 440 l 492 821 l 549 821 l 264 425 l 440 0 l 379 0 l 215 401 l 161 401 l 103 0 l 53 0 m 292 879 l 418 988 l 478 988 l 331 879 l 292 879 z "},"L":{"ha":411,"x_min":53,"x_max":360,"o":"m 53 0 l 169 821 l 219 821 l 110 38 l 360 38 l 354 0 l 53 0 z "},"Ĺ":{"ha":411,"x_min":53,"x_max":360,"o":"m 53 0 l 169 821 l 219 821 l 110 38 l 360 38 l 354 0 l 53 0 m 169 879 l 296 988 l 356 988 l 208 879 l 169 879 z "},"Ľ":{"ha":421,"x_min":53,"x_max":442,"o":"m 53 0 l 169 821 l 219 821 l 110 38 l 360 38 l 354 0 l 53 0 m 357 674 l 403 842 l 442 842 l 382 674 l 357 674 z "},"Ļ":{"ha":411,"x_min":53,"x_max":360,"o":"m 53 0 l 169 821 l 219 821 l 110 38 l 360 38 l 354 0 l 53 0 m 136 -194 q 170 -142 158 -164 q 182 -110 182 -121 q 178 -98 182 -103 q 169 -87 174 -93 q 165 -71 164 -81 q 174 -51 165 -61 q 197 -42 183 -42 q 219 -50 211 -42 q 228 -71 228 -58 q 217 -108 228 -86 q 191 -152 206 -129 q 160 -194 176 -175 l 136 -194 z "},"Љ":{"ha":885,"x_min":-32,"x_max":828,"o":"m -32 0 l -28 33 q 21 57 0 33 q 53 136 42 81 l 196 821 l 564 821 l 447 0 l 396 0 l 504 782 l 239 782 l 100 119 q 90 85 97 104 q 72 47 83 65 q 40 16 60 29 q -7 0 21 3 l -32 0 m 451 33 l 589 33 q 674 55 643 33 q 719 115 704 76 q 740 201 733 153 q 753 306 746 253 q 768 411 761 360 q 772 488 775 453 q 744 547 769 524 q 661 569 719 569 l 525 569 q 488 300 507 435 q 451 33 469 165 m 396 0 l 511 818 l 561 818 l 532 604 l 676 604 q 776 584 742 604 q 819 524 810 564 q 819 425 828 485 l 788 199 q 767 110 781 147 q 730 48 753 72 q 672 12 707 24 q 590 0 638 0 l 396 0 z "},"Ł":{"ha":515,"x_min":36,"x_max":400,"o":"m 93 0 l 129 244 l 36 204 l 40 242 l 133 282 l 210 819 l 260 819 l 186 303 l 342 371 l 338 335 l 181 267 l 149 38 l 400 38 l 393 0 l 93 0 z "},"M":{"ha":733,"x_min":53,"x_max":699,"o":"m 53 0 l 169 821 l 224 821 l 331 85 l 649 821 l 699 821 l 582 0 l 536 0 l 632 690 l 338 0 l 299 0 l 197 690 l 101 0 l 53 0 z "},"N":{"ha":597,"x_min":53,"x_max":563,"o":"m 53 0 l 169 821 l 215 821 l 415 108 l 515 821 l 563 821 l 446 0 l 399 0 l 200 694 l 101 0 l 53 0 z "},"Ń":{"ha":597,"x_min":53,"x_max":563,"o":"m 53 0 l 169 821 l 215 821 l 415 108 l 515 821 l 563 821 l 446 0 l 399 0 l 200 694 l 101 0 l 53 0 m 301 879 l 428 988 l 488 988 l 340 879 l 301 879 z "},"Ň":{"ha":597,"x_min":53,"x_max":563,"o":"m 53 0 l 169 821 l 215 821 l 415 108 l 515 821 l 563 821 l 446 0 l 399 0 l 200 694 l 101 0 l 53 0 m 350 872 l 247 990 l 288 990 l 376 903 l 492 990 l 531 990 l 393 872 l 350 872 z "},"Ņ":{"ha":597,"x_min":53,"x_max":563,"o":"m 53 0 l 169 821 l 215 821 l 415 108 l 515 821 l 563 821 l 446 0 l 399 0 l 200 694 l 101 0 l 53 0 m 179 -194 q 213 -142 201 -164 q 225 -110 225 -121 q 221 -98 225 -103 q 212 -87 217 -93 q 208 -71 207 -81 q 217 -51 208 -61 q 240 -42 226 -42 q 263 -50 254 -42 q 271 -71 271 -58 q 260 -108 271 -86 q 234 -152 249 -129 q 203 -194 219 -175 l 179 -194 z "},"Њ":{"ha":876,"x_min":53,"x_max":833,"o":"m 53 0 l 169 821 l 219 821 l 168 450 l 461 450 l 515 821 l 567 821 l 536 604 l 681 604 q 778 584 744 604 q 823 524 813 564 q 824 425 833 485 l 792 199 q 769 110 783 147 q 733 48 756 72 q 676 12 711 24 q 593 0 642 0 l 399 0 l 456 410 l 163 410 l 103 0 l 53 0 m 456 33 l 592 33 q 677 55 647 33 q 722 115 707 76 q 742 201 736 153 l 771 406 q 775 487 778 450 q 748 547 772 524 q 664 569 724 569 l 529 569 l 456 33 z "},"Ñ":{"ha":597,"x_min":53,"x_max":563,"o":"m 53 0 l 169 821 l 215 821 l 415 108 l 515 821 l 563 821 l 446 0 l 399 0 l 200 694 l 101 0 l 53 0 m 433 904 q 406 910 417 904 q 378 929 394 915 q 356 945 368 936 q 326 954 343 954 q 297 943 310 954 q 275 906 283 932 l 247 906 q 277 963 256 940 q 331 986 299 986 q 363 978 349 986 q 392 958 378 969 q 415 943 404 949 q 439 938 425 938 q 469 948 456 938 q 490 983 482 958 l 518 983 q 488 926 510 949 q 433 904 465 904 z "},"O":{"ha":569,"x_min":51,"x_max":536,"o":"m 232 -17 q 133 -3 175 -17 q 71 50 90 10 q 63 174 51 90 l 132 651 q 174 769 143 731 q 251 819 204 807 q 354 832 297 832 q 453 819 411 832 q 516 767 496 806 q 525 651 536 729 l 458 174 q 415 49 446 89 q 337 -4 383 8 q 232 -17 290 -17 m 238 18 q 315 28 281 18 q 374 69 350 38 q 407 167 397 101 l 474 649 q 468 746 482 714 q 422 788 454 778 q 349 797 390 797 q 269 788 304 797 q 211 746 235 778 q 179 649 188 714 l 113 167 q 117 69 103 101 q 163 28 132 38 q 238 18 194 18 z "},"О":{"ha":569,"x_min":51,"x_max":536,"o":"m 232 -17 q 133 -3 175 -17 q 71 50 90 10 q 63 174 51 90 l 132 651 q 174 769 143 731 q 251 819 204 807 q 354 832 297 832 q 453 819 411 832 q 516 767 496 806 q 525 651 536 729 l 458 174 q 415 49 446 89 q 337 -4 383 8 q 232 -17 290 -17 m 238 18 q 315 28 281 18 q 374 69 350 38 q 407 167 397 101 l 474 649 q 468 746 482 714 q 422 788 454 778 q 349 797 390 797 q 269 788 304 797 q 211 746 235 778 q 179 649 188 714 l 113 167 q 117 69 103 101 q 163 28 132 38 q 238 18 194 18 z "},"Œ":{"ha":813,"x_min":51,"x_max":843,"o":"m 231 -17 q 133 -3 175 -17 q 72 50 92 10 q 63 174 51 90 l 131 651 q 172 769 142 731 q 250 819 203 807 q 353 832 297 832 q 451 819 410 832 q 513 767 493 806 q 521 651 532 729 l 453 174 q 411 49 442 89 q 335 -4 381 8 q 231 -17 289 -17 m 236 18 q 315 28 281 18 q 373 69 350 38 q 406 167 396 101 l 472 649 q 467 746 482 714 q 422 788 453 778 q 346 797 390 797 q 269 788 304 797 q 211 746 235 778 q 179 649 188 714 l 113 167 q 117 69 103 101 q 163 28 131 38 q 236 18 194 18 m 382 0 l 497 821 l 843 821 l 838 783 l 543 783 l 496 451 l 726 451 l 721 411 l 489 411 l 436 38 l 732 38 l 728 0 l 382 0 z "},"Ó":{"ha":569,"x_min":51,"x_max":536,"o":"m 232 -17 q 133 -3 175 -17 q 71 50 90 10 q 63 174 51 90 l 132 651 q 174 769 143 731 q 251 819 204 807 q 354 832 297 832 q 453 819 411 832 q 516 767 496 806 q 525 651 536 729 l 458 174 q 415 49 446 89 q 337 -4 383 8 q 232 -17 290 -17 m 238 18 q 315 28 281 18 q 374 69 350 38 q 407 167 397 101 l 474 649 q 468 746 482 714 q 422 788 454 778 q 349 797 390 797 q 269 788 304 797 q 211 746 235 778 q 179 649 188 714 l 113 167 q 117 69 103 101 q 163 28 132 38 q 238 18 194 18 m 286 879 l 413 988 l 472 988 l 325 879 l 286 879 z "},"Ǒ":{"ha":569,"x_min":51,"x_max":536,"o":"m 232 -17 q 133 -3 175 -17 q 71 50 90 10 q 63 174 51 90 l 132 651 q 174 769 143 731 q 251 819 204 807 q 354 832 297 832 q 453 819 411 832 q 516 767 496 806 q 525 651 536 729 l 458 174 q 415 49 446 89 q 337 -4 383 8 q 232 -17 290 -17 m 238 18 q 315 28 281 18 q 374 69 350 38 q 407 167 397 101 l 474 649 q 468 746 482 714 q 422 788 454 778 q 349 797 390 797 q 269 788 304 797 q 211 746 235 778 q 179 649 188 714 l 113 167 q 117 69 103 101 q 163 28 132 38 q 238 18 194 18 m 336 872 l 233 990 l 274 990 l 363 903 l 478 990 l 517 990 l 379 872 l 336 872 z "},"Ô":{"ha":569,"x_min":51,"x_max":536,"o":"m 232 -17 q 133 -3 175 -17 q 71 50 90 10 q 63 174 51 90 l 132 651 q 174 769 143 731 q 251 819 204 807 q 354 832 297 832 q 453 819 411 832 q 516 767 496 806 q 525 651 536 729 l 458 174 q 415 49 446 89 q 337 -4 383 8 q 232 -17 290 -17 m 238 18 q 315 28 281 18 q 374 69 350 38 q 407 167 397 101 l 474 649 q 468 746 482 714 q 422 788 454 778 q 349 797 390 797 q 269 788 304 797 q 211 746 235 778 q 179 649 188 714 l 113 167 q 117 69 103 101 q 163 28 132 38 q 238 18 194 18 m 218 872 l 356 990 l 397 990 l 500 872 l 463 872 l 371 960 l 258 872 l 218 872 z "},"Ố":{"ha":569,"x_min":51,"x_max":578,"o":"m 232 -17 q 133 -3 175 -17 q 71 50 90 10 q 63 174 51 90 l 132 651 q 174 769 143 731 q 251 819 204 807 q 354 832 297 832 q 453 819 411 832 q 516 767 496 806 q 525 651 536 729 l 458 174 q 415 49 446 89 q 337 -4 383 8 q 232 -17 290 -17 m 238 18 q 315 28 281 18 q 374 69 350 38 q 407 167 397 101 l 474 649 q 468 746 482 714 q 422 788 454 778 q 349 797 390 797 q 269 788 304 797 q 211 746 235 778 q 179 649 188 714 l 113 167 q 117 69 103 101 q 163 28 132 38 q 238 18 194 18 m 256 871 l 354 957 l 390 957 l 463 871 l 426 871 l 368 929 l 293 871 l 256 871 m 463 922 l 524 1010 l 578 1010 l 494 922 l 463 922 z "},"Ộ":{"ha":569,"x_min":51,"x_max":536,"o":"m 232 -17 q 133 -3 175 -17 q 71 50 90 10 q 63 174 51 90 l 132 651 q 174 769 143 731 q 251 819 204 807 q 354 832 297 832 q 453 819 411 832 q 516 767 496 806 q 525 651 536 729 l 458 174 q 415 49 446 89 q 337 -4 383 8 q 232 -17 290 -17 m 238 18 q 315 28 281 18 q 374 69 350 38 q 407 167 397 101 l 474 649 q 468 746 482 714 q 422 788 454 778 q 349 797 390 797 q 269 788 304 797 q 211 746 235 778 q 179 649 188 714 l 113 167 q 117 69 103 101 q 163 28 132 38 q 238 18 194 18 m 222 -135 q 198 -124 208 -135 q 188 -100 188 -114 q 198 -76 188 -85 q 222 -67 208 -67 q 247 -76 238 -67 q 257 -100 257 -85 q 247 -124 257 -114 q 222 -135 238 -135 m 218 872 l 356 990 l 397 990 l 500 872 l 463 872 l 371 960 l 258 872 l 218 872 z "},"Ồ":{"ha":569,"x_min":51,"x_max":536,"o":"m 232 -17 q 133 -3 175 -17 q 71 50 90 10 q 63 174 51 90 l 132 651 q 174 769 143 731 q 251 819 204 807 q 354 832 297 832 q 453 819 411 832 q 516 767 496 806 q 525 651 536 729 l 458 174 q 415 49 446 89 q 337 -4 383 8 q 232 -17 290 -17 m 238 18 q 315 28 281 18 q 374 69 350 38 q 407 167 397 101 l 474 649 q 468 746 482 714 q 422 788 454 778 q 349 797 390 797 q 269 788 304 797 q 211 746 235 778 q 179 649 188 714 l 113 167 q 117 69 103 101 q 163 28 132 38 q 238 18 194 18 m 256 871 l 354 957 l 390 957 l 463 871 l 426 871 l 368 929 l 293 871 l 256 871 m 496 922 l 431 1010 l 485 1010 l 526 922 l 496 922 z "},"Ổ":{"ha":569,"x_min":51,"x_max":561,"o":"m 232 -17 q 133 -3 175 -17 q 71 50 90 10 q 63 174 51 90 l 132 651 q 174 769 143 731 q 251 819 204 807 q 354 832 297 832 q 453 819 411 832 q 516 767 496 806 q 525 651 536 729 l 458 174 q 415 49 446 89 q 337 -4 383 8 q 232 -17 290 -17 m 238 18 q 315 28 281 18 q 374 69 350 38 q 407 167 397 101 l 474 649 q 468 746 482 714 q 422 788 454 778 q 349 797 390 797 q 269 788 304 797 q 211 746 235 778 q 179 649 188 714 l 113 167 q 117 69 103 101 q 163 28 132 38 q 238 18 194 18 m 256 871 l 354 957 l 390 957 l 463 871 l 426 871 l 368 929 l 293 871 l 256 871 m 479 917 l 482 935 q 496 954 485 949 q 518 965 507 960 q 529 985 529 971 l 529 990 q 526 1010 529 999 q 506 1021 524 1021 q 476 999 483 1021 l 449 1003 q 471 1033 456 1022 q 511 1043 486 1043 q 551 1028 540 1043 q 560 989 561 1013 l 560 985 q 552 958 560 967 q 535 947 544 950 q 518 940 525 943 q 510 929 511 938 l 510 917 l 479 917 z "},"Ỗ":{"ha":569,"x_min":51,"x_max":536,"o":"m 232 -17 q 133 -3 175 -17 q 71 50 90 10 q 63 174 51 90 l 132 651 q 174 769 143 731 q 251 819 204 807 q 354 832 297 832 q 453 819 411 832 q 516 767 496 806 q 525 651 536 729 l 458 174 q 415 49 446 89 q 337 -4 383 8 q 232 -17 290 -17 m 238 18 q 315 28 281 18 q 374 69 350 38 q 407 167 397 101 l 474 649 q 468 746 482 714 q 422 788 454 778 q 349 797 390 797 q 269 788 304 797 q 211 746 235 778 q 179 649 188 714 l 113 167 q 117 69 103 101 q 163 28 132 38 q 238 18 194 18 m 256 871 l 354 957 l 390 957 l 463 871 l 426 871 l 368 929 l 293 871 l 256 871 m 411 979 q 390 983 399 979 q 371 996 382 986 q 353 1008 363 1001 q 332 1014 344 1014 q 312 1006 321 1014 q 297 981 303 997 l 275 981 q 297 1025 281 1007 q 338 1043 314 1043 q 360 1037 350 1043 q 381 1024 371 1031 q 399 1013 392 1017 q 415 1008 406 1008 q 437 1015 428 1008 q 451 1039 446 1022 l 475 1039 q 460 1008 471 1022 q 438 987 450 994 q 411 979 425 979 z "},"Ö":{"ha":569,"x_min":51,"x_max":536,"o":"m 232 -17 q 133 -3 175 -17 q 71 50 90 10 q 63 174 51 90 l 132 651 q 174 769 143 731 q 251 819 204 807 q 354 832 297 832 q 453 819 411 832 q 516 767 496 806 q 525 651 536 729 l 458 174 q 415 49 446 89 q 337 -4 383 8 q 232 -17 290 -17 m 238 18 q 315 28 281 18 q 374 69 350 38 q 407 167 397 101 l 474 649 q 468 746 482 714 q 422 788 454 778 q 349 797 390 797 q 269 788 304 797 q 211 746 235 778 q 179 649 188 714 l 113 167 q 117 69 103 101 q 163 28 132 38 q 238 18 194 18 m 307 892 q 281 902 292 892 q 271 926 271 913 q 281 950 271 940 q 307 960 292 960 q 331 950 321 960 q 342 926 342 940 q 331 902 342 913 q 307 892 321 892 m 425 892 q 401 902 411 892 q 390 926 390 913 q 401 950 390 940 q 425 960 411 960 q 450 950 440 960 q 460 926 460 940 q 450 902 460 913 q 425 892 440 892 z "},"Ọ":{"ha":569,"x_min":51,"x_max":536,"o":"m 232 -17 q 133 -3 175 -17 q 71 50 90 10 q 63 174 51 90 l 132 651 q 174 769 143 731 q 251 819 204 807 q 354 832 297 832 q 453 819 411 832 q 516 767 496 806 q 525 651 536 729 l 458 174 q 415 49 446 89 q 337 -4 383 8 q 232 -17 290 -17 m 238 18 q 315 28 281 18 q 374 69 350 38 q 407 167 397 101 l 474 649 q 468 746 482 714 q 422 788 454 778 q 349 797 390 797 q 269 788 304 797 q 211 746 235 778 q 179 649 188 714 l 113 167 q 117 69 103 101 q 163 28 132 38 q 238 18 194 18 m 222 -135 q 198 -124 208 -135 q 188 -100 188 -114 q 198 -76 188 -85 q 222 -67 208 -67 q 247 -76 238 -67 q 257 -100 257 -85 q 247 -124 257 -114 q 222 -135 238 -135 z "},"Ò":{"ha":569,"x_min":51,"x_max":536,"o":"m 232 -17 q 133 -3 175 -17 q 71 50 90 10 q 63 174 51 90 l 132 651 q 174 769 143 731 q 251 819 204 807 q 354 832 297 832 q 453 819 411 832 q 516 767 496 806 q 525 651 536 729 l 458 174 q 415 49 446 89 q 337 -4 383 8 q 232 -17 290 -17 m 238 18 q 315 28 281 18 q 374 69 350 38 q 407 167 397 101 l 474 649 q 468 746 482 714 q 422 788 454 778 q 349 797 390 797 q 269 788 304 797 q 211 746 235 778 q 179 649 188 714 l 113 167 q 117 69 103 101 q 163 28 132 38 q 238 18 194 18 m 369 879 l 236 986 l 297 986 l 408 879 l 369 879 z "},"Ỏ":{"ha":569,"x_min":51,"x_max":536,"o":"m 232 -17 q 133 -3 175 -17 q 71 50 90 10 q 63 174 51 90 l 132 651 q 174 769 143 731 q 251 819 204 807 q 354 832 297 832 q 453 819 411 832 q 516 767 496 806 q 525 651 536 729 l 458 174 q 415 49 446 89 q 337 -4 383 8 q 232 -17 290 -17 m 238 18 q 315 28 281 18 q 374 69 350 38 q 407 167 397 101 l 474 649 q 468 746 482 714 q 422 788 454 778 q 349 797 390 797 q 269 788 304 797 q 211 746 235 778 q 179 649 188 714 l 113 167 q 117 69 103 101 q 163 28 132 38 q 238 18 194 18 m 342 861 l 346 888 q 365 914 349 907 q 397 928 381 921 q 413 958 413 936 l 413 964 q 406 996 413 981 q 375 1011 400 1011 q 331 976 342 1011 l 300 983 q 329 1023 310 1008 q 382 1038 349 1038 q 434 1017 421 1038 q 446 963 447 997 l 446 958 q 435 922 446 933 q 410 904 425 910 q 385 894 396 899 q 375 879 375 890 l 372 861 l 342 861 z "},"Ơ":{"ha":569,"x_min":51,"x_max":572,"o":"m 232 -17 q 133 -3 175 -17 q 71 50 90 10 q 63 174 51 90 l 132 651 q 174 769 143 731 q 251 819 204 807 q 354 832 297 832 q 453 819 411 832 q 516 767 496 806 q 525 651 536 729 l 458 174 q 415 49 446 89 q 337 -4 383 8 q 232 -17 290 -17 m 238 18 q 315 28 281 18 q 374 69 350 38 q 407 167 397 101 l 474 649 q 468 746 482 714 q 422 788 454 778 q 349 797 390 797 q 269 788 304 797 q 211 746 235 778 q 179 649 188 714 l 113 167 q 117 69 103 101 q 163 28 132 38 q 238 18 194 18 m 440 790 l 439 821 l 453 821 q 531 882 522 821 l 533 903 l 574 903 l 572 889 q 530 815 565 842 q 440 790 494 789 z "},"Ớ":{"ha":569,"x_min":51,"x_max":572,"o":"m 232 -17 q 133 -3 175 -17 q 71 50 90 10 q 63 174 51 90 l 132 651 q 174 769 143 731 q 251 819 204 807 q 354 832 297 832 q 453 819 411 832 q 516 767 496 806 q 525 651 536 729 l 458 174 q 415 49 446 89 q 337 -4 383 8 q 232 -17 290 -17 m 238 18 q 315 28 281 18 q 374 69 350 38 q 407 167 397 101 l 474 649 q 468 746 482 714 q 422 788 454 778 q 349 797 390 797 q 269 788 304 797 q 211 746 235 778 q 179 649 188 714 l 113 167 q 117 69 103 101 q 163 28 132 38 q 238 18 194 18 m 440 790 l 439 821 l 453 821 q 531 882 522 821 l 533 903 l 574 903 l 572 889 q 530 815 565 842 q 440 790 494 789 m 286 879 l 413 988 l 472 988 l 325 879 l 286 879 z "},"Ợ":{"ha":569,"x_min":51,"x_max":572,"o":"m 232 -17 q 133 -3 175 -17 q 71 50 90 10 q 63 174 51 90 l 132 651 q 174 769 143 731 q 251 819 204 807 q 354 832 297 832 q 453 819 411 832 q 516 767 496 806 q 525 651 536 729 l 458 174 q 415 49 446 89 q 337 -4 383 8 q 232 -17 290 -17 m 238 18 q 315 28 281 18 q 374 69 350 38 q 407 167 397 101 l 474 649 q 468 746 482 714 q 422 788 454 778 q 349 797 390 797 q 269 788 304 797 q 211 746 235 778 q 179 649 188 714 l 113 167 q 117 69 103 101 q 163 28 132 38 q 238 18 194 18 m 440 790 l 439 821 l 453 821 q 531 882 522 821 l 533 903 l 574 903 l 572 889 q 530 815 565 842 q 440 790 494 789 m 222 -135 q 198 -124 208 -135 q 188 -100 188 -114 q 198 -76 188 -85 q 222 -67 208 -67 q 247 -76 238 -67 q 257 -100 257 -85 q 247 -124 257 -114 q 222 -135 238 -135 z "},"Ờ":{"ha":569,"x_min":51,"x_max":572,"o":"m 232 -17 q 133 -3 175 -17 q 71 50 90 10 q 63 174 51 90 l 132 651 q 174 769 143 731 q 251 819 204 807 q 354 832 297 832 q 453 819 411 832 q 516 767 496 806 q 525 651 536 729 l 458 174 q 415 49 446 89 q 337 -4 383 8 q 232 -17 290 -17 m 238 18 q 315 28 281 18 q 374 69 350 38 q 407 167 397 101 l 474 649 q 468 746 482 714 q 422 788 454 778 q 349 797 390 797 q 269 788 304 797 q 211 746 235 778 q 179 649 188 714 l 113 167 q 117 69 103 101 q 163 28 132 38 q 238 18 194 18 m 440 790 l 439 821 l 453 821 q 531 882 522 821 l 533 903 l 574 903 l 572 889 q 530 815 565 842 q 440 790 494 789 m 369 879 l 236 986 l 297 986 l 408 879 l 369 879 z "},"Ở":{"ha":569,"x_min":51,"x_max":572,"o":"m 232 -17 q 133 -3 175 -17 q 71 50 90 10 q 63 174 51 90 l 132 651 q 174 769 143 731 q 251 819 204 807 q 354 832 297 832 q 453 819 411 832 q 516 767 496 806 q 525 651 536 729 l 458 174 q 415 49 446 89 q 337 -4 383 8 q 232 -17 290 -17 m 238 18 q 315 28 281 18 q 374 69 350 38 q 407 167 397 101 l 474 649 q 468 746 482 714 q 422 788 454 778 q 349 797 390 797 q 269 788 304 797 q 211 746 235 778 q 179 649 188 714 l 113 167 q 117 69 103 101 q 163 28 132 38 q 238 18 194 18 m 440 790 l 439 821 l 453 821 q 531 882 522 821 l 533 903 l 574 903 l 572 889 q 530 815 565 842 q 440 790 494 789 m 342 861 l 346 888 q 365 914 349 907 q 397 928 381 921 q 413 958 413 936 l 413 964 q 406 996 413 981 q 375 1011 400 1011 q 331 976 342 1011 l 300 983 q 329 1023 310 1008 q 382 1038 349 1038 q 434 1017 421 1038 q 446 963 447 997 l 446 958 q 435 922 446 933 q 410 904 425 910 q 385 894 396 899 q 375 879 375 890 l 372 861 l 342 861 z "},"Ỡ":{"ha":569,"x_min":51,"x_max":572,"o":"m 232 -17 q 133 -3 175 -17 q 71 50 90 10 q 63 174 51 90 l 132 651 q 174 769 143 731 q 251 819 204 807 q 354 832 297 832 q 453 819 411 832 q 516 767 496 806 q 525 651 536 729 l 458 174 q 415 49 446 89 q 337 -4 383 8 q 232 -17 290 -17 m 238 18 q 315 28 281 18 q 374 69 350 38 q 407 167 397 101 l 474 649 q 468 746 482 714 q 422 788 454 778 q 349 797 390 797 q 269 788 304 797 q 211 746 235 778 q 179 649 188 714 l 113 167 q 117 69 103 101 q 163 28 132 38 q 238 18 194 18 m 440 790 l 439 821 l 453 821 q 531 882 522 821 l 533 903 l 574 903 l 572 889 q 530 815 565 842 q 440 790 494 789 m 417 889 q 389 894 400 889 q 361 914 378 900 q 339 930 351 921 q 310 939 326 939 q 280 928 293 939 q 258 890 267 917 l 231 890 q 260 948 239 925 q 314 971 282 971 q 347 963 332 971 q 375 943 361 954 q 398 928 388 933 q 422 922 408 922 q 452 933 439 922 q 474 968 465 943 l 501 968 q 471 911 493 933 q 417 889 449 889 z "},"Ő":{"ha":569,"x_min":51,"x_max":536,"o":"m 232 -17 q 133 -3 175 -17 q 71 50 90 10 q 63 174 51 90 l 132 651 q 174 769 143 731 q 251 819 204 807 q 354 832 297 832 q 453 819 411 832 q 516 767 496 806 q 525 651 536 729 l 458 174 q 415 49 446 89 q 337 -4 383 8 q 232 -17 290 -17 m 238 18 q 315 28 281 18 q 374 69 350 38 q 407 167 397 101 l 474 649 q 468 746 482 714 q 422 788 454 778 q 349 797 390 797 q 269 788 304 797 q 211 746 235 778 q 179 649 188 714 l 113 167 q 117 69 103 101 q 163 28 132 38 q 238 18 194 18 m 289 872 l 350 996 l 403 996 l 315 872 l 289 872 m 371 872 l 435 996 l 488 996 l 399 872 l 371 872 z "},"Ō":{"ha":569,"x_min":51,"x_max":536,"o":"m 232 -17 q 133 -3 175 -17 q 71 50 90 10 q 63 174 51 90 l 132 651 q 174 769 143 731 q 251 819 204 807 q 354 832 297 832 q 453 819 411 832 q 516 767 496 806 q 525 651 536 729 l 458 174 q 415 49 446 89 q 337 -4 383 8 q 232 -17 290 -17 m 238 18 q 315 28 281 18 q 374 69 350 38 q 407 167 397 101 l 474 649 q 468 746 482 714 q 422 788 454 778 q 349 797 390 797 q 269 788 304 797 q 211 746 235 778 q 179 649 188 714 l 113 167 q 117 69 103 101 q 163 28 132 38 q 238 18 194 18 m 243 908 l 246 939 l 490 939 l 486 908 l 243 908 z "},"Ω":{"ha":833,"x_min":60,"x_max":768,"o":"m 60 0 l 64 44 l 297 39 l 289 44 q 164 183 206 111 q 109 318 122 254 q 96 424 96 382 q 119 574 97 507 q 185 687 142 640 q 289 758 228 733 q 428 783 350 783 q 563 758 504 783 q 663 687 622 733 q 725 575 704 640 q 746 428 746 510 q 728 320 744 383 q 668 185 711 257 q 543 44 625 114 l 535 39 l 768 44 l 767 0 l 461 0 l 464 29 q 580 135 536 81 q 647 244 624 190 q 680 344 671 297 q 689 428 689 392 q 660 597 692 524 q 569 710 629 669 q 424 750 510 750 q 279 709 340 750 q 184 592 218 668 q 149 411 150 517 q 156 338 147 382 q 186 240 164 293 q 252 133 208 188 q 364 29 296 79 l 363 0 l 60 0 z "},"Ø":{"ha":592,"x_min":-8,"x_max":571,"o":"m -8 -19 l 532 821 l 571 821 l 31 -19 l -8 -19 m 235 -17 q 135 -3 178 -17 q 74 50 93 10 q 65 174 54 90 l 132 651 q 174 769 143 731 q 253 819 206 807 q 356 832 300 832 q 456 819 414 832 q 517 767 497 806 q 526 651 538 729 l 458 174 q 415 49 446 89 q 339 -4 385 8 q 235 -17 293 -17 m 239 18 q 318 28 283 18 q 376 69 353 38 q 407 167 399 101 l 475 649 q 470 746 485 714 q 424 788 456 778 q 350 797 393 797 q 272 788 307 797 q 215 746 238 778 q 182 649 193 714 l 115 167 q 120 69 107 101 q 165 28 133 38 q 239 18 197 18 z "},"Õ":{"ha":569,"x_min":51,"x_max":536,"o":"m 232 -17 q 133 -3 175 -17 q 71 50 90 10 q 63 174 51 90 l 132 651 q 174 769 143 731 q 251 819 204 807 q 354 832 297 832 q 453 819 411 832 q 516 767 496 806 q 525 651 536 729 l 458 174 q 415 49 446 89 q 337 -4 383 8 q 232 -17 290 -17 m 238 18 q 315 28 281 18 q 374 69 350 38 q 407 167 397 101 l 474 649 q 468 746 482 714 q 422 788 454 778 q 349 797 390 797 q 269 788 304 797 q 211 746 235 778 q 179 649 188 714 l 113 167 q 117 69 103 101 q 163 28 132 38 q 238 18 194 18 m 417 889 q 389 894 400 889 q 361 914 378 900 q 339 930 351 921 q 310 939 326 939 q 280 928 293 939 q 258 890 267 917 l 231 890 q 260 948 239 925 q 314 971 282 971 q 347 963 332 971 q 375 943 361 954 q 398 928 388 933 q 422 922 408 922 q 452 933 439 922 q 474 968 465 943 l 501 968 q 471 911 493 933 q 417 889 449 889 z "},"P":{"ha":529,"x_min":53,"x_max":549,"o":"m 53 0 l 169 821 l 406 821 q 509 790 469 821 q 538 686 549 760 l 515 531 q 491 449 510 488 q 431 388 472 411 q 315 365 390 365 l 157 365 l 106 0 l 53 0 m 161 399 l 311 399 q 417 434 378 399 q 467 539 457 469 l 485 671 q 465 759 493 731 q 393 788 436 788 l 215 788 l 161 399 z "},"П":{"ha":578,"x_min":53,"x_max":543,"o":"m 53 0 l 169 821 l 543 821 l 426 0 l 372 0 l 483 782 l 217 782 l 107 0 l 53 0 z "},"Q":{"ha":569,"x_min":51,"x_max":536,"o":"m 358 -158 l 294 -12 q 265 -15 279 -14 q 232 -17 250 -17 q 133 -3 175 -17 q 72 50 92 10 q 64 174 51 90 l 132 651 q 174 769 143 731 q 252 819 206 807 q 354 832 299 832 q 454 819 413 832 q 516 767 496 806 q 525 651 536 729 l 458 174 q 417 52 447 92 q 342 -1 386 13 l 403 -133 l 358 -158 m 238 18 q 317 28 283 18 q 374 69 351 38 q 407 167 397 101 l 474 649 q 469 746 483 714 q 423 788 454 778 q 349 797 392 797 q 271 788 306 797 q 213 746 236 778 q 181 649 190 714 l 114 167 q 118 69 104 101 q 164 28 132 38 q 238 18 196 18 z "},"R":{"ha":571,"x_min":53,"x_max":550,"o":"m 53 0 l 169 821 l 407 821 q 510 790 471 821 q 539 686 550 760 l 519 550 q 458 440 510 475 q 333 403 406 404 l 335 406 q 397 375 379 406 q 425 282 415 344 l 472 0 l 419 0 l 378 278 q 365 333 374 307 q 338 375 356 358 q 289 392 321 392 l 160 392 l 104 0 l 53 0 m 165 428 l 315 428 q 422 458 383 428 q 471 560 461 488 l 486 676 q 466 761 494 735 q 393 788 438 788 l 214 788 l 165 428 z "},"Ŕ":{"ha":571,"x_min":53,"x_max":550,"o":"m 53 0 l 169 821 l 407 821 q 510 790 471 821 q 539 686 550 760 l 519 550 q 458 440 510 475 q 333 403 406 404 l 335 406 q 397 375 379 406 q 425 282 415 344 l 472 0 l 419 0 l 378 278 q 365 333 374 307 q 338 375 356 358 q 289 392 321 392 l 160 392 l 104 0 l 53 0 m 165 428 l 315 428 q 422 458 383 428 q 471 560 461 488 l 486 676 q 466 761 494 735 q 393 788 438 788 l 214 788 l 165 428 m 288 879 l 414 988 l 474 988 l 326 879 l 288 879 z "},"Ř":{"ha":571,"x_min":53,"x_max":550,"o":"m 53 0 l 169 821 l 407 821 q 510 790 471 821 q 539 686 550 760 l 519 550 q 458 440 510 475 q 333 403 406 404 l 335 406 q 397 375 379 406 q 425 282 415 344 l 472 0 l 419 0 l 378 278 q 365 333 374 307 q 338 375 356 358 q 289 392 321 392 l 160 392 l 104 0 l 53 0 m 165 428 l 315 428 q 422 458 383 428 q 471 560 461 488 l 486 676 q 466 761 494 735 q 393 788 438 788 l 214 788 l 165 428 m 338 872 l 235 990 l 275 990 l 364 903 l 479 990 l 518 990 l 381 872 l 338 872 z "},"Ŗ":{"ha":571,"x_min":53,"x_max":550,"o":"m 53 0 l 169 821 l 407 821 q 510 790 471 821 q 539 686 550 760 l 519 550 q 458 440 510 475 q 333 403 406 404 l 335 406 q 397 375 379 406 q 425 282 415 344 l 472 0 l 419 0 l 378 278 q 365 333 374 307 q 338 375 356 358 q 289 392 321 392 l 160 392 l 104 0 l 53 0 m 165 428 l 315 428 q 422 458 383 428 q 471 560 461 488 l 486 676 q 466 761 494 735 q 393 788 438 788 l 214 788 l 165 428 m 194 -194 q 228 -142 217 -164 q 240 -110 240 -121 q 236 -98 240 -103 q 227 -87 232 -93 q 224 -71 222 -81 q 233 -51 224 -61 q 256 -42 242 -42 q 278 -50 269 -42 q 286 -71 286 -58 q 275 -108 286 -86 q 249 -152 264 -129 q 218 -194 235 -175 l 194 -194 z "},"S":{"ha":508,"x_min":32,"x_max":492,"o":"m 214 -8 q 106 14 149 -8 q 48 88 64 36 q 46 231 32 140 l 53 276 l 101 276 l 94 229 q 95 108 83 151 q 138 46 107 64 q 213 28 168 28 q 316 67 269 28 q 378 207 363 107 q 371 307 386 272 q 321 362 356 342 q 235 404 286 382 q 161 444 194 421 q 112 507 128 467 q 104 613 96 547 q 140 727 114 681 q 210 797 165 774 q 321 821 254 821 q 450 774 408 821 q 481 644 492 728 l 468 557 q 444 557 457 557 q 421 557 432 557 l 432 635 q 411 742 440 704 q 315 781 382 781 q 204 740 243 781 q 153 614 165 699 q 162 523 144 557 q 212 469 179 489 q 283 435 244 450 q 377 385 342 410 q 425 320 413 360 q 428 211 438 281 q 385 81 417 129 q 308 13 353 33 q 214 -8 264 -8 z "},"Š":{"ha":508,"x_min":32,"x_max":500,"o":"m 214 -8 q 106 14 149 -8 q 48 88 64 36 q 46 231 32 140 l 53 276 l 101 276 l 94 229 q 95 108 83 151 q 138 46 107 64 q 213 28 168 28 q 316 67 269 28 q 378 207 363 107 q 371 307 386 272 q 321 362 356 342 q 235 404 286 382 q 161 444 194 421 q 112 507 128 467 q 104 613 96 547 q 140 727 114 681 q 210 797 165 774 q 321 821 254 821 q 450 774 408 821 q 481 644 492 728 l 468 557 q 444 557 457 557 q 421 557 432 557 l 432 635 q 411 742 440 704 q 315 781 382 781 q 204 740 243 781 q 153 614 165 699 q 162 523 144 557 q 212 469 179 489 q 283 435 244 450 q 377 385 342 410 q 425 320 413 360 q 428 211 438 281 q 385 81 417 129 q 308 13 353 33 q 214 -8 264 -8 m 319 872 l 217 990 l 257 990 l 346 903 l 461 990 l 500 990 l 363 872 l 319 872 z "},"Ş":{"ha":508,"x_min":32,"x_max":492,"o":"m 214 -8 q 106 14 149 -8 q 48 88 64 36 q 46 231 32 140 l 53 276 l 101 276 l 94 229 q 95 108 83 151 q 138 46 107 64 q 213 28 168 28 q 316 67 269 28 q 378 207 363 107 q 371 307 386 272 q 321 362 356 342 q 235 404 286 382 q 161 444 194 421 q 112 507 128 467 q 104 613 96 547 q 140 727 114 681 q 210 797 165 774 q 321 821 254 821 q 450 774 408 821 q 481 644 492 728 l 468 557 q 444 557 457 557 q 421 557 432 557 l 432 635 q 411 742 440 704 q 315 781 382 781 q 204 740 243 781 q 153 614 165 699 q 162 523 144 557 q 212 469 179 489 q 283 435 244 450 q 377 385 342 410 q 425 320 413 360 q 428 211 438 281 q 385 81 417 129 q 308 13 353 33 q 214 -8 264 -8 m 179 -190 q 145 -184 160 -190 q 119 -172 131 -178 l 133 -149 q 156 -160 140 -156 q 181 -165 171 -165 q 227 -151 211 -165 q 244 -121 243 -137 q 203 -78 251 -78 q 182 -82 193 -78 q 161 -93 171 -86 l 142 -81 l 197 0 l 226 0 l 178 -69 l 171 -68 q 194 -58 182 -61 q 218 -56 207 -56 q 267 -75 251 -56 q 279 -117 282 -94 q 248 -170 275 -150 q 179 -190 221 -190 z "},"Ș":{"ha":508,"x_min":32,"x_max":492,"o":"m 214 -8 q 106 14 149 -8 q 48 88 64 36 q 46 231 32 140 l 53 276 l 101 276 l 94 229 q 95 108 83 151 q 138 46 107 64 q 213 28 168 28 q 316 67 269 28 q 378 207 363 107 q 371 307 386 272 q 321 362 356 342 q 235 404 286 382 q 161 444 194 421 q 112 507 128 467 q 104 613 96 547 q 140 727 114 681 q 210 797 165 774 q 321 821 254 821 q 450 774 408 821 q 481 644 492 728 l 468 557 q 444 557 457 557 q 421 557 432 557 l 432 635 q 411 742 440 704 q 315 781 382 781 q 204 740 243 781 q 153 614 165 699 q 162 523 144 557 q 212 469 179 489 q 283 435 244 450 q 377 385 342 410 q 425 320 413 360 q 428 211 438 281 q 385 81 417 129 q 308 13 353 33 q 214 -8 264 -8 m 140 -194 q 174 -142 163 -164 q 186 -110 186 -121 q 182 -98 186 -103 q 173 -87 178 -93 q 169 -71 168 -81 q 178 -51 169 -61 q 201 -42 188 -42 q 224 -50 215 -42 q 232 -71 232 -58 q 221 -108 232 -86 q 195 -152 210 -129 q 164 -194 181 -175 l 140 -194 z "},"Ш":{"ha":890,"x_min":53,"x_max":854,"o":"m 53 0 l 169 821 l 222 821 l 111 38 l 375 38 l 486 821 l 539 821 l 428 38 l 692 38 l 803 821 l 854 821 l 738 0 l 53 0 z "},"Щ":{"ha":836,"x_min":15,"x_max":815,"o":"m 667 -107 l 682 0 l 15 0 l 131 821 l 183 821 l 72 38 l 336 38 l 447 821 l 499 821 l 389 38 l 653 38 l 763 821 l 815 821 l 704 32 l 732 32 l 713 -107 l 667 -107 z "},"Ь":{"ha":514,"x_min":36,"x_max":469,"o":"m 36 0 l 151 818 l 201 818 l 171 604 l 317 604 q 416 584 382 604 q 460 524 450 564 q 461 425 469 485 l 429 199 q 408 110 422 147 q 372 48 394 72 q 315 12 349 24 q 231 0 281 0 l 36 0 m 90 33 l 228 33 q 333 71 299 33 q 379 193 367 108 l 410 414 q 413 490 417 454 q 385 547 410 525 q 300 569 360 569 l 165 569 l 90 33 z "},"T":{"ha":375,"x_min":78,"x_max":425,"o":"m 111 0 l 222 783 l 78 783 l 85 821 l 425 821 l 418 783 l 272 783 l 161 0 l 111 0 z "},"Ŧ":{"ha":404,"x_min":78,"x_max":425,"o":"m 111 586 l 117 622 l 342 622 l 338 586 l 111 586 m 111 0 l 222 783 l 78 783 l 85 821 l 425 821 l 418 783 l 272 783 l 161 0 l 111 0 z "},"Ť":{"ha":375,"x_min":78,"x_max":425,"o":"m 111 0 l 222 783 l 78 783 l 85 821 l 425 821 l 418 783 l 272 783 l 161 0 l 111 0 m 239 872 l 136 990 l 176 990 l 265 903 l 381 990 l 419 990 l 282 872 l 239 872 z "},"Ţ":{"ha":375,"x_min":46,"x_max":425,"o":"m 111 0 l 222 783 l 78 783 l 85 821 l 425 821 l 418 783 l 272 783 l 161 0 l 111 0 m 106 -190 q 72 -184 86 -190 q 46 -172 57 -178 l 60 -149 q 82 -160 67 -156 q 107 -165 97 -165 q 153 -151 138 -165 q 171 -121 169 -137 q 129 -78 178 -78 q 108 -82 119 -78 q 88 -93 97 -86 l 68 -81 l 124 0 l 153 0 l 104 -69 l 97 -68 q 121 -58 108 -61 q 144 -56 133 -56 q 193 -75 178 -56 q 206 -117 208 -94 q 174 -170 201 -150 q 106 -190 147 -190 z "},"Ț":{"ha":375,"x_min":67,"x_max":425,"o":"m 111 0 l 222 783 l 78 783 l 85 821 l 425 821 l 418 783 l 272 783 l 161 0 l 111 0 m 67 -194 q 101 -142 89 -164 q 113 -110 113 -121 q 108 -98 113 -103 q 99 -87 104 -93 q 96 -71 94 -81 q 105 -51 96 -61 q 128 -42 114 -42 q 150 -50 142 -42 q 158 -71 158 -58 q 147 -108 158 -86 q 122 -152 136 -129 q 90 -194 107 -175 l 67 -194 z "},"Т":{"ha":375,"x_min":78,"x_max":425,"o":"m 111 0 l 222 783 l 78 783 l 85 821 l 425 821 l 418 783 l 272 783 l 161 0 l 111 0 z "},"Þ":{"ha":517,"x_min":7,"x_max":479,"o":"m 7 0 l 124 821 l 176 821 l 153 661 l 336 661 q 440 630 400 661 q 468 525 479 599 l 446 371 q 422 289 440 326 q 363 228 403 251 q 247 204 322 204 l 88 204 l 60 0 l 7 0 m 93 238 l 243 238 q 349 272 311 238 q 397 378 388 307 l 417 508 q 397 599 425 571 q 325 628 368 628 l 147 628 l 93 238 z "},"Ц":{"ha":568,"x_min":53,"x_max":542,"o":"m 393 -107 l 408 0 l 53 0 l 168 821 l 222 821 l 111 39 l 379 39 l 489 821 l 542 821 l 431 33 l 458 33 l 439 -107 l 393 -107 z "},"Ћ":{"ha":607,"x_min":78,"x_max":553,"o":"m 121 0 l 231 782 l 78 782 l 85 821 l 444 821 l 438 782 l 282 782 l 247 529 q 304 578 264 556 q 403 601 344 601 q 511 576 479 601 q 548 507 543 550 q 546 414 553 464 l 488 0 l 436 0 l 494 415 q 496 492 500 458 q 467 544 492 525 q 386 563 442 563 q 288 533 324 563 q 240 474 251 504 l 172 0 l 121 0 z "},"U":{"ha":579,"x_min":60,"x_max":551,"o":"m 239 -17 q 166 -10 200 -17 q 107 15 132 -4 q 71 69 82 33 q 68 163 60 104 l 161 821 l 211 821 l 118 157 q 126 69 110 99 q 174 28 142 39 q 243 18 206 18 q 317 28 282 18 q 376 69 351 39 q 408 157 401 99 l 501 821 l 551 821 l 458 163 q 431 69 450 104 q 381 15 411 33 q 315 -10 351 -4 q 239 -17 278 -17 z "},"У":{"ha":454,"x_min":-4,"x_max":485,"o":"m 53 -7 q 21 -5 35 -7 q -4 0 7 -3 l 0 32 q 18 29 7 31 q 43 28 29 28 q 81 35 61 28 q 119 61 101 42 q 149 94 133 75 q 163 138 165 113 l 97 821 l 150 821 l 203 196 l 201 196 l 435 821 l 485 821 l 236 164 q 160 32 200 71 q 53 -7 121 -7 z "},"Ú":{"ha":579,"x_min":60,"x_max":551,"o":"m 239 -17 q 166 -10 200 -17 q 107 15 132 -4 q 71 69 82 33 q 68 163 60 104 l 161 821 l 211 821 l 118 157 q 126 69 110 99 q 174 28 142 39 q 243 18 206 18 q 317 28 282 18 q 376 69 351 39 q 408 157 401 99 l 501 821 l 551 821 l 458 163 q 431 69 450 104 q 381 15 411 33 q 315 -10 351 -4 q 239 -17 278 -17 m 290 879 l 417 988 l 476 988 l 329 879 l 290 879 z "},"Ǔ":{"ha":579,"x_min":60,"x_max":551,"o":"m 239 -17 q 166 -10 200 -17 q 107 15 132 -4 q 71 69 82 33 q 68 163 60 104 l 161 821 l 211 821 l 118 157 q 126 69 110 99 q 174 28 142 39 q 243 18 206 18 q 317 28 282 18 q 376 69 351 39 q 408 157 401 99 l 501 821 l 551 821 l 458 163 q 431 69 450 104 q 381 15 411 33 q 315 -10 351 -4 q 239 -17 278 -17 m 340 872 l 238 990 l 278 990 l 367 903 l 482 990 l 521 990 l 383 872 l 340 872 z "},"Û":{"ha":579,"x_min":60,"x_max":551,"o":"m 239 -17 q 166 -10 200 -17 q 107 15 132 -4 q 71 69 82 33 q 68 163 60 104 l 161 821 l 211 821 l 118 157 q 126 69 110 99 q 174 28 142 39 q 243 18 206 18 q 317 28 282 18 q 376 69 351 39 q 408 157 401 99 l 501 821 l 551 821 l 458 163 q 431 69 450 104 q 381 15 411 33 q 315 -10 351 -4 q 239 -17 278 -17 m 222 872 l 360 990 l 401 990 l 504 872 l 467 872 l 375 960 l 263 872 l 222 872 z "},"Ü":{"ha":579,"x_min":60,"x_max":551,"o":"m 239 -17 q 166 -10 200 -17 q 107 15 132 -4 q 71 69 82 33 q 68 163 60 104 l 161 821 l 211 821 l 118 157 q 126 69 110 99 q 174 28 142 39 q 243 18 206 18 q 317 28 282 18 q 376 69 351 39 q 408 157 401 99 l 501 821 l 551 821 l 458 163 q 431 69 450 104 q 381 15 411 33 q 315 -10 351 -4 q 239 -17 278 -17 m 311 892 q 285 902 296 892 q 275 926 275 913 q 285 950 275 940 q 311 960 296 960 q 335 950 325 960 q 346 926 346 940 q 335 902 346 913 q 311 892 325 892 m 429 892 q 405 902 415 892 q 394 926 394 913 q 405 950 394 940 q 429 960 415 960 q 454 950 444 960 q 464 926 464 940 q 454 902 464 913 q 429 892 444 892 z "},"Ǘ":{"ha":579,"x_min":60,"x_max":551,"o":"m 239 -17 q 166 -10 200 -17 q 107 15 132 -4 q 71 69 82 33 q 68 163 60 104 l 161 821 l 211 821 l 118 157 q 126 69 110 99 q 174 28 142 39 q 243 18 206 18 q 317 28 282 18 q 376 69 351 39 q 408 157 401 99 l 501 821 l 551 821 l 458 163 q 431 69 450 104 q 381 15 411 33 q 315 -10 351 -4 q 239 -17 278 -17 m 311 892 q 285 902 296 892 q 275 926 275 913 q 285 950 275 940 q 311 960 296 960 q 335 950 325 960 q 346 926 346 940 q 335 902 346 913 q 311 892 325 892 m 429 892 q 405 902 415 892 q 394 926 394 913 q 405 950 394 940 q 429 960 415 960 q 454 950 444 960 q 464 926 464 940 q 454 902 464 913 q 429 892 444 892 m 310 982 l 436 1090 l 496 1090 l 349 982 l 310 982 z "},"Ǚ":{"ha":579,"x_min":60,"x_max":551,"o":"m 239 -17 q 166 -10 200 -17 q 107 15 132 -4 q 71 69 82 33 q 68 163 60 104 l 161 821 l 211 821 l 118 157 q 126 69 110 99 q 174 28 142 39 q 243 18 206 18 q 317 28 282 18 q 376 69 351 39 q 408 157 401 99 l 501 821 l 551 821 l 458 163 q 431 69 450 104 q 381 15 411 33 q 315 -10 351 -4 q 239 -17 278 -17 m 311 892 q 285 902 296 892 q 275 926 275 913 q 285 950 275 940 q 311 960 296 960 q 335 950 325 960 q 346 926 346 940 q 335 902 346 913 q 311 892 325 892 m 429 892 q 405 902 415 892 q 394 926 394 913 q 405 950 394 940 q 429 960 415 960 q 454 950 444 960 q 464 926 464 940 q 454 902 464 913 q 429 892 444 892 m 360 975 l 257 1093 l 297 1093 l 386 1006 l 501 1093 l 540 1093 l 403 975 l 360 975 z "},"Ǜ":{"ha":579,"x_min":60,"x_max":551,"o":"m 239 -17 q 166 -10 200 -17 q 107 15 132 -4 q 71 69 82 33 q 68 163 60 104 l 161 821 l 211 821 l 118 157 q 126 69 110 99 q 174 28 142 39 q 243 18 206 18 q 317 28 282 18 q 376 69 351 39 q 408 157 401 99 l 501 821 l 551 821 l 458 163 q 431 69 450 104 q 381 15 411 33 q 315 -10 351 -4 q 239 -17 278 -17 m 311 892 q 285 902 296 892 q 275 926 275 913 q 285 950 275 940 q 311 960 296 960 q 335 950 325 960 q 346 926 346 940 q 335 902 346 913 q 311 892 325 892 m 429 892 q 405 902 415 892 q 394 926 394 913 q 405 950 394 940 q 429 960 415 960 q 454 950 444 960 q 464 926 464 940 q 454 902 464 913 q 429 892 444 892 m 393 982 l 260 1089 l 321 1089 l 432 982 l 393 982 z "},"Ǖ":{"ha":579,"x_min":60,"x_max":551,"o":"m 239 -17 q 166 -10 200 -17 q 107 15 132 -4 q 71 69 82 33 q 68 163 60 104 l 161 821 l 211 821 l 118 157 q 126 69 110 99 q 174 28 142 39 q 243 18 206 18 q 317 28 282 18 q 376 69 351 39 q 408 157 401 99 l 501 821 l 551 821 l 458 163 q 431 69 450 104 q 381 15 411 33 q 315 -10 351 -4 q 239 -17 278 -17 m 311 892 q 285 902 296 892 q 275 926 275 913 q 285 950 275 940 q 311 960 296 960 q 335 950 325 960 q 346 926 346 940 q 335 902 346 913 q 311 892 325 892 m 429 892 q 405 902 415 892 q 394 926 394 913 q 405 950 394 940 q 429 960 415 960 q 454 950 444 960 q 464 926 464 940 q 454 902 464 913 q 429 892 444 892 m 267 1013 l 269 1043 l 514 1043 l 510 1013 l 267 1013 z "},"Ụ":{"ha":579,"x_min":60,"x_max":551,"o":"m 239 -17 q 166 -10 200 -17 q 107 15 132 -4 q 71 69 82 33 q 68 163 60 104 l 161 821 l 211 821 l 118 157 q 126 69 110 99 q 174 28 142 39 q 243 18 206 18 q 317 28 282 18 q 376 69 351 39 q 408 157 401 99 l 501 821 l 551 821 l 458 163 q 431 69 450 104 q 381 15 411 33 q 315 -10 351 -4 q 239 -17 278 -17 m 226 -135 q 202 -124 213 -135 q 192 -100 192 -114 q 202 -76 192 -85 q 226 -67 213 -67 q 251 -76 242 -67 q 261 -100 261 -85 q 251 -124 261 -114 q 226 -135 242 -135 z "},"Ù":{"ha":579,"x_min":60,"x_max":551,"o":"m 239 -17 q 166 -10 200 -17 q 107 15 132 -4 q 71 69 82 33 q 68 163 60 104 l 161 821 l 211 821 l 118 157 q 126 69 110 99 q 174 28 142 39 q 243 18 206 18 q 317 28 282 18 q 376 69 351 39 q 408 157 401 99 l 501 821 l 551 821 l 458 163 q 431 69 450 104 q 381 15 411 33 q 315 -10 351 -4 q 239 -17 278 -17 m 374 879 l 240 986 l 301 986 l 413 879 l 374 879 z "},"Ủ":{"ha":579,"x_min":60,"x_max":551,"o":"m 239 -17 q 166 -10 200 -17 q 107 15 132 -4 q 71 69 82 33 q 68 163 60 104 l 161 821 l 211 821 l 118 157 q 126 69 110 99 q 174 28 142 39 q 243 18 206 18 q 317 28 282 18 q 376 69 351 39 q 408 157 401 99 l 501 821 l 551 821 l 458 163 q 431 69 450 104 q 381 15 411 33 q 315 -10 351 -4 q 239 -17 278 -17 m 346 861 l 350 888 q 369 914 353 907 q 401 928 385 921 q 417 958 417 936 l 417 964 q 410 996 417 981 q 379 1011 404 1011 q 335 976 346 1011 l 304 983 q 333 1023 314 1008 q 386 1038 353 1038 q 438 1017 425 1038 q 450 963 451 997 l 450 958 q 440 922 450 933 q 415 904 429 910 q 390 894 400 899 q 379 879 379 890 l 376 861 l 346 861 z "},"Ư":{"ha":579,"x_min":60,"x_max":640,"o":"m 239 -17 q 166 -10 200 -17 q 107 15 132 -4 q 71 69 82 33 q 68 163 60 104 l 161 821 l 211 821 l 118 157 q 126 69 110 99 q 174 28 142 39 q 243 18 206 18 q 317 28 282 18 q 376 69 351 39 q 408 157 401 99 l 501 821 l 551 821 l 458 163 q 431 69 450 104 q 381 15 411 33 q 315 -10 351 -4 q 239 -17 278 -17 m 507 790 l 506 821 l 519 821 q 597 882 589 821 l 600 903 l 640 903 l 639 889 q 597 815 632 842 q 507 790 561 789 z "},"Ứ":{"ha":579,"x_min":60,"x_max":640,"o":"m 239 -17 q 166 -10 200 -17 q 107 15 132 -4 q 71 69 82 33 q 68 163 60 104 l 161 821 l 211 821 l 118 157 q 126 69 110 99 q 174 28 142 39 q 243 18 206 18 q 317 28 282 18 q 376 69 351 39 q 408 157 401 99 l 501 821 l 551 821 l 458 163 q 431 69 450 104 q 381 15 411 33 q 315 -10 351 -4 q 239 -17 278 -17 m 507 790 l 506 821 l 519 821 q 597 882 589 821 l 600 903 l 640 903 l 639 889 q 597 815 632 842 q 507 790 561 789 m 290 879 l 417 988 l 476 988 l 329 879 l 290 879 z "},"Ự":{"ha":579,"x_min":60,"x_max":640,"o":"m 239 -17 q 166 -10 200 -17 q 107 15 132 -4 q 71 69 82 33 q 68 163 60 104 l 161 821 l 211 821 l 118 157 q 126 69 110 99 q 174 28 142 39 q 243 18 206 18 q 317 28 282 18 q 376 69 351 39 q 408 157 401 99 l 501 821 l 551 821 l 458 163 q 431 69 450 104 q 381 15 411 33 q 315 -10 351 -4 q 239 -17 278 -17 m 507 790 l 506 821 l 519 821 q 597 882 589 821 l 600 903 l 640 903 l 639 889 q 597 815 632 842 q 507 790 561 789 m 226 -135 q 202 -124 213 -135 q 192 -100 192 -114 q 202 -76 192 -85 q 226 -67 213 -67 q 251 -76 242 -67 q 261 -100 261 -85 q 251 -124 261 -114 q 226 -135 242 -135 z "},"Ừ":{"ha":579,"x_min":60,"x_max":640,"o":"m 239 -17 q 166 -10 200 -17 q 107 15 132 -4 q 71 69 82 33 q 68 163 60 104 l 161 821 l 211 821 l 118 157 q 126 69 110 99 q 174 28 142 39 q 243 18 206 18 q 317 28 282 18 q 376 69 351 39 q 408 157 401 99 l 501 821 l 551 821 l 458 163 q 431 69 450 104 q 381 15 411 33 q 315 -10 351 -4 q 239 -17 278 -17 m 507 790 l 506 821 l 519 821 q 597 882 589 821 l 600 903 l 640 903 l 639 889 q 597 815 632 842 q 507 790 561 789 m 374 879 l 240 986 l 301 986 l 413 879 l 374 879 z "},"Ử":{"ha":579,"x_min":60,"x_max":640,"o":"m 239 -17 q 166 -10 200 -17 q 107 15 132 -4 q 71 69 82 33 q 68 163 60 104 l 161 821 l 211 821 l 118 157 q 126 69 110 99 q 174 28 142 39 q 243 18 206 18 q 317 28 282 18 q 376 69 351 39 q 408 157 401 99 l 501 821 l 551 821 l 458 163 q 431 69 450 104 q 381 15 411 33 q 315 -10 351 -4 q 239 -17 278 -17 m 507 790 l 506 821 l 519 821 q 597 882 589 821 l 600 903 l 640 903 l 639 889 q 597 815 632 842 q 507 790 561 789 m 346 861 l 350 888 q 369 914 353 907 q 401 928 385 921 q 417 958 417 936 l 417 964 q 410 996 417 981 q 379 1011 404 1011 q 335 976 346 1011 l 304 983 q 333 1023 314 1008 q 386 1038 353 1038 q 438 1017 425 1038 q 450 963 451 997 l 450 958 q 440 922 450 933 q 415 904 429 910 q 390 894 400 899 q 379 879 379 890 l 376 861 l 346 861 z "},"Ữ":{"ha":579,"x_min":60,"x_max":640,"o":"m 239 -17 q 166 -10 200 -17 q 107 15 132 -4 q 71 69 82 33 q 68 163 60 104 l 161 821 l 211 821 l 118 157 q 126 69 110 99 q 174 28 142 39 q 243 18 206 18 q 317 28 282 18 q 376 69 351 39 q 408 157 401 99 l 501 821 l 551 821 l 458 163 q 431 69 450 104 q 381 15 411 33 q 315 -10 351 -4 q 239 -17 278 -17 m 507 790 l 506 821 l 519 821 q 597 882 589 821 l 600 903 l 640 903 l 639 889 q 597 815 632 842 q 507 790 561 789 m 421 889 q 393 894 404 889 q 365 914 382 900 q 343 930 356 921 q 314 939 331 939 q 284 928 297 939 q 263 890 271 917 l 235 890 q 265 948 243 925 q 318 971 286 971 q 351 963 336 971 q 379 943 365 954 q 402 928 392 933 q 426 922 413 922 q 456 933 443 922 q 478 968 469 943 l 506 968 q 475 911 497 933 q 421 889 453 889 z "},"Ű":{"ha":579,"x_min":60,"x_max":551,"o":"m 239 -17 q 166 -10 200 -17 q 107 15 132 -4 q 71 69 82 33 q 68 163 60 104 l 161 821 l 211 821 l 118 157 q 126 69 110 99 q 174 28 142 39 q 243 18 206 18 q 317 28 282 18 q 376 69 351 39 q 408 157 401 99 l 501 821 l 551 821 l 458 163 q 431 69 450 104 q 381 15 411 33 q 315 -10 351 -4 q 239 -17 278 -17 m 293 872 l 354 996 l 407 996 l 319 872 l 293 872 m 375 872 l 439 996 l 492 996 l 403 872 l 375 872 z "},"Ū":{"ha":579,"x_min":60,"x_max":551,"o":"m 239 -17 q 166 -10 200 -17 q 107 15 132 -4 q 71 69 82 33 q 68 163 60 104 l 161 821 l 211 821 l 118 157 q 126 69 110 99 q 174 28 142 39 q 243 18 206 18 q 317 28 282 18 q 376 69 351 39 q 408 157 401 99 l 501 821 l 551 821 l 458 163 q 431 69 450 104 q 381 15 411 33 q 315 -10 351 -4 q 239 -17 278 -17 m 247 908 l 250 939 l 494 939 l 490 908 l 247 908 z "},"Ų":{"ha":579,"x_min":60,"x_max":551,"o":"m 239 -17 q 166 -10 200 -17 q 107 15 132 -4 q 71 69 82 33 q 68 163 60 104 l 161 821 l 211 821 l 118 157 q 126 69 110 99 q 174 28 142 39 q 243 18 206 18 q 317 28 282 18 q 376 69 351 39 q 408 157 401 99 l 501 821 l 551 821 l 458 163 q 431 69 450 104 q 381 15 411 33 q 315 -10 351 -4 q 239 -17 278 -17 m 246 -182 q 188 -161 211 -182 q 169 -106 165 -140 q 206 -38 176 -65 q 265 0 236 -11 l 300 0 q 238 -44 261 -18 q 210 -99 214 -71 q 222 -140 206 -126 q 256 -154 238 -154 q 280 -151 269 -154 q 296 -144 290 -147 l 303 -167 q 278 -177 293 -172 q 246 -182 264 -182 z "},"Ů":{"ha":579,"x_min":60,"x_max":551,"o":"m 239 -17 q 166 -10 200 -17 q 107 15 132 -4 q 71 69 82 33 q 68 163 60 104 l 161 821 l 211 821 l 118 157 q 126 69 110 99 q 174 28 142 39 q 243 18 206 18 q 317 28 282 18 q 376 69 351 39 q 408 157 401 99 l 501 821 l 551 821 l 458 163 q 431 69 450 104 q 381 15 411 33 q 315 -10 351 -4 q 239 -17 278 -17 m 360 847 q 289 876 314 847 q 269 946 264 906 q 308 1017 275 988 q 388 1046 342 1046 q 460 1017 436 1046 q 479 946 485 988 q 438 876 474 906 q 360 847 401 847 m 364 878 q 419 897 397 878 q 446 946 442 917 q 433 997 450 978 q 383 1015 417 1015 q 328 997 350 1015 q 303 946 307 978 q 315 897 299 917 q 364 878 331 878 z "},"Ў":{"ha":454,"x_min":-4,"x_max":485,"o":"m 53 -7 q 21 -5 35 -7 q -4 0 7 -3 l 0 32 q 18 29 7 31 q 43 28 29 28 q 81 35 61 28 q 119 61 101 42 q 149 94 133 75 q 163 138 165 113 l 97 821 l 150 821 l 203 196 l 201 196 l 435 821 l 485 821 l 236 164 q 160 32 200 71 q 53 -7 121 -7 m 294 872 q 237 883 260 872 q 203 913 214 894 q 188 951 192 931 q 185 988 183 971 l 219 988 q 242 924 221 944 q 300 903 264 903 q 367 923 339 903 q 406 988 396 943 l 440 988 q 417 937 435 964 q 371 891 400 910 q 294 872 342 872 z "},"Ũ":{"ha":579,"x_min":60,"x_max":551,"o":"m 239 -17 q 166 -10 200 -17 q 107 15 132 -4 q 71 69 82 33 q 68 163 60 104 l 161 821 l 211 821 l 118 157 q 126 69 110 99 q 174 28 142 39 q 243 18 206 18 q 317 28 282 18 q 376 69 351 39 q 408 157 401 99 l 501 821 l 551 821 l 458 163 q 431 69 450 104 q 381 15 411 33 q 315 -10 351 -4 q 239 -17 278 -17 m 421 889 q 393 894 404 889 q 365 914 382 900 q 343 930 356 921 q 314 939 331 939 q 284 928 297 939 q 263 890 271 917 l 235 890 q 265 948 243 925 q 318 971 286 971 q 351 963 336 971 q 379 943 365 954 q 402 928 392 933 q 426 922 413 922 q 456 933 443 922 q 478 968 469 943 l 506 968 q 475 911 497 933 q 421 889 453 889 z "},"V":{"ha":444,"x_min":99,"x_max":479,"o":"m 144 0 l 99 821 l 147 821 l 188 85 l 183 85 l 431 821 l 479 821 l 199 0 l 144 0 z "},"В":{"ha":576,"x_min":53,"x_max":546,"o":"m 53 0 l 168 821 l 403 821 q 506 790 467 821 q 535 686 546 760 l 522 583 q 500 513 517 543 q 464 465 483 483 q 410 439 439 444 q 364 433 381 433 l 364 436 q 422 430 394 436 q 463 406 449 424 q 485 357 478 386 q 488 289 493 328 l 471 167 q 434 60 461 96 q 367 13 407 25 q 275 0 326 0 l 53 0 m 107 33 l 272 33 q 342 43 311 33 q 392 83 372 53 q 421 172 413 113 l 438 292 q 410 388 449 364 q 311 411 372 411 l 161 411 l 107 33 m 167 449 l 317 449 q 424 483 385 449 q 471 576 463 517 l 485 676 q 465 760 493 733 q 392 788 436 788 l 214 788 l 167 449 z "},"W":{"ha":728,"x_min":99,"x_max":763,"o":"m 115 0 l 99 821 l 147 821 l 161 78 l 411 821 l 450 821 l 489 79 l 714 821 l 763 821 l 514 0 l 456 0 l 414 697 l 175 0 l 115 0 z "},"Ẃ":{"ha":728,"x_min":99,"x_max":763,"o":"m 115 0 l 99 821 l 147 821 l 161 78 l 411 821 l 450 821 l 489 79 l 714 821 l 763 821 l 514 0 l 456 0 l 414 697 l 175 0 l 115 0 m 367 879 l 493 988 l 553 988 l 406 879 l 367 879 z "},"Ŵ":{"ha":728,"x_min":99,"x_max":763,"o":"m 115 0 l 99 821 l 147 821 l 161 78 l 411 821 l 450 821 l 489 79 l 714 821 l 763 821 l 514 0 l 456 0 l 414 697 l 175 0 l 115 0 m 297 872 l 435 990 l 476 990 l 579 872 l 542 872 l 450 960 l 338 872 l 297 872 z "},"Ẅ":{"ha":728,"x_min":99,"x_max":763,"o":"m 115 0 l 99 821 l 147 821 l 161 78 l 411 821 l 450 821 l 489 79 l 714 821 l 763 821 l 514 0 l 456 0 l 414 697 l 175 0 l 115 0 m 388 892 q 362 902 372 892 q 351 926 351 913 q 362 950 351 940 q 388 960 372 960 q 412 950 401 960 q 422 926 422 940 q 412 902 422 913 q 388 892 401 892 m 506 892 q 481 902 492 892 q 471 926 471 913 q 481 950 471 940 q 506 960 492 960 q 531 950 521 960 q 540 926 540 940 q 531 902 540 913 q 506 892 521 892 z "},"Ẁ":{"ha":728,"x_min":99,"x_max":763,"o":"m 115 0 l 99 821 l 147 821 l 161 78 l 411 821 l 450 821 l 489 79 l 714 821 l 763 821 l 514 0 l 456 0 l 414 697 l 175 0 l 115 0 m 450 879 l 317 986 l 378 986 l 489 879 l 450 879 z "},"X":{"ha":414,"x_min":-22,"x_max":451,"o":"m -22 0 l 175 415 l 110 821 l 158 821 l 219 439 l 403 821 l 451 821 l 257 414 l 332 0 l 282 0 l 213 383 l 32 0 l -22 0 z "},"Y":{"ha":424,"x_min":93,"x_max":461,"o":"m 131 0 l 181 365 l 93 821 l 147 821 l 215 438 l 217 422 l 224 438 l 411 821 l 461 821 l 232 363 l 181 0 l 131 0 z "},"Ý":{"ha":424,"x_min":93,"x_max":461,"o":"m 131 0 l 181 365 l 93 821 l 147 821 l 215 438 l 217 422 l 224 438 l 411 821 l 461 821 l 232 363 l 181 0 l 131 0 m 213 879 l 339 988 l 399 988 l 251 879 l 213 879 z "},"Ѣ":{"ha":604,"x_min":85,"x_max":553,"o":"m 119 0 l 233 818 l 283 818 l 254 604 l 400 604 q 499 584 465 604 q 543 524 533 564 q 544 425 553 485 l 513 199 q 492 110 506 147 q 455 48 478 72 q 398 12 432 24 q 314 0 364 0 l 119 0 m 174 33 l 311 33 q 397 55 367 33 q 442 115 428 76 q 464 201 457 153 l 493 411 q 495 488 497 453 q 469 547 493 524 q 383 569 444 569 l 249 569 q 213 300 232 435 q 174 33 193 165 m 85 717 l 94 751 l 486 751 l 479 717 l 85 717 z "},"Ŷ":{"ha":424,"x_min":93,"x_max":461,"o":"m 131 0 l 181 365 l 93 821 l 147 821 l 215 438 l 217 422 l 224 438 l 411 821 l 461 821 l 232 363 l 181 0 l 131 0 m 144 872 l 282 990 l 324 990 l 426 872 l 389 872 l 297 960 l 185 872 l 144 872 z "},"Ÿ":{"ha":424,"x_min":93,"x_max":461,"o":"m 131 0 l 181 365 l 93 821 l 147 821 l 215 438 l 217 422 l 224 438 l 411 821 l 461 821 l 232 363 l 181 0 l 131 0 m 233 892 q 208 902 218 892 q 197 926 197 913 q 208 950 197 940 q 233 960 218 960 q 258 950 247 960 q 268 926 268 940 q 258 902 268 913 q 233 892 247 892 m 351 892 q 327 902 338 892 q 317 926 317 913 q 327 950 317 940 q 351 960 338 960 q 376 950 367 960 q 386 926 386 940 q 376 902 386 913 q 351 892 367 892 z "},"Ỵ":{"ha":424,"x_min":93,"x_max":461,"o":"m 131 0 l 181 365 l 93 821 l 147 821 l 215 438 l 217 422 l 224 438 l 411 821 l 461 821 l 232 363 l 181 0 l 131 0 m 149 -135 q 124 -124 135 -135 q 114 -100 114 -114 q 124 -76 114 -85 q 149 -67 135 -67 q 174 -76 164 -67 q 183 -100 183 -85 q 174 -124 183 -114 q 149 -135 164 -135 z "},"Ы":{"ha":724,"x_min":53,"x_max":688,"o":"m 53 0 l 168 818 l 218 818 l 189 604 l 335 604 q 434 584 400 604 q 478 524 468 564 q 479 425 488 485 l 447 199 q 425 110 439 147 q 389 48 411 72 q 332 12 367 24 q 249 0 297 0 l 53 0 m 110 33 l 247 33 q 333 55 303 33 q 377 115 363 76 q 397 201 392 153 q 413 306 406 253 q 426 411 421 360 q 431 488 433 453 q 403 547 428 524 q 318 569 379 569 l 183 569 q 147 300 167 435 q 110 33 128 165 m 521 0 l 638 821 l 688 821 l 571 0 l 521 0 z "},"Ỳ":{"ha":424,"x_min":93,"x_max":461,"o":"m 131 0 l 181 365 l 93 821 l 147 821 l 215 438 l 217 422 l 224 438 l 411 821 l 461 821 l 232 363 l 181 0 l 131 0 m 296 879 l 163 986 l 224 986 l 335 879 l 296 879 z "},"Ỷ":{"ha":424,"x_min":93,"x_max":461,"o":"m 131 0 l 181 365 l 93 821 l 147 821 l 215 438 l 217 422 l 224 438 l 411 821 l 461 821 l 232 363 l 181 0 l 131 0 m 268 861 l 272 888 q 291 914 275 907 q 323 928 307 921 q 339 958 339 936 l 339 964 q 333 996 339 981 q 301 1011 326 1011 q 257 976 268 1011 l 226 983 q 256 1023 236 1008 q 308 1038 275 1038 q 360 1017 347 1038 q 372 963 374 997 l 372 958 q 362 922 372 933 q 337 904 351 910 q 312 894 322 899 q 301 879 301 890 l 299 861 l 268 861 z "},"Ї":{"ha":256,"x_min":53,"x_max":304,"o":"m 53 0 l 169 821 l 219 821 l 103 0 l 53 0 m 150 892 q 124 902 135 892 q 114 926 114 913 q 124 950 114 940 q 150 960 135 960 q 174 950 164 960 q 185 926 185 940 q 174 902 185 913 q 150 892 164 892 m 268 892 q 244 902 254 892 q 233 926 233 913 q 244 950 233 940 q 268 960 254 960 q 293 950 283 960 q 303 926 303 940 q 293 902 303 913 q 268 892 283 892 z "},"Ỹ":{"ha":424,"x_min":93,"x_max":461,"o":"m 131 0 l 181 365 l 93 821 l 147 821 l 215 438 l 217 422 l 224 438 l 411 821 l 461 821 l 232 363 l 181 0 l 131 0 m 343 889 q 315 894 326 889 q 288 914 304 900 q 265 930 278 921 q 236 939 253 939 q 206 928 219 939 q 185 890 193 917 l 157 890 q 187 948 165 925 q 240 971 208 971 q 273 963 258 971 q 301 943 288 954 q 324 928 314 933 q 349 922 335 922 q 378 933 365 922 q 400 968 392 943 l 428 968 q 397 911 419 933 q 343 889 375 889 z "},"Ѫ":{"ha":892,"x_min":1,"x_max":933,"o":"m 1 0 l 135 317 q 169 381 150 350 q 218 433 189 413 q 292 453 247 453 l 406 453 l 85 782 l 90 821 l 933 821 l 928 782 l 513 453 l 626 453 q 699 433 675 453 q 733 381 722 413 q 746 317 743 350 l 790 0 l 736 0 l 699 310 q 686 365 694 338 q 660 410 678 392 q 610 429 643 428 l 482 429 l 421 0 l 371 0 l 432 429 l 304 429 q 228 390 256 426 q 182 311 201 353 l 56 0 l 1 0 m 461 464 l 864 782 l 147 782 l 461 464 z "},"Z":{"ha":375,"x_min":-22,"x_max":411,"o":"m -22 0 l -15 40 l 347 783 l 106 783 l 111 821 l 411 821 l 407 783 l 38 38 l 301 38 l 294 0 l -22 0 z "},"Ź":{"ha":375,"x_min":-22,"x_max":411,"o":"m -22 0 l -15 40 l 347 783 l 106 783 l 111 821 l 411 821 l 407 783 l 38 38 l 301 38 l 294 0 l -22 0 m 189 879 l 315 988 l 375 988 l 228 879 l 189 879 z "},"Ž":{"ha":375,"x_min":-22,"x_max":418,"o":"m -22 0 l -15 40 l 347 783 l 106 783 l 111 821 l 411 821 l 407 783 l 38 38 l 301 38 l 294 0 l -22 0 m 239 872 l 136 990 l 176 990 l 265 903 l 381 990 l 419 990 l 282 872 l 239 872 z "},"Ż":{"ha":375,"x_min":-22,"x_max":411,"o":"m -22 0 l -15 40 l 347 783 l 106 783 l 111 821 l 411 821 l 407 783 l 38 38 l 301 38 l 294 0 l -22 0 m 272 892 q 247 903 257 892 q 235 928 236 914 q 246 953 235 943 q 272 964 257 964 q 299 953 289 964 q 310 928 310 943 q 299 903 311 914 q 272 892 288 892 z "},"З":{"ha":564,"x_min":46,"x_max":531,"o":"m 229 -11 q 111 16 153 -11 q 57 90 69 43 q 51 194 44 138 l 64 271 l 117 271 l 104 190 q 127 73 94 115 q 233 29 160 31 q 349 71 301 29 q 407 186 396 113 l 417 260 q 389 369 428 331 q 278 410 350 407 l 190 410 l 196 450 l 285 450 q 353 464 319 450 q 411 504 386 478 q 443 551 431 526 q 458 603 456 575 l 465 646 q 444 745 472 704 q 340 786 415 786 q 224 744 265 786 q 175 642 183 703 l 168 585 l 114 585 l 121 638 q 188 776 133 726 q 346 826 242 826 q 490 777 450 826 q 518 639 531 728 l 514 608 q 460 490 504 535 q 360 428 417 446 q 453 365 426 414 q 468 246 479 317 l 461 194 q 428 90 454 138 q 355 16 403 43 q 229 -11 307 -11 z "},"Ж":{"ha":735,"x_min":-35,"x_max":778,"o":"m -35 0 l 263 425 l 90 821 l 147 821 l 310 440 l 353 440 l 407 819 l 458 819 l 406 440 l 447 440 l 718 821 l 778 821 l 492 425 l 669 0 l 608 0 l 443 406 l 401 406 l 343 0 l 292 0 l 349 406 l 304 406 l 24 0 l -35 0 z "},"a":{"ha":492,"x_min":28,"x_max":463,"o":"m 158 -11 q 119 -8 143 -11 q 73 11 94 -4 q 40 60 51 26 q 38 156 28 94 l 99 535 q 137 647 111 613 q 198 692 163 682 q 271 701 233 701 q 354 686 314 701 q 404 632 394 671 l 411 688 l 463 688 l 365 0 l 318 0 l 336 124 q 303 65 325 96 q 246 11 281 33 q 158 -11 211 -11 m 175 22 q 241 43 213 22 q 290 95 269 64 q 322 161 310 126 q 342 224 335 196 q 350 265 349 251 l 396 583 q 384 613 393 593 q 351 650 375 632 q 276 668 326 668 q 197 648 224 668 q 160 594 171 628 q 143 518 150 560 l 86 150 q 89 79 81 106 q 113 41 97 53 q 147 26 129 29 q 175 22 164 22 z "},"а":{"ha":492,"x_min":28,"x_max":463,"o":"m 158 -11 q 119 -8 143 -11 q 73 11 94 -4 q 40 60 51 26 q 38 156 28 94 l 99 535 q 137 647 111 613 q 198 692 163 682 q 271 701 233 701 q 354 686 314 701 q 404 632 394 671 l 411 688 l 463 688 l 365 0 l 318 0 l 336 124 q 303 65 325 96 q 246 11 281 33 q 158 -11 211 -11 m 175 22 q 241 43 213 22 q 290 95 269 64 q 322 161 310 126 q 342 224 335 196 q 350 265 349 251 l 396 583 q 384 613 393 593 q 351 650 375 632 q 276 668 326 668 q 197 648 224 668 q 160 594 171 628 q 143 518 150 560 l 86 150 q 89 79 81 106 q 113 41 97 53 q 147 26 129 29 q 175 22 164 22 z "},"á":{"ha":492,"x_min":28,"x_max":463,"o":"m 158 -11 q 119 -8 143 -11 q 73 11 94 -4 q 40 60 51 26 q 38 156 28 94 l 99 535 q 137 647 111 613 q 198 692 163 682 q 271 701 233 701 q 354 686 314 701 q 404 632 394 671 l 411 688 l 463 688 l 365 0 l 318 0 l 336 124 q 303 65 325 96 q 246 11 281 33 q 158 -11 211 -11 m 175 22 q 241 43 213 22 q 290 95 269 64 q 322 161 310 126 q 342 224 335 196 q 350 265 349 251 l 396 583 q 384 613 393 593 q 351 650 375 632 q 276 668 326 668 q 197 648 224 668 q 160 594 171 628 q 143 518 150 560 l 86 150 q 89 79 81 106 q 113 41 97 53 q 147 26 129 29 q 175 22 164 22 m 271 757 l 357 879 l 417 879 l 303 757 l 271 757 z "},"ă":{"ha":492,"x_min":28,"x_max":463,"o":"m 158 -11 q 119 -8 143 -11 q 73 11 94 -4 q 40 60 51 26 q 38 156 28 94 l 99 535 q 137 647 111 613 q 198 692 163 682 q 271 701 233 701 q 354 686 314 701 q 404 632 394 671 l 411 688 l 463 688 l 365 0 l 318 0 l 336 124 q 303 65 325 96 q 246 11 281 33 q 158 -11 211 -11 m 175 22 q 241 43 213 22 q 290 95 269 64 q 322 161 310 126 q 342 224 335 196 q 350 265 349 251 l 396 583 q 384 613 393 593 q 351 650 375 632 q 276 668 326 668 q 197 648 224 668 q 160 594 171 628 q 143 518 150 560 l 86 150 q 89 79 81 106 q 113 41 97 53 q 147 26 129 29 q 175 22 164 22 m 311 756 q 253 767 276 756 q 219 796 231 778 q 204 834 208 814 q 201 871 200 854 l 236 871 q 259 807 238 828 q 317 786 281 786 q 384 806 356 786 q 422 871 413 826 l 457 871 q 434 820 451 847 q 388 774 417 793 q 311 756 358 756 z "},"ắ":{"ha":492,"x_min":28,"x_max":463,"o":"m 158 -11 q 119 -8 143 -11 q 73 11 94 -4 q 40 60 51 26 q 38 156 28 94 l 99 535 q 137 647 111 613 q 198 692 163 682 q 271 701 233 701 q 354 686 314 701 q 404 632 394 671 l 411 688 l 463 688 l 365 0 l 318 0 l 336 124 q 303 65 325 96 q 246 11 281 33 q 158 -11 211 -11 m 175 22 q 241 43 213 22 q 290 95 269 64 q 322 161 310 126 q 342 224 335 196 q 350 265 349 251 l 396 583 q 384 613 393 593 q 351 650 375 632 q 276 668 326 668 q 197 648 224 668 q 160 594 171 628 q 143 518 150 560 l 86 150 q 89 79 81 106 q 113 41 97 53 q 147 26 129 29 q 175 22 164 22 m 311 756 q 253 767 276 756 q 219 796 231 778 q 204 834 208 814 q 201 871 200 854 l 236 871 q 259 807 238 828 q 317 786 281 786 q 384 806 356 786 q 422 871 413 826 l 457 871 q 434 820 451 847 q 388 774 417 793 q 311 756 358 756 m 297 889 l 383 1011 l 443 1011 l 329 889 l 297 889 z "},"ặ":{"ha":492,"x_min":28,"x_max":463,"o":"m 158 -11 q 119 -8 143 -11 q 73 11 94 -4 q 40 60 51 26 q 38 156 28 94 l 99 535 q 137 647 111 613 q 198 692 163 682 q 271 701 233 701 q 354 686 314 701 q 404 632 394 671 l 411 688 l 463 688 l 365 0 l 318 0 l 336 124 q 303 65 325 96 q 246 11 281 33 q 158 -11 211 -11 m 175 22 q 241 43 213 22 q 290 95 269 64 q 322 161 310 126 q 342 224 335 196 q 350 265 349 251 l 396 583 q 384 613 393 593 q 351 650 375 632 q 276 668 326 668 q 197 648 224 668 q 160 594 171 628 q 143 518 150 560 l 86 150 q 89 79 81 106 q 113 41 97 53 q 147 26 129 29 q 175 22 164 22 m 183 -135 q 159 -124 169 -135 q 149 -100 149 -114 q 159 -76 149 -85 q 183 -67 169 -67 q 208 -76 199 -67 q 218 -100 218 -85 q 208 -124 218 -114 q 183 -135 199 -135 m 311 756 q 253 767 276 756 q 219 796 231 778 q 204 834 208 814 q 201 871 200 854 l 236 871 q 259 807 238 828 q 317 786 281 786 q 384 806 356 786 q 422 871 413 826 l 457 871 q 434 820 451 847 q 388 774 417 793 q 311 756 358 756 z "},"ằ":{"ha":492,"x_min":28,"x_max":463,"o":"m 158 -11 q 119 -8 143 -11 q 73 11 94 -4 q 40 60 51 26 q 38 156 28 94 l 99 535 q 137 647 111 613 q 198 692 163 682 q 271 701 233 701 q 354 686 314 701 q 404 632 394 671 l 411 688 l 463 688 l 365 0 l 318 0 l 336 124 q 303 65 325 96 q 246 11 281 33 q 158 -11 211 -11 m 175 22 q 241 43 213 22 q 290 95 269 64 q 322 161 310 126 q 342 224 335 196 q 350 265 349 251 l 396 583 q 384 613 393 593 q 351 650 375 632 q 276 668 326 668 q 197 648 224 668 q 160 594 171 628 q 143 518 150 560 l 86 150 q 89 79 81 106 q 113 41 97 53 q 147 26 129 29 q 175 22 164 22 m 311 756 q 253 767 276 756 q 219 796 231 778 q 204 834 208 814 q 201 871 200 854 l 236 871 q 259 807 238 828 q 317 786 281 786 q 384 806 356 786 q 422 871 413 826 l 457 871 q 434 820 451 847 q 388 774 417 793 q 311 756 358 756 m 344 889 l 256 1011 l 315 1011 l 376 889 l 344 889 z "},"ẳ":{"ha":492,"x_min":28,"x_max":463,"o":"m 158 -11 q 119 -8 143 -11 q 73 11 94 -4 q 40 60 51 26 q 38 156 28 94 l 99 535 q 137 647 111 613 q 198 692 163 682 q 271 701 233 701 q 354 686 314 701 q 404 632 394 671 l 411 688 l 463 688 l 365 0 l 318 0 l 336 124 q 303 65 325 96 q 246 11 281 33 q 158 -11 211 -11 m 175 22 q 241 43 213 22 q 290 95 269 64 q 322 161 310 126 q 342 224 335 196 q 350 265 349 251 l 396 583 q 384 613 393 593 q 351 650 375 632 q 276 668 326 668 q 197 648 224 668 q 160 594 171 628 q 143 518 150 560 l 86 150 q 89 79 81 106 q 113 41 97 53 q 147 26 129 29 q 175 22 164 22 m 311 756 q 253 767 276 756 q 219 796 231 778 q 204 834 208 814 q 201 871 200 854 l 236 871 q 259 807 238 828 q 317 786 281 786 q 384 806 356 786 q 422 871 413 826 l 457 871 q 434 820 451 847 q 388 774 417 793 q 311 756 358 756 m 318 882 l 322 908 q 341 935 325 928 q 373 949 357 942 q 389 979 389 957 l 389 985 q 383 1017 389 1001 q 351 1032 376 1032 q 307 997 318 1032 l 276 1004 q 306 1044 286 1029 q 358 1058 325 1058 q 410 1038 397 1058 q 422 983 424 1018 l 422 979 q 412 942 422 954 q 387 925 401 931 q 362 915 372 919 q 351 900 351 911 l 349 882 l 318 882 z "},"ẵ":{"ha":492,"x_min":28,"x_max":482,"o":"m 158 -11 q 119 -8 143 -11 q 73 11 94 -4 q 40 60 51 26 q 38 156 28 94 l 99 535 q 137 647 111 613 q 198 692 163 682 q 271 701 233 701 q 354 686 314 701 q 404 632 394 671 l 411 688 l 463 688 l 365 0 l 318 0 l 336 124 q 303 65 325 96 q 246 11 281 33 q 158 -11 211 -11 m 175 22 q 241 43 213 22 q 290 95 269 64 q 322 161 310 126 q 342 224 335 196 q 350 265 349 251 l 396 583 q 384 613 393 593 q 351 650 375 632 q 276 668 326 668 q 197 648 224 668 q 160 594 171 628 q 143 518 150 560 l 86 150 q 89 79 81 106 q 113 41 97 53 q 147 26 129 29 q 175 22 164 22 m 311 756 q 253 767 276 756 q 219 796 231 778 q 204 834 208 814 q 201 871 200 854 l 236 871 q 259 807 238 828 q 317 786 281 786 q 384 806 356 786 q 422 871 413 826 l 457 871 q 434 820 451 847 q 388 774 417 793 q 311 756 358 756 m 397 903 q 369 908 381 903 q 342 928 358 914 q 319 944 332 935 q 290 953 307 953 q 260 942 274 953 q 239 904 247 931 l 211 904 q 241 962 219 939 q 294 985 263 985 q 327 976 313 985 q 356 957 342 968 q 378 942 368 947 q 403 936 389 936 q 433 947 419 936 q 454 982 446 957 l 482 982 q 451 925 474 947 q 397 903 429 903 z "},"ǎ":{"ha":492,"x_min":28,"x_max":478,"o":"m 158 -11 q 119 -8 143 -11 q 73 11 94 -4 q 40 60 51 26 q 38 156 28 94 l 99 535 q 137 647 111 613 q 198 692 163 682 q 271 701 233 701 q 354 686 314 701 q 404 632 394 671 l 411 688 l 463 688 l 365 0 l 318 0 l 336 124 q 303 65 325 96 q 246 11 281 33 q 158 -11 211 -11 m 175 22 q 241 43 213 22 q 290 95 269 64 q 322 161 310 126 q 342 224 335 196 q 350 265 349 251 l 396 583 q 384 613 393 593 q 351 650 375 632 q 276 668 326 668 q 197 648 224 668 q 160 594 171 628 q 143 518 150 560 l 86 150 q 89 79 81 106 q 113 41 97 53 q 147 26 129 29 q 175 22 164 22 m 299 760 l 196 878 l 236 878 l 325 789 l 440 878 l 478 878 l 342 760 l 299 760 z "},"â":{"ha":492,"x_min":28,"x_max":463,"o":"m 158 -11 q 119 -8 143 -11 q 73 11 94 -4 q 40 60 51 26 q 38 156 28 94 l 99 535 q 137 647 111 613 q 198 692 163 682 q 271 701 233 701 q 354 686 314 701 q 404 632 394 671 l 411 688 l 463 688 l 365 0 l 318 0 l 336 124 q 303 65 325 96 q 246 11 281 33 q 158 -11 211 -11 m 175 22 q 241 43 213 22 q 290 95 269 64 q 322 161 310 126 q 342 224 335 196 q 350 265 349 251 l 396 583 q 384 613 393 593 q 351 650 375 632 q 276 668 326 668 q 197 648 224 668 q 160 594 171 628 q 143 518 150 560 l 86 150 q 89 79 81 106 q 113 41 97 53 q 147 26 129 29 q 175 22 164 22 m 174 760 l 311 878 l 353 878 l 456 760 l 418 760 l 326 849 l 213 760 l 174 760 z "},"ấ":{"ha":492,"x_min":28,"x_max":601,"o":"m 158 -11 q 119 -8 143 -11 q 73 11 94 -4 q 40 60 51 26 q 38 156 28 94 l 99 535 q 137 647 111 613 q 198 692 163 682 q 271 701 233 701 q 354 686 314 701 q 404 632 394 671 l 411 688 l 463 688 l 365 0 l 318 0 l 336 124 q 303 65 325 96 q 246 11 281 33 q 158 -11 211 -11 m 175 22 q 241 43 213 22 q 290 95 269 64 q 322 161 310 126 q 342 224 335 196 q 350 265 349 251 l 396 583 q 384 613 393 593 q 351 650 375 632 q 276 668 326 668 q 197 648 224 668 q 160 594 171 628 q 143 518 150 560 l 86 150 q 89 79 81 106 q 113 41 97 53 q 147 26 129 29 q 175 22 164 22 m 174 760 l 311 878 l 353 878 l 456 760 l 418 760 l 326 849 l 213 760 l 174 760 m 457 831 l 543 953 l 603 953 l 489 831 l 457 831 z "},"ậ":{"ha":492,"x_min":28,"x_max":463,"o":"m 158 -11 q 119 -8 143 -11 q 73 11 94 -4 q 40 60 51 26 q 38 156 28 94 l 99 535 q 137 647 111 613 q 198 692 163 682 q 271 701 233 701 q 354 686 314 701 q 404 632 394 671 l 411 688 l 463 688 l 365 0 l 318 0 l 336 124 q 303 65 325 96 q 246 11 281 33 q 158 -11 211 -11 m 175 22 q 241 43 213 22 q 290 95 269 64 q 322 161 310 126 q 342 224 335 196 q 350 265 349 251 l 396 583 q 384 613 393 593 q 351 650 375 632 q 276 668 326 668 q 197 648 224 668 q 160 594 171 628 q 143 518 150 560 l 86 150 q 89 79 81 106 q 113 41 97 53 q 147 26 129 29 q 175 22 164 22 m 183 -135 q 159 -124 169 -135 q 149 -100 149 -114 q 159 -76 149 -85 q 183 -67 169 -67 q 208 -76 199 -67 q 218 -100 218 -85 q 208 -124 218 -114 q 183 -135 199 -135 m 174 760 l 311 878 l 353 878 l 456 760 l 418 760 l 326 849 l 213 760 l 174 760 z "},"ầ":{"ha":492,"x_min":28,"x_max":536,"o":"m 158 -11 q 119 -8 143 -11 q 73 11 94 -4 q 40 60 51 26 q 38 156 28 94 l 99 535 q 137 647 111 613 q 198 692 163 682 q 271 701 233 701 q 354 686 314 701 q 404 632 394 671 l 411 688 l 463 688 l 365 0 l 318 0 l 336 124 q 303 65 325 96 q 246 11 281 33 q 158 -11 211 -11 m 175 22 q 241 43 213 22 q 290 95 269 64 q 322 161 310 126 q 342 224 335 196 q 350 265 349 251 l 396 583 q 384 613 393 593 q 351 650 375 632 q 276 668 326 668 q 197 648 224 668 q 160 594 171 628 q 143 518 150 560 l 86 150 q 89 79 81 106 q 113 41 97 53 q 147 26 129 29 q 175 22 164 22 m 174 760 l 311 878 l 353 878 l 456 760 l 418 760 l 326 849 l 213 760 l 174 760 m 504 831 l 415 953 l 475 953 l 536 831 l 504 831 z "},"ẩ":{"ha":492,"x_min":28,"x_max":583,"o":"m 158 -11 q 119 -8 143 -11 q 73 11 94 -4 q 40 60 51 26 q 38 156 28 94 l 99 535 q 137 647 111 613 q 198 692 163 682 q 271 701 233 701 q 354 686 314 701 q 404 632 394 671 l 411 688 l 463 688 l 365 0 l 318 0 l 336 124 q 303 65 325 96 q 246 11 281 33 q 158 -11 211 -11 m 175 22 q 241 43 213 22 q 290 95 269 64 q 322 161 310 126 q 342 224 335 196 q 350 265 349 251 l 396 583 q 384 613 393 593 q 351 650 375 632 q 276 668 326 668 q 197 648 224 668 q 160 594 171 628 q 143 518 150 560 l 86 150 q 89 79 81 106 q 113 41 97 53 q 147 26 129 29 q 175 22 164 22 m 174 760 l 311 878 l 353 878 l 456 760 l 418 760 l 326 849 l 213 760 l 174 760 m 478 824 l 482 850 q 501 876 485 869 q 533 891 517 883 q 549 921 549 899 l 549 926 q 542 958 549 943 q 511 974 536 974 q 467 939 478 974 l 436 946 q 465 985 446 971 q 518 1000 485 1000 q 570 980 557 1000 q 582 925 583 960 l 582 921 q 572 884 582 896 q 547 867 561 872 q 522 857 532 861 q 511 842 511 853 l 508 824 l 478 824 z "},"ẫ":{"ha":492,"x_min":28,"x_max":469,"o":"m 158 -11 q 119 -8 143 -11 q 73 11 94 -4 q 40 60 51 26 q 38 156 28 94 l 99 535 q 137 647 111 613 q 198 692 163 682 q 271 701 233 701 q 354 686 314 701 q 404 632 394 671 l 411 688 l 463 688 l 365 0 l 318 0 l 336 124 q 303 65 325 96 q 246 11 281 33 q 158 -11 211 -11 m 175 22 q 241 43 213 22 q 290 95 269 64 q 322 161 310 126 q 342 224 335 196 q 350 265 349 251 l 396 583 q 384 613 393 593 q 351 650 375 632 q 276 668 326 668 q 197 648 224 668 q 160 594 171 628 q 143 518 150 560 l 86 150 q 89 79 81 106 q 113 41 97 53 q 147 26 129 29 q 175 22 164 22 m 174 760 l 311 878 l 353 878 l 456 760 l 418 760 l 326 849 l 213 760 l 174 760 m 385 910 q 357 915 368 910 q 329 935 346 921 q 307 951 319 942 q 278 960 294 960 q 248 949 261 960 q 226 911 235 938 l 199 911 q 228 969 207 946 q 282 992 250 992 q 315 983 300 992 q 343 964 329 975 q 366 949 356 954 q 390 943 376 943 q 420 953 407 943 q 442 989 433 964 l 469 989 q 439 932 461 954 q 385 910 417 910 z "},"´":{"ha":129,"x_min":58,"x_max":204,"o":"m 58 757 l 144 879 l 204 879 l 90 757 l 58 757 z "},"́":{"ha":0,"x_min":58,"x_max":204,"o":"m 58 757 l 144 879 l 204 879 l 90 757 l 58 757 z "},"ä":{"ha":492,"x_min":28,"x_max":463,"o":"m 158 -11 q 119 -8 143 -11 q 73 11 94 -4 q 40 60 51 26 q 38 156 28 94 l 99 535 q 137 647 111 613 q 198 692 163 682 q 271 701 233 701 q 354 686 314 701 q 404 632 394 671 l 411 688 l 463 688 l 365 0 l 318 0 l 336 124 q 303 65 325 96 q 246 11 281 33 q 158 -11 211 -11 m 175 22 q 241 43 213 22 q 290 95 269 64 q 322 161 310 126 q 342 224 335 196 q 350 265 349 251 l 396 583 q 384 613 393 593 q 351 650 375 632 q 276 668 326 668 q 197 648 224 668 q 160 594 171 628 q 143 518 150 560 l 86 150 q 89 79 81 106 q 113 41 97 53 q 147 26 129 29 q 175 22 164 22 m 261 778 q 235 788 246 778 q 225 813 225 799 q 235 836 225 826 q 261 846 246 846 q 285 836 275 846 q 296 813 296 826 q 285 788 296 799 q 261 778 275 778 m 379 778 q 355 788 365 778 q 344 813 344 799 q 355 836 344 826 q 379 846 365 846 q 404 836 394 846 q 414 813 414 826 q 404 788 414 799 q 379 778 394 778 z "},"ạ":{"ha":492,"x_min":28,"x_max":463,"o":"m 158 -11 q 119 -8 143 -11 q 73 11 94 -4 q 40 60 51 26 q 38 156 28 94 l 99 535 q 137 647 111 613 q 198 692 163 682 q 271 701 233 701 q 354 686 314 701 q 404 632 394 671 l 411 688 l 463 688 l 365 0 l 318 0 l 336 124 q 303 65 325 96 q 246 11 281 33 q 158 -11 211 -11 m 175 22 q 241 43 213 22 q 290 95 269 64 q 322 161 310 126 q 342 224 335 196 q 350 265 349 251 l 396 583 q 384 613 393 593 q 351 650 375 632 q 276 668 326 668 q 197 648 224 668 q 160 594 171 628 q 143 518 150 560 l 86 150 q 89 79 81 106 q 113 41 97 53 q 147 26 129 29 q 175 22 164 22 m 183 -135 q 159 -124 169 -135 q 149 -100 149 -114 q 159 -76 149 -85 q 183 -67 169 -67 q 208 -76 199 -67 q 218 -100 218 -85 q 208 -124 218 -114 q 183 -135 199 -135 z "},"æ":{"ha":769,"x_min":31,"x_max":760,"o":"m 160 -4 q 115 -1 139 -4 q 70 18 90 3 q 40 65 50 33 q 39 154 31 97 l 46 208 q 103 316 56 274 q 218 390 150 358 q 314 440 275 418 q 374 485 353 463 q 397 533 394 507 l 404 572 q 394 633 410 613 q 353 661 379 654 q 297 668 326 668 q 192 630 221 668 q 156 521 164 592 l 147 463 l 100 463 l 108 525 q 134 616 115 576 q 193 678 153 656 q 303 701 233 701 q 404 681 374 701 q 440 629 435 661 q 440 557 446 597 l 372 74 l 350 118 q 269 23 319 50 q 160 -4 219 -4 m 179 32 q 297 81 254 32 q 353 215 339 131 l 388 457 q 321 407 364 429 q 232 361 278 385 q 138 295 174 329 q 94 206 103 261 l 89 160 q 94 72 81 100 q 133 38 108 44 q 179 32 157 32 m 497 -3 q 419 4 450 -3 q 370 29 388 11 q 348 83 353 47 q 351 174 343 118 l 403 533 q 458 664 414 626 q 597 701 501 701 q 726 665 692 701 q 744 533 760 629 l 721 360 l 425 360 l 397 163 q 406 58 385 85 q 501 32 426 32 q 578 44 550 32 q 622 86 607 56 q 644 171 638 117 l 654 240 l 704 240 l 696 183 q 674 90 688 126 q 636 34 660 54 q 578 6 613 14 q 497 -3 544 -3 m 428 393 l 675 393 l 696 535 q 685 636 706 604 q 590 668 665 668 q 488 636 517 668 q 449 535 460 604 l 428 393 z "},"à":{"ha":492,"x_min":28,"x_max":463,"o":"m 158 -11 q 119 -8 143 -11 q 73 11 94 -4 q 40 60 51 26 q 38 156 28 94 l 99 535 q 137 647 111 613 q 198 692 163 682 q 271 701 233 701 q 354 686 314 701 q 404 632 394 671 l 411 688 l 463 688 l 365 0 l 318 0 l 336 124 q 303 65 325 96 q 246 11 281 33 q 158 -11 211 -11 m 175 22 q 241 43 213 22 q 290 95 269 64 q 322 161 310 126 q 342 224 335 196 q 350 265 349 251 l 396 583 q 384 613 393 593 q 351 650 375 632 q 276 668 326 668 q 197 648 224 668 q 160 594 171 628 q 143 518 150 560 l 86 150 q 89 79 81 106 q 113 41 97 53 q 147 26 129 29 q 175 22 164 22 m 318 757 l 229 879 l 289 879 l 350 757 l 318 757 z "},"ả":{"ha":492,"x_min":28,"x_max":463,"o":"m 158 -11 q 119 -8 143 -11 q 73 11 94 -4 q 40 60 51 26 q 38 156 28 94 l 99 535 q 137 647 111 613 q 198 692 163 682 q 271 701 233 701 q 354 686 314 701 q 404 632 394 671 l 411 688 l 463 688 l 365 0 l 318 0 l 336 124 q 303 65 325 96 q 246 11 281 33 q 158 -11 211 -11 m 175 22 q 241 43 213 22 q 290 95 269 64 q 322 161 310 126 q 342 224 335 196 q 350 265 349 251 l 396 583 q 384 613 393 593 q 351 650 375 632 q 276 668 326 668 q 197 648 224 668 q 160 594 171 628 q 143 518 150 560 l 86 150 q 89 79 81 106 q 113 41 97 53 q 147 26 129 29 q 175 22 164 22 m 292 750 l 296 776 q 315 803 299 796 q 347 817 331 810 q 363 847 363 825 l 363 853 q 356 885 363 869 q 325 900 350 900 q 281 865 292 900 l 250 872 q 279 912 260 897 q 332 926 299 926 q 384 906 371 926 q 396 851 397 886 l 396 847 q 385 810 396 822 q 360 793 375 799 q 335 783 346 788 q 325 768 325 779 l 322 750 l 292 750 z "},"ā":{"ha":492,"x_min":28,"x_max":463,"o":"m 158 -11 q 119 -8 143 -11 q 73 11 94 -4 q 40 60 51 26 q 38 156 28 94 l 99 535 q 137 647 111 613 q 198 692 163 682 q 271 701 233 701 q 354 686 314 701 q 404 632 394 671 l 411 688 l 463 688 l 365 0 l 318 0 l 336 124 q 303 65 325 96 q 246 11 281 33 q 158 -11 211 -11 m 175 22 q 241 43 213 22 q 290 95 269 64 q 322 161 310 126 q 342 224 335 196 q 350 265 349 251 l 396 583 q 384 613 393 593 q 351 650 375 632 q 276 668 326 668 q 197 648 224 668 q 160 594 171 628 q 143 518 150 560 l 86 150 q 89 79 81 106 q 113 41 97 53 q 147 26 129 29 q 175 22 164 22 m 196 790 l 199 821 l 443 821 l 439 790 l 196 790 z "},"&":{"ha":679,"x_min":38,"x_max":621,"o":"m 217 -11 q 100 18 140 -11 q 49 99 60 47 q 46 218 38 150 q 101 362 60 308 q 211 435 143 415 q 191 481 200 449 q 189 558 182 514 q 245 664 200 625 q 376 703 290 703 q 450 697 418 703 q 502 685 482 692 q 531 672 522 678 l 524 629 q 497 639 519 632 q 444 653 475 646 q 378 660 414 660 q 294 639 325 660 q 250 587 263 618 q 240 521 238 556 q 257 457 243 486 q 285 410 263 443 q 333 340 307 378 q 383 273 360 303 q 413 233 406 243 l 435 393 l 621 393 l 614 354 l 472 354 q 463 278 467 307 q 456 231 458 249 q 447 192 453 213 q 520 104 486 143 q 572 51 554 65 l 567 -3 q 510 41 547 1 q 429 135 472 81 q 372 42 408 74 q 295 -1 336 10 q 217 -11 254 -11 m 222 26 q 338 66 293 26 q 397 172 383 106 q 301 298 347 236 q 231 397 256 360 q 142 342 178 383 q 93 217 106 301 q 116 74 79 121 q 222 26 153 26 z "},"ą":{"ha":492,"x_min":28,"x_max":463,"o":"m 158 -11 q 119 -8 143 -11 q 73 11 94 -4 q 40 60 51 26 q 38 156 28 94 l 99 535 q 137 647 111 613 q 198 692 163 682 q 271 701 233 701 q 354 686 314 701 q 404 632 394 671 l 411 688 l 463 688 l 365 0 l 318 0 l 336 124 q 303 65 325 96 q 246 11 281 33 q 158 -11 211 -11 m 175 22 q 241 43 213 22 q 290 95 269 64 q 322 161 310 126 q 342 224 335 196 q 350 265 349 251 l 396 583 q 384 613 393 593 q 351 650 375 632 q 276 668 326 668 q 197 648 224 668 q 160 594 171 628 q 143 518 150 560 l 86 150 q 89 79 81 106 q 113 41 97 53 q 147 26 129 29 q 175 22 164 22 m 313 -182 q 255 -161 278 -182 q 236 -106 232 -140 q 273 -38 243 -65 q 332 0 303 -11 l 367 0 q 304 -44 328 -18 q 276 -99 281 -71 q 288 -140 272 -126 q 322 -154 304 -154 q 347 -151 336 -154 q 363 -144 357 -147 l 369 -167 q 345 -177 360 -172 q 313 -182 331 -182 z "},"≈":{"ha":650,"x_min":39,"x_max":611,"o":"m 467 463 q 383 476 424 463 q 301 503 343 489 q 211 517 260 517 q 147 499 174 517 q 118 458 121 482 l 79 458 q 112 516 90 496 q 163 546 133 536 q 221 556 192 556 q 306 543 267 556 q 388 517 346 531 q 483 504 431 504 q 540 521 515 504 q 568 558 565 538 l 611 558 q 578 499 601 521 q 525 470 554 478 q 467 463 496 463 m 426 175 q 344 190 385 175 q 261 217 303 204 q 171 231 219 231 q 107 213 133 231 q 78 171 81 196 l 39 171 q 72 229 49 208 q 124 260 94 250 q 182 269 153 269 q 267 257 226 269 q 349 231 307 244 q 443 218 392 218 q 501 235 476 218 q 528 274 525 251 l 571 274 q 538 213 561 235 q 485 183 514 192 q 426 175 456 175 z "},"å":{"ha":492,"x_min":28,"x_max":463,"o":"m 158 -11 q 119 -8 143 -11 q 73 11 94 -4 q 40 60 51 26 q 38 156 28 94 l 99 535 q 137 647 111 613 q 198 692 163 682 q 271 701 233 701 q 354 686 314 701 q 404 632 394 671 l 411 688 l 463 688 l 365 0 l 318 0 l 336 124 q 303 65 325 96 q 246 11 281 33 q 158 -11 211 -11 m 175 22 q 241 43 213 22 q 290 95 269 64 q 322 161 310 126 q 342 224 335 196 q 350 265 349 251 l 396 583 q 384 613 393 593 q 351 650 375 632 q 276 668 326 668 q 197 648 224 668 q 160 594 171 628 q 143 518 150 560 l 86 150 q 89 79 81 106 q 113 41 97 53 q 147 26 129 29 q 175 22 164 22 m 313 756 q 242 785 267 756 q 222 854 217 814 q 261 925 228 896 q 340 954 294 954 q 413 925 389 954 q 432 854 438 896 q 390 785 426 814 q 313 756 354 756 m 317 786 q 372 806 350 786 q 399 854 394 825 q 386 905 403 886 q 336 924 369 924 q 281 905 303 924 q 256 854 260 886 q 267 806 251 825 q 317 786 283 786 z "},"^":{"ha":529,"x_min":49,"x_max":444,"o":"m 49 688 l 267 925 l 299 925 l 444 688 l 393 688 l 272 874 l 103 688 l 49 688 z "},"~":{"ha":650,"x_min":60,"x_max":590,"o":"m 446 708 q 364 722 404 708 q 281 749 324 735 q 190 763 239 763 q 127 745 153 763 q 99 704 101 728 l 60 704 q 92 762 69 740 q 143 793 114 783 q 201 803 172 803 q 286 790 246 803 q 369 763 326 776 q 464 750 411 750 q 521 767 496 750 q 547 804 546 783 l 590 804 q 558 746 581 767 q 505 717 535 725 q 446 708 475 708 z "},"*":{"ha":747,"x_min":72,"x_max":681,"o":"m 175 153 l 128 192 l 353 419 l 72 485 l 104 551 l 361 433 l 378 729 l 447 729 l 378 433 l 669 550 l 681 488 l 383 419 l 544 193 l 485 154 l 367 407 l 175 153 z "},"@":{"ha":972,"x_min":44,"x_max":932,"o":"m 418 -89 q 174 -38 257 -89 q 68 110 92 13 q 64 349 44 208 q 212 699 96 574 q 546 824 328 824 q 758 782 668 824 q 890 649 847 740 q 911 411 932 558 q 873 262 900 332 q 801 147 846 192 q 693 101 757 101 q 638 117 658 101 q 609 155 618 132 q 598 201 600 178 q 599 242 596 225 l 615 249 q 526 160 578 186 q 419 135 474 135 q 320 163 356 135 q 296 268 285 192 q 322 336 301 308 q 385 387 342 364 q 500 431 428 410 q 561 449 535 439 q 603 471 588 460 q 624 493 618 481 q 632 519 629 506 q 612 578 636 556 q 526 601 588 601 q 426 576 458 601 q 386 503 393 551 l 379 461 l 338 461 l 344 503 q 369 576 350 546 q 428 621 389 606 q 533 636 468 636 q 628 621 596 636 q 672 574 661 606 q 676 494 683 542 l 640 243 q 652 160 633 186 q 706 135 671 135 q 772 163 739 135 q 831 251 804 190 q 872 410 858 311 q 860 610 889 524 q 756 744 832 696 q 551 793 681 793 q 333 750 425 793 q 185 609 242 707 q 104 344 128 511 q 103 140 86 219 q 164 18 119 61 q 275 -42 208 -25 q 425 -58 342 -58 q 493 -54 451 -58 q 583 -42 535 -50 q 675 -24 631 -35 q 751 3 719 -12 l 746 -35 q 672 -58 719 -44 q 560 -80 625 -71 q 418 -89 496 -89 m 439 171 q 519 190 483 171 q 577 238 556 210 q 603 293 599 267 l 624 439 q 569 419 604 429 q 500 396 535 408 q 412 359 444 376 q 363 320 379 342 q 340 261 346 299 q 358 191 333 211 q 439 171 382 171 z "},"ã":{"ha":492,"x_min":28,"x_max":463,"o":"m 158 -11 q 119 -8 143 -11 q 73 11 94 -4 q 40 60 51 26 q 38 156 28 94 l 99 535 q 137 647 111 613 q 198 692 163 682 q 271 701 233 701 q 354 686 314 701 q 404 632 394 671 l 411 688 l 463 688 l 365 0 l 318 0 l 336 124 q 303 65 325 96 q 246 11 281 33 q 158 -11 211 -11 m 175 22 q 241 43 213 22 q 290 95 269 64 q 322 161 310 126 q 342 224 335 196 q 350 265 349 251 l 396 583 q 384 613 393 593 q 351 650 375 632 q 276 668 326 668 q 197 648 224 668 q 160 594 171 628 q 143 518 150 560 l 86 150 q 89 79 81 106 q 113 41 97 53 q 147 26 129 29 q 175 22 164 22 m 371 771 q 343 776 354 771 q 315 796 332 782 q 293 812 306 803 q 264 821 281 821 q 234 810 247 821 q 213 772 221 799 l 185 772 q 215 830 193 807 q 268 853 236 853 q 301 844 286 853 q 329 825 315 836 q 352 810 342 815 q 376 804 363 804 q 406 815 393 804 q 428 850 419 825 l 456 850 q 425 793 447 815 q 371 771 403 771 z "},"b":{"ha":497,"x_min":35,"x_max":463,"o":"m 214 -10 q 120 13 147 -10 q 85 65 93 35 l 72 0 l 35 0 l 158 875 l 208 875 l 175 644 q 228 685 193 668 q 319 701 263 701 q 405 686 375 701 q 448 647 435 671 q 462 590 461 622 q 458 522 463 558 l 410 178 q 394 106 406 140 q 363 47 383 72 q 307 6 343 21 q 214 -10 271 -10 m 214 29 q 307 52 278 29 q 346 111 336 75 q 361 183 356 147 l 407 508 q 413 564 411 536 q 408 615 415 592 q 376 651 400 638 q 304 664 353 664 q 217 644 247 664 q 176 595 188 625 q 160 532 165 565 l 117 219 q 110 155 113 189 q 113 92 107 121 q 142 47 118 64 q 214 29 165 29 z "},"\\":{"ha":672,"x_min":133,"x_max":522,"o":"m 478 -64 l 133 876 l 179 876 l 522 -64 l 478 -64 z "},"|":{"ha":276,"x_min":29,"x_max":247,"o":"m 29 -339 l 201 876 l 247 876 l 75 -339 l 29 -339 z "},"б":{"ha":493,"x_min":33,"x_max":451,"o":"m 196 -10 q 90 12 126 -10 q 44 76 54 33 q 42 183 33 119 l 113 689 q 148 792 122 757 q 212 840 174 826 q 300 853 250 853 q 342 855 322 853 q 378 860 363 857 q 408 869 394 864 q 432 878 422 874 q 449 889 442 883 q 447 874 447 882 q 443 856 446 867 q 411 830 443 846 q 324 814 379 814 l 299 814 q 237 805 265 814 q 190 768 208 796 q 161 689 171 740 l 143 564 q 200 610 161 592 q 299 629 239 629 q 397 608 363 629 q 441 547 431 588 q 443 447 451 507 l 407 192 q 386 103 400 140 q 349 40 372 65 q 288 2 325 14 q 196 -10 250 -10 m 200 24 q 292 47 261 24 q 338 106 324 69 q 357 186 351 143 l 393 439 q 396 514 399 479 q 368 570 393 549 q 283 592 343 592 q 201 578 232 592 q 156 544 171 565 q 136 500 142 522 q 128 461 131 478 l 90 186 q 87 106 83 143 q 115 47 90 69 q 200 24 140 24 z "},"{":{"ha":411,"x_min":71,"x_max":383,"o":"m 228 -190 q 134 -159 169 -182 q 85 -99 99 -136 q 78 -12 71 -61 q 101 59 83 25 q 140 124 118 93 q 178 189 161 156 q 200 258 194 222 q 185 311 204 289 q 136 347 167 333 q 71 361 106 360 l 75 381 q 142 394 108 383 q 202 428 176 406 q 231 485 228 451 q 228 553 236 521 q 208 616 219 585 q 188 681 196 647 q 185 754 179 715 q 214 838 192 804 q 278 892 236 872 q 383 922 321 913 l 379 885 q 314 867 343 879 q 265 830 285 856 q 239 754 246 804 q 240 681 233 714 q 257 617 246 647 q 274 556 268 588 q 275 483 281 524 q 259 441 272 463 q 222 401 246 419 q 161 372 197 383 q 228 324 208 354 q 244 258 249 294 q 223 186 239 218 q 188 124 207 154 q 153 63 169 94 q 132 -11 138 31 q 137 -90 125 -61 q 174 -134 149 -119 q 232 -154 200 -149 l 228 -190 z "},"}":{"ha":411,"x_min":26,"x_max":342,"o":"m 26 -190 l 31 -154 q 94 -134 65 -149 q 144 -90 124 -119 q 172 -11 165 -61 q 171 63 178 31 q 153 124 164 94 q 137 186 143 154 q 136 258 131 218 q 169 324 140 294 q 253 372 199 354 q 200 401 219 383 q 173 441 181 419 q 168 483 165 463 q 190 556 174 524 q 225 617 206 588 q 260 681 244 647 q 282 754 276 714 q 276 830 289 804 q 238 867 264 856 q 178 885 213 879 l 182 922 q 279 892 243 913 q 328 838 315 872 q 335 754 342 804 q 311 681 329 715 q 272 616 293 647 q 235 553 251 585 q 213 485 218 521 q 227 428 208 451 q 277 394 246 406 q 339 381 308 383 l 338 361 q 268 347 303 360 q 209 311 233 333 q 181 258 185 289 q 183 189 175 222 q 204 124 192 156 q 225 59 217 93 q 226 -12 233 25 q 195 -99 219 -61 q 129 -159 171 -136 q 26 -190 88 -182 z "},"[":{"ha":382,"x_min":1,"x_max":381,"o":"m 1 -79 l 135 875 l 381 875 l 376 842 l 178 842 l 53 -46 l 251 -46 l 247 -79 l 1 -79 z "},"]":{"ha":382,"x_min":1,"x_max":381,"o":"m 1 -79 l 6 -46 l 204 -46 l 329 842 l 129 842 l 135 875 l 381 875 l 247 -79 l 1 -79 z "},"˘":{"ha":256,"x_min":72,"x_max":329,"o":"m 183 756 q 126 767 149 756 q 92 796 103 778 q 76 834 81 814 q 74 871 72 854 l 108 871 q 131 807 110 828 q 189 786 153 786 q 256 806 228 786 q 294 871 285 826 l 329 871 q 306 820 324 847 q 260 774 289 793 q 183 756 231 756 z "},"̆":{"ha":0,"x_min":72,"x_max":329,"o":"m 183 756 q 126 767 149 756 q 92 796 103 778 q 76 834 81 814 q 74 871 72 854 l 108 871 q 131 807 110 828 q 189 786 153 786 q 256 806 228 786 q 294 871 285 826 l 329 871 q 306 820 324 847 q 260 774 289 793 q 183 756 231 756 z "},"¦":{"ha":307,"x_min":58,"x_max":251,"o":"m 58 -236 l 124 233 l 169 233 l 104 -236 l 58 -236 m 143 382 l 206 813 l 251 813 l 192 382 l 143 382 z "},"•":{"ha":564,"x_min":92,"x_max":471,"o":"m 282 199 q 186 224 229 199 q 117 293 143 250 q 92 389 92 336 q 117 484 92 442 q 186 552 143 526 q 282 578 229 578 q 377 552 335 578 q 445 484 419 526 q 471 389 471 442 q 445 293 471 336 q 377 224 419 250 q 282 199 335 199 z "},"c":{"ha":469,"x_min":33,"x_max":451,"o":"m 189 -12 q 109 -4 142 -12 q 58 24 76 4 q 37 81 40 44 q 40 174 33 118 l 90 533 q 149 665 104 629 q 289 701 193 701 q 418 665 385 701 q 438 533 451 629 l 426 450 l 376 450 l 388 535 q 379 636 399 604 q 283 668 360 668 q 181 636 210 668 q 142 535 151 604 l 89 163 q 99 53 79 85 q 192 22 118 22 q 295 53 267 22 q 336 163 324 85 l 347 246 l 397 246 l 389 174 q 356 60 378 100 q 293 3 333 19 q 189 -12 253 -12 z "},"ć":{"ha":469,"x_min":33,"x_max":451,"o":"m 189 -12 q 109 -4 142 -12 q 58 24 76 4 q 37 81 40 44 q 40 174 33 118 l 90 533 q 149 665 104 629 q 289 701 193 701 q 418 665 385 701 q 438 533 451 629 l 426 450 l 376 450 l 388 535 q 379 636 399 604 q 283 668 360 668 q 181 636 210 668 q 142 535 151 604 l 89 163 q 99 53 79 85 q 192 22 118 22 q 295 53 267 22 q 336 163 324 85 l 347 246 l 397 246 l 389 174 q 356 60 378 100 q 293 3 333 19 q 189 -12 253 -12 m 250 757 l 336 879 l 396 879 l 282 757 l 250 757 z "},"ˇ":{"ha":282,"x_min":75,"x_max":357,"o":"m 178 760 l 75 878 l 115 878 l 204 789 l 319 878 l 357 878 l 221 760 l 178 760 z "},"̌":{"ha":0,"x_min":75,"x_max":357,"o":"m 178 760 l 75 878 l 115 878 l 204 789 l 319 878 l 357 878 l 221 760 l 178 760 z "},"č":{"ha":469,"x_min":33,"x_max":458,"o":"m 189 -12 q 109 -4 142 -12 q 58 24 76 4 q 37 81 40 44 q 40 174 33 118 l 90 533 q 149 665 104 629 q 289 701 193 701 q 418 665 385 701 q 438 533 451 629 l 426 450 l 376 450 l 388 535 q 379 636 399 604 q 283 668 360 668 q 181 636 210 668 q 142 535 151 604 l 89 163 q 99 53 79 85 q 192 22 118 22 q 295 53 267 22 q 336 163 324 85 l 347 246 l 397 246 l 389 174 q 356 60 378 100 q 293 3 333 19 q 189 -12 253 -12 m 279 760 l 176 878 l 217 878 l 306 789 l 421 878 l 458 878 l 322 760 l 279 760 z "},"ç":{"ha":469,"x_min":33,"x_max":451,"o":"m 189 -12 q 109 -4 142 -12 q 58 24 76 4 q 37 81 40 44 q 40 174 33 118 l 90 533 q 149 665 104 629 q 289 701 193 701 q 418 665 385 701 q 438 533 451 629 l 426 450 l 376 450 l 388 535 q 379 636 399 604 q 283 668 360 668 q 181 636 210 668 q 142 535 151 604 l 89 163 q 99 53 79 85 q 192 22 118 22 q 295 53 267 22 q 336 163 324 85 l 347 246 l 397 246 l 389 174 q 356 60 378 100 q 293 3 333 19 q 189 -12 253 -12 m 160 -190 q 126 -184 140 -190 q 100 -172 111 -178 l 114 -149 q 136 -160 121 -156 q 161 -165 151 -165 q 208 -151 192 -165 q 225 -121 224 -137 q 183 -78 232 -78 q 163 -82 174 -78 q 142 -93 151 -86 l 122 -81 l 178 0 l 207 0 l 158 -69 l 151 -68 q 175 -58 163 -61 q 199 -56 188 -56 q 247 -75 232 -56 q 260 -117 263 -94 q 228 -170 256 -150 q 160 -190 201 -190 z "},"ċ":{"ha":469,"x_min":33,"x_max":451,"o":"m 189 -12 q 109 -4 142 -12 q 58 24 76 4 q 37 81 40 44 q 40 174 33 118 l 90 533 q 149 665 104 629 q 289 701 193 701 q 418 665 385 701 q 438 533 451 629 l 426 450 l 376 450 l 388 535 q 379 636 399 604 q 283 668 360 668 q 181 636 210 668 q 142 535 151 604 l 89 163 q 99 53 79 85 q 192 22 118 22 q 295 53 267 22 q 336 163 324 85 l 347 246 l 397 246 l 389 174 q 356 60 378 100 q 293 3 333 19 q 189 -12 253 -12 m 300 776 q 274 788 285 776 q 263 813 264 799 q 274 838 263 828 q 300 849 285 849 q 327 838 317 849 q 338 813 338 828 q 327 788 339 799 q 300 776 315 776 z "},"¸":{"ha":150,"x_min":-72,"x_max":89,"o":"m -14 -187 q -48 -181 -33 -187 q -74 -169 -62 -175 l -60 -146 q -37 -158 -53 -153 q -12 -162 -22 -162 q 34 -149 18 -162 q 51 -118 50 -135 q 10 -75 58 -75 q -11 -79 0 -75 q -32 -90 -22 -83 l -51 -78 l 4 3 l 33 3 l -15 -67 l -22 -65 q 1 -56 -11 -58 q 25 -53 14 -53 q 74 -72 58 -53 q 86 -114 89 -92 q 55 -167 82 -147 q -14 -187 28 -187 z "},"̧":{"ha":0,"x_min":-81,"x_max":82,"o":"m -21 -187 q -55 -181 -40 -187 q -81 -169 -69 -175 l -67 -146 q -44 -158 -60 -153 q -19 -162 -29 -162 q 27 -149 11 -162 q 44 -118 43 -135 q 3 -75 51 -75 q -18 -79 -7 -75 q -39 -90 -29 -83 l -58 -78 l -3 3 l 26 3 l -22 -67 l -29 -65 q -6 -56 -18 -58 q 18 -53 7 -53 q 67 -72 51 -53 q 79 -114 82 -92 q 48 -167 75 -147 q -21 -187 21 -187 z "},"¢":{"ha":468,"x_min":33,"x_max":443,"o":"m 147 -86 l 169 69 q 94 82 126 69 q 47 128 61 94 q 42 228 33 163 l 97 631 q 131 725 107 693 q 190 769 154 757 q 269 783 226 782 l 286 896 l 325 896 l 308 783 q 381 768 350 781 q 428 724 413 756 q 433 631 443 692 l 419 522 l 372 522 l 389 629 q 385 711 397 685 q 345 746 372 738 q 282 754 318 754 q 219 746 247 754 q 171 711 190 738 q 144 629 151 685 l 86 225 q 91 143 79 169 q 129 108 103 117 q 192 99 156 99 q 259 108 231 99 q 306 143 288 117 q 332 225 324 169 l 344 311 l 389 311 l 376 228 q 344 130 368 164 q 285 83 319 96 q 208 69 250 71 l 186 -86 l 147 -86 z "},"ч":{"ha":461,"x_min":39,"x_max":426,"o":"m 281 0 l 319 281 q 265 224 303 249 q 174 200 228 200 q 78 225 107 200 q 44 292 49 250 q 46 388 39 333 l 89 688 l 139 688 l 94 385 q 103 276 86 314 q 192 239 121 239 q 280 269 247 239 q 325 329 313 300 l 375 688 l 426 688 l 329 0 l 281 0 z "},"ˆ":{"ha":282,"x_min":58,"x_max":340,"o":"m 58 760 l 196 878 l 238 878 l 340 760 l 303 760 l 211 849 l 97 760 l 58 760 z "},"̂":{"ha":0,"x_min":58,"x_max":340,"o":"m 58 760 l 196 878 l 238 878 l 340 760 l 303 760 l 211 849 l 97 760 l 58 760 z "},":":{"ha":206,"x_min":25,"x_max":146,"o":"m 107 390 q 86 399 94 390 q 79 421 78 408 q 92 442 82 433 q 115 451 103 451 q 137 442 128 451 q 143 421 146 433 q 131 399 142 408 q 107 390 119 390 m 54 -7 q 33 2 42 -7 q 26 24 25 11 q 40 45 29 36 q 63 54 50 54 q 84 45 75 54 q 90 24 93 36 q 78 2 89 11 q 54 -7 67 -7 z "},",":{"ha":231,"x_min":0,"x_max":115,"o":"m 0 -146 q 35 -92 17 -121 q 56 -39 54 -62 q 54 -12 58 -21 q 45 3 50 -4 q 40 25 40 10 q 51 50 40 39 q 79 61 63 61 q 106 51 96 61 q 115 24 115 42 q 101 -31 115 0 q 67 -91 88 -61 q 26 -146 46 -121 l 0 -146 z "},"̦":{"ha":0,"x_min":-86,"x_max":6,"o":"m -86 -194 q -52 -142 -64 -164 q -40 -110 -40 -121 q -44 -98 -40 -103 q -53 -87 -49 -93 q -57 -71 -58 -81 q -48 -51 -57 -61 q -25 -42 -39 -42 q -3 -50 -11 -42 q 6 -71 6 -58 q -6 -108 6 -86 q -31 -152 -17 -129 q -62 -194 -46 -175 l -86 -194 z "},"̒":{"ha":0,"x_min":63,"x_max":154,"o":"m 154 910 q 120 857 132 879 q 108 825 108 835 q 113 814 108 819 q 122 802 118 808 q 126 785 126 796 q 116 766 125 775 q 93 757 107 757 q 71 766 79 757 q 63 786 63 775 q 74 823 64 801 q 100 868 85 844 q 131 910 115 892 l 154 910 z "},"©":{"ha":833,"x_min":50,"x_max":858,"o":"m 400 43 q 210 96 292 43 q 90 237 129 149 q 65 433 50 325 q 117 584 76 514 q 217 708 157 654 q 353 791 278 761 q 508 821 428 821 q 697 769 617 821 q 818 628 778 717 q 843 433 858 540 q 792 282 832 353 q 691 157 751 211 q 556 73 631 103 q 400 43 481 43 m 403 71 q 548 99 479 71 q 673 178 617 128 q 766 294 729 229 q 813 433 803 360 q 791 613 828 532 q 679 743 754 694 q 504 792 604 792 q 362 764 431 792 q 237 687 293 736 q 143 572 181 638 q 94 433 106 507 q 104 294 86 360 q 165 178 122 229 q 268 99 207 128 q 403 71 329 71 m 418 218 q 360 224 383 218 q 324 242 336 229 q 308 278 311 254 q 313 336 306 301 l 353 561 q 396 644 364 622 q 499 667 428 667 q 590 644 567 667 q 603 561 614 622 l 594 508 l 560 508 l 569 563 q 562 626 576 606 q 494 646 547 646 q 417 626 439 646 q 388 563 396 606 l 347 328 q 352 260 338 281 q 421 240 367 240 q 497 260 475 240 q 526 328 518 281 l 538 381 l 572 381 l 564 336 q 539 263 556 289 q 493 228 522 238 q 418 218 464 218 z "},"¤":{"ha":607,"x_min":65,"x_max":542,"o":"m 107 189 l 75 222 l 164 311 q 133 360 144 335 q 122 414 122 386 q 163 525 122 475 l 65 622 l 96 653 l 197 551 q 297 583 246 583 q 403 550 350 583 l 500 646 l 531 614 l 436 519 q 474 414 474 469 q 438 315 474 361 l 542 211 l 508 179 l 403 286 q 350 260 376 269 q 297 251 324 251 q 196 279 240 251 l 107 189 m 297 296 q 385 331 349 296 q 422 414 422 367 q 385 503 422 467 q 297 540 349 540 q 208 505 243 540 q 174 414 174 469 q 208 331 174 367 q 297 296 243 296 z "},"d":{"ha":497,"x_min":35,"x_max":489,"o":"m 179 -11 q 93 3 124 -11 q 49 44 63 18 q 35 104 36 69 q 42 178 35 139 l 90 522 q 113 610 97 569 q 167 676 129 650 q 278 701 206 701 q 365 685 335 701 q 408 644 396 668 l 440 875 l 489 875 l 365 0 l 331 0 l 335 65 q 305 28 324 46 q 256 0 286 11 q 179 -11 226 -11 m 189 22 q 268 40 239 22 q 313 88 297 58 q 335 151 328 117 q 346 215 342 185 q 372 400 358 308 q 399 583 385 492 q 387 619 397 600 q 352 653 376 639 q 283 667 328 667 q 191 643 219 667 q 153 583 163 619 q 138 508 143 547 l 92 179 q 86 122 88 150 q 92 72 85 94 q 121 36 99 50 q 189 22 143 22 z "},"†":{"ha":496,"x_min":88,"x_max":457,"o":"m 151 -172 l 243 474 l 88 474 l 92 513 l 247 513 l 290 813 l 336 813 l 294 513 l 457 513 l 451 474 l 289 474 l 197 -172 l 151 -172 z "},"‡":{"ha":497,"x_min":53,"x_max":458,"o":"m 151 -172 l 208 231 l 53 231 l 58 271 l 214 271 l 243 476 l 88 476 l 93 515 l 249 515 l 292 819 l 339 819 l 296 515 l 458 515 l 453 476 l 289 476 l 261 271 l 424 271 l 418 231 l 256 231 l 197 -172 l 151 -172 z "},"ď":{"ha":513,"x_min":35,"x_max":604,"o":"m 179 -11 q 93 3 124 -11 q 49 44 63 18 q 35 104 36 69 q 42 178 35 139 l 90 522 q 113 610 97 569 q 167 676 129 650 q 278 701 206 701 q 365 685 335 701 q 408 644 396 668 l 440 875 l 489 875 l 365 0 l 331 0 l 335 65 q 305 28 324 46 q 256 0 286 11 q 179 -11 226 -11 m 189 22 q 268 40 239 22 q 313 88 297 58 q 335 151 328 117 q 346 215 342 185 q 372 400 358 308 q 399 583 385 492 q 387 619 397 600 q 352 653 376 639 q 283 667 328 667 q 191 643 219 667 q 153 583 163 619 q 138 508 143 547 l 92 179 q 86 122 88 150 q 92 72 85 94 q 121 36 99 50 q 189 22 143 22 m 519 735 l 565 903 l 604 903 l 544 735 l 519 735 z "},"đ":{"ha":485,"x_min":35,"x_max":532,"o":"m 242 769 l 246 800 l 532 800 l 526 769 l 242 769 m 179 -11 q 93 3 124 -11 q 49 44 63 18 q 35 104 36 69 q 42 178 35 139 l 90 522 q 113 610 97 569 q 167 676 129 650 q 278 701 206 701 q 365 685 335 701 q 408 644 396 668 l 440 875 l 489 875 l 365 0 l 331 0 l 335 65 q 305 28 324 46 q 256 0 286 11 q 179 -11 226 -11 m 189 22 q 268 40 239 22 q 313 88 297 58 q 335 151 328 117 q 346 215 342 185 q 372 400 358 308 q 399 583 385 492 q 387 619 397 600 q 352 653 376 639 q 283 667 328 667 q 191 643 219 667 q 153 583 163 619 q 138 508 143 547 l 92 179 q 86 122 88 150 q 92 72 85 94 q 121 36 99 50 q 189 22 143 22 z "},"д":{"ha":665,"x_min":-26,"x_max":600,"o":"m -26 -144 l -1 35 l 68 35 q 102 48 86 38 q 131 81 118 58 q 153 142 143 104 l 282 686 l 581 686 l 490 35 l 600 35 l 574 -144 l 528 -144 l 547 -6 l 38 -6 l 18 -144 l -26 -144 m 153 35 l 436 35 l 522 647 l 324 647 l 210 171 q 190 97 201 138 q 153 35 178 56 z "},"°":{"ha":446,"x_min":57,"x_max":386,"o":"m 201 514 q 89 559 121 514 q 65 667 57 604 q 117 776 74 731 q 247 821 160 821 q 336 800 306 821 q 376 744 367 779 q 381 669 386 710 q 326 558 371 603 q 201 514 282 514 m 207 543 q 299 577 263 543 q 343 668 335 611 q 325 756 350 718 q 240 793 300 793 q 149 758 186 793 q 104 667 113 722 q 126 577 96 611 q 207 543 157 543 z "},"¨":{"ha":189,"x_min":65,"x_max":254,"o":"m 101 778 q 76 788 86 778 q 65 813 65 799 q 76 836 65 826 q 101 846 86 846 q 126 836 115 846 q 136 813 136 826 q 126 788 136 799 q 101 778 115 778 m 219 778 q 195 788 206 778 q 185 813 185 799 q 195 836 185 826 q 219 846 206 846 q 244 836 235 846 q 254 813 254 826 q 244 788 254 799 q 219 778 235 778 z "},"̈":{"ha":0,"x_min":65,"x_max":254,"o":"m 101 778 q 76 788 86 778 q 65 813 65 799 q 76 836 65 826 q 101 846 86 846 q 126 836 115 846 q 136 813 136 826 q 126 788 136 799 q 101 778 115 778 m 219 778 q 195 788 206 778 q 185 813 185 799 q 195 836 185 826 q 219 846 206 846 q 244 836 235 846 q 254 813 254 826 q 244 788 254 799 q 219 778 235 778 z "},"÷":{"ha":497,"x_min":67,"x_max":435,"o":"m 67 386 l 72 425 l 435 425 l 429 386 l 67 386 m 214 136 q 188 146 197 136 q 181 172 179 156 q 194 197 182 188 q 222 207 206 207 q 248 197 238 207 q 256 172 258 188 q 241 146 254 156 q 214 136 228 136 m 275 579 q 250 590 260 579 q 242 617 240 600 q 256 642 244 631 q 285 653 268 653 q 310 642 300 653 q 318 617 321 631 q 302 590 315 600 q 275 579 289 579 z "},"∕":{"ha":379,"x_min":-126,"x_max":531,"o":"m -126 -165 l 483 976 l 531 976 l -82 -165 l -126 -165 z "},"ђ":{"ha":535,"x_min":51,"x_max":485,"o":"m 242 -131 q 201 -125 219 -131 q 167 -111 182 -119 q 174 -97 171 -104 q 182 -82 178 -89 q 206 -93 193 -89 q 242 -97 219 -97 q 338 -49 310 -97 q 379 86 367 -1 l 429 440 q 425 506 432 478 q 393 550 418 533 q 318 567 368 567 q 230 545 261 567 q 183 492 199 524 q 164 426 168 460 q 156 369 160 393 l 101 0 l 51 0 l 156 736 l 76 736 l 82 768 l 160 768 l 175 875 l 225 875 l 210 768 l 347 768 l 343 736 l 206 736 l 175 521 q 236 578 196 556 q 332 600 276 600 q 432 579 399 600 q 475 518 465 558 q 476 419 485 478 l 431 89 q 399 -32 419 13 q 354 -97 379 -76 q 300 -124 329 -118 q 242 -131 271 -131 z "},"$":{"ha":472,"x_min":19,"x_max":439,"o":"m 154 -85 l 176 74 q 47 118 75 75 q 33 261 19 161 l 40 315 l 88 315 l 81 258 q 74 185 75 219 q 97 129 74 150 q 183 108 119 108 q 271 130 243 108 q 309 181 299 151 q 324 238 319 211 l 328 271 q 325 332 333 306 q 292 380 317 358 q 225 418 268 401 q 146 460 179 439 q 97 515 113 482 q 89 597 82 547 l 94 640 q 148 744 106 704 q 276 785 190 783 l 299 939 l 329 939 l 307 785 q 410 740 381 779 q 426 611 439 700 l 417 549 l 369 549 l 379 611 q 365 721 390 692 q 281 750 339 750 q 180 717 210 750 q 143 638 150 685 l 139 606 q 146 537 133 564 q 188 490 158 510 q 265 449 218 469 q 333 412 304 431 q 375 360 363 393 q 379 268 388 326 l 376 242 q 354 167 369 204 q 305 106 339 131 q 207 75 271 81 l 185 -85 l 154 -85 z "},"˙":{"ha":71,"x_min":65,"x_max":142,"o":"m 103 776 q 77 788 88 776 q 65 813 67 799 q 76 838 65 828 q 103 849 88 849 q 130 838 119 849 q 140 813 140 828 q 130 788 142 799 q 103 776 118 776 z "},"̇":{"ha":0,"x_min":65,"x_max":142,"o":"m 103 776 q 77 788 88 776 q 65 813 67 799 q 76 838 65 828 q 103 849 88 849 q 130 838 119 849 q 140 813 140 828 q 130 788 142 799 q 103 776 118 776 z "},"̣":{"ha":0,"x_min":-61,"x_max":8,"o":"m -26 -135 q -51 -124 -40 -135 q -61 -100 -61 -114 q -51 -76 -61 -85 q -26 -67 -40 -67 q -1 -76 -11 -67 q 8 -100 8 -85 q -1 -124 8 -114 q -26 -135 -11 -135 z "},"↓":{"ha":706,"x_min":65,"x_max":639,"o":"m 354 0 l 65 297 l 92 322 l 335 81 l 332 982 l 374 982 l 374 81 l 615 322 l 639 297 l 354 0 z "},"ѕ":{"ha":468,"x_min":31,"x_max":444,"o":"m 188 -10 q 88 7 122 -10 q 42 51 54 24 q 32 111 31 78 q 38 179 33 144 l 44 232 l 94 232 l 88 175 q 81 102 82 136 q 103 47 81 68 q 190 26 126 26 q 277 47 249 26 q 316 99 306 68 q 331 154 326 129 l 336 188 q 333 249 342 222 q 299 297 324 275 q 231 335 275 318 q 152 377 185 356 q 105 431 119 399 q 96 514 90 464 l 101 557 q 128 633 107 601 q 190 683 150 665 q 292 701 231 701 q 385 685 350 701 q 432 630 419 668 q 435 528 444 592 l 425 467 l 378 467 l 386 528 q 372 637 396 608 q 288 665 347 665 q 187 633 217 665 q 151 554 157 601 l 146 522 q 153 453 140 481 q 196 406 165 426 q 272 365 226 386 q 341 329 313 349 q 382 276 369 310 q 388 185 394 243 l 385 158 q 363 80 379 118 q 305 16 346 42 q 188 -10 264 -10 z "},"џ":{"ha":536,"x_min":35,"x_max":501,"o":"m 176 -156 l 197 0 l 35 0 l 132 688 l 182 688 l 92 38 l 357 38 l 450 688 l 501 688 l 404 0 l 240 0 l 218 -156 l 176 -156 z "},"e":{"ha":472,"x_min":31,"x_max":465,"o":"m 189 -12 q 89 3 125 -12 q 42 60 53 19 q 40 174 31 100 l 90 533 q 153 663 104 629 q 292 697 203 697 q 430 655 394 697 q 443 510 465 613 q 389 412 431 449 q 294 355 347 375 q 190 326 240 335 q 110 313 139 317 l 89 167 q 97 55 78 86 q 192 24 117 24 q 296 55 267 24 q 336 165 325 86 l 346 242 l 396 242 l 386 169 q 356 58 376 97 q 295 3 335 19 q 189 -12 256 -12 m 115 350 q 192 363 149 354 q 276 388 235 371 q 349 436 318 406 q 392 513 381 467 q 390 625 410 585 q 294 665 371 665 q 185 635 221 665 q 140 529 150 604 l 115 350 z "},"é":{"ha":472,"x_min":31,"x_max":465,"o":"m 189 -12 q 89 3 125 -12 q 42 60 53 19 q 40 174 31 100 l 90 533 q 153 663 104 629 q 292 697 203 697 q 430 655 394 697 q 443 510 465 613 q 389 412 431 449 q 294 355 347 375 q 190 326 240 335 q 110 313 139 317 l 89 167 q 97 55 78 86 q 192 24 117 24 q 296 55 267 24 q 336 165 325 86 l 346 242 l 396 242 l 386 169 q 356 58 376 97 q 295 3 335 19 q 189 -12 256 -12 m 115 350 q 192 363 149 354 q 276 388 235 371 q 349 436 318 406 q 392 513 381 467 q 390 625 410 585 q 294 665 371 665 q 185 635 221 665 q 140 529 150 604 l 115 350 m 251 757 l 338 879 l 397 879 l 283 757 l 251 757 z "},"ě":{"ha":472,"x_min":31,"x_max":465,"o":"m 189 -12 q 89 3 125 -12 q 42 60 53 19 q 40 174 31 100 l 90 533 q 153 663 104 629 q 292 697 203 697 q 430 655 394 697 q 443 510 465 613 q 389 412 431 449 q 294 355 347 375 q 190 326 240 335 q 110 313 139 317 l 89 167 q 97 55 78 86 q 192 24 117 24 q 296 55 267 24 q 336 165 325 86 l 346 242 l 396 242 l 386 169 q 356 58 376 97 q 295 3 335 19 q 189 -12 256 -12 m 115 350 q 192 363 149 354 q 276 388 235 371 q 349 436 318 406 q 392 513 381 467 q 390 625 410 585 q 294 665 371 665 q 185 635 221 665 q 140 529 150 604 l 115 350 m 279 760 l 176 878 l 217 878 l 306 789 l 421 878 l 458 878 l 322 760 l 279 760 z "},"ê":{"ha":472,"x_min":31,"x_max":465,"o":"m 189 -12 q 89 3 125 -12 q 42 60 53 19 q 40 174 31 100 l 90 533 q 153 663 104 629 q 292 697 203 697 q 430 655 394 697 q 443 510 465 613 q 389 412 431 449 q 294 355 347 375 q 190 326 240 335 q 110 313 139 317 l 89 167 q 97 55 78 86 q 192 24 117 24 q 296 55 267 24 q 336 165 325 86 l 346 242 l 396 242 l 386 169 q 356 58 376 97 q 295 3 335 19 q 189 -12 256 -12 m 115 350 q 192 363 149 354 q 276 388 235 371 q 349 436 318 406 q 392 513 381 467 q 390 625 410 585 q 294 665 371 665 q 185 635 221 665 q 140 529 150 604 l 115 350 m 154 760 l 292 878 l 333 878 l 436 760 l 399 760 l 307 849 l 193 760 l 154 760 z "},"ế":{"ha":472,"x_min":31,"x_max":583,"o":"m 189 -12 q 89 3 125 -12 q 42 60 53 19 q 40 174 31 100 l 90 533 q 153 663 104 629 q 292 697 203 697 q 430 655 394 697 q 443 510 465 613 q 389 412 431 449 q 294 355 347 375 q 190 326 240 335 q 110 313 139 317 l 89 167 q 97 55 78 86 q 192 24 117 24 q 296 55 267 24 q 336 165 325 86 l 346 242 l 396 242 l 386 169 q 356 58 376 97 q 295 3 335 19 q 189 -12 256 -12 m 115 350 q 192 363 149 354 q 276 388 235 371 q 349 436 318 406 q 392 513 381 467 q 390 625 410 585 q 294 665 371 665 q 185 635 221 665 q 140 529 150 604 l 115 350 m 154 760 l 292 878 l 333 878 l 436 760 l 399 760 l 307 849 l 193 760 l 154 760 m 438 831 l 524 953 l 583 953 l 469 831 l 438 831 z "},"ệ":{"ha":472,"x_min":31,"x_max":465,"o":"m 189 -12 q 89 3 125 -12 q 42 60 53 19 q 40 174 31 100 l 90 533 q 153 663 104 629 q 292 697 203 697 q 430 655 394 697 q 443 510 465 613 q 389 412 431 449 q 294 355 347 375 q 190 326 240 335 q 110 313 139 317 l 89 167 q 97 55 78 86 q 192 24 117 24 q 296 55 267 24 q 336 165 325 86 l 346 242 l 396 242 l 386 169 q 356 58 376 97 q 295 3 335 19 q 189 -12 256 -12 m 115 350 q 192 363 149 354 q 276 388 235 371 q 349 436 318 406 q 392 513 381 467 q 390 625 410 585 q 294 665 371 665 q 185 635 221 665 q 140 529 150 604 l 115 350 m 172 -135 q 148 -124 158 -135 q 138 -100 138 -114 q 148 -76 138 -85 q 172 -67 158 -67 q 197 -76 188 -67 q 207 -100 207 -85 q 197 -124 207 -114 q 172 -135 188 -135 m 154 760 l 292 878 l 333 878 l 436 760 l 399 760 l 307 849 l 193 760 l 154 760 z "},"ề":{"ha":472,"x_min":31,"x_max":517,"o":"m 189 -12 q 89 3 125 -12 q 42 60 53 19 q 40 174 31 100 l 90 533 q 153 663 104 629 q 292 697 203 697 q 430 655 394 697 q 443 510 465 613 q 389 412 431 449 q 294 355 347 375 q 190 326 240 335 q 110 313 139 317 l 89 167 q 97 55 78 86 q 192 24 117 24 q 296 55 267 24 q 336 165 325 86 l 346 242 l 396 242 l 386 169 q 356 58 376 97 q 295 3 335 19 q 189 -12 256 -12 m 115 350 q 192 363 149 354 q 276 388 235 371 q 349 436 318 406 q 392 513 381 467 q 390 625 410 585 q 294 665 371 665 q 185 635 221 665 q 140 529 150 604 l 115 350 m 154 760 l 292 878 l 333 878 l 436 760 l 399 760 l 307 849 l 193 760 l 154 760 m 485 831 l 396 953 l 456 953 l 517 831 l 485 831 z "},"ể":{"ha":472,"x_min":31,"x_max":564,"o":"m 189 -12 q 89 3 125 -12 q 42 60 53 19 q 40 174 31 100 l 90 533 q 153 663 104 629 q 292 697 203 697 q 430 655 394 697 q 443 510 465 613 q 389 412 431 449 q 294 355 347 375 q 190 326 240 335 q 110 313 139 317 l 89 167 q 97 55 78 86 q 192 24 117 24 q 296 55 267 24 q 336 165 325 86 l 346 242 l 396 242 l 386 169 q 356 58 376 97 q 295 3 335 19 q 189 -12 256 -12 m 115 350 q 192 363 149 354 q 276 388 235 371 q 349 436 318 406 q 392 513 381 467 q 390 625 410 585 q 294 665 371 665 q 185 635 221 665 q 140 529 150 604 l 115 350 m 154 760 l 292 878 l 333 878 l 436 760 l 399 760 l 307 849 l 193 760 l 154 760 m 458 824 l 463 850 q 481 876 465 869 q 513 891 497 883 q 529 921 529 899 l 529 926 q 523 958 529 943 q 492 974 517 974 q 447 939 458 974 l 417 946 q 446 985 426 971 q 499 1000 465 1000 q 551 980 538 1000 q 563 925 564 960 l 563 921 q 552 884 563 896 q 527 867 542 872 q 502 857 513 861 q 492 842 492 853 l 489 824 l 458 824 z "},"ễ":{"ha":472,"x_min":31,"x_max":465,"o":"m 189 -12 q 89 3 125 -12 q 42 60 53 19 q 40 174 31 100 l 90 533 q 153 663 104 629 q 292 697 203 697 q 430 655 394 697 q 443 510 465 613 q 389 412 431 449 q 294 355 347 375 q 190 326 240 335 q 110 313 139 317 l 89 167 q 97 55 78 86 q 192 24 117 24 q 296 55 267 24 q 336 165 325 86 l 346 242 l 396 242 l 386 169 q 356 58 376 97 q 295 3 335 19 q 189 -12 256 -12 m 115 350 q 192 363 149 354 q 276 388 235 371 q 349 436 318 406 q 392 513 381 467 q 390 625 410 585 q 294 665 371 665 q 185 635 221 665 q 140 529 150 604 l 115 350 m 154 760 l 292 878 l 333 878 l 436 760 l 399 760 l 307 849 l 193 760 l 154 760 m 365 910 q 338 915 349 910 q 310 935 326 921 q 288 951 300 942 q 258 960 275 960 q 228 949 242 960 q 207 911 215 938 l 179 911 q 209 969 188 946 q 263 992 231 992 q 295 983 281 992 q 324 964 310 975 q 347 949 336 954 q 371 943 357 943 q 401 953 388 943 q 422 989 414 964 l 450 989 q 419 932 442 954 q 365 910 397 910 z "},"ë":{"ha":472,"x_min":31,"x_max":465,"o":"m 189 -12 q 89 3 125 -12 q 42 60 53 19 q 40 174 31 100 l 90 533 q 153 663 104 629 q 292 697 203 697 q 430 655 394 697 q 443 510 465 613 q 389 412 431 449 q 294 355 347 375 q 190 326 240 335 q 110 313 139 317 l 89 167 q 97 55 78 86 q 192 24 117 24 q 296 55 267 24 q 336 165 325 86 l 346 242 l 396 242 l 386 169 q 356 58 376 97 q 295 3 335 19 q 189 -12 256 -12 m 115 350 q 192 363 149 354 q 276 388 235 371 q 349 436 318 406 q 392 513 381 467 q 390 625 410 585 q 294 665 371 665 q 185 635 221 665 q 140 529 150 604 l 115 350 m 242 778 q 216 788 226 778 q 206 813 206 799 q 216 836 206 826 q 242 846 226 846 q 266 836 256 846 q 276 813 276 826 q 266 788 276 799 q 242 778 256 778 m 360 778 q 335 788 346 778 q 325 813 325 799 q 335 836 325 826 q 360 846 346 846 q 385 836 375 846 q 394 813 394 826 q 385 788 394 799 q 360 778 375 778 z "},"ė":{"ha":472,"x_min":31,"x_max":465,"o":"m 189 -12 q 89 3 125 -12 q 42 60 53 19 q 40 174 31 100 l 90 533 q 153 663 104 629 q 292 697 203 697 q 430 655 394 697 q 443 510 465 613 q 389 412 431 449 q 294 355 347 375 q 190 326 240 335 q 110 313 139 317 l 89 167 q 97 55 78 86 q 192 24 117 24 q 296 55 267 24 q 336 165 325 86 l 346 242 l 396 242 l 386 169 q 356 58 376 97 q 295 3 335 19 q 189 -12 256 -12 m 115 350 q 192 363 149 354 q 276 388 235 371 q 349 436 318 406 q 392 513 381 467 q 390 625 410 585 q 294 665 371 665 q 185 635 221 665 q 140 529 150 604 l 115 350 m 301 776 q 276 788 286 776 q 264 813 265 799 q 275 838 264 828 q 301 849 286 849 q 328 838 318 849 q 339 813 339 828 q 328 788 340 799 q 301 776 317 776 z "},"ẹ":{"ha":472,"x_min":31,"x_max":465,"o":"m 189 -12 q 89 3 125 -12 q 42 60 53 19 q 40 174 31 100 l 90 533 q 153 663 104 629 q 292 697 203 697 q 430 655 394 697 q 443 510 465 613 q 389 412 431 449 q 294 355 347 375 q 190 326 240 335 q 110 313 139 317 l 89 167 q 97 55 78 86 q 192 24 117 24 q 296 55 267 24 q 336 165 325 86 l 346 242 l 396 242 l 386 169 q 356 58 376 97 q 295 3 335 19 q 189 -12 256 -12 m 115 350 q 192 363 149 354 q 276 388 235 371 q 349 436 318 406 q 392 513 381 467 q 390 625 410 585 q 294 665 371 665 q 185 635 221 665 q 140 529 150 604 l 115 350 m 172 -135 q 148 -124 158 -135 q 138 -100 138 -114 q 148 -76 138 -85 q 172 -67 158 -67 q 197 -76 188 -67 q 207 -100 207 -85 q 197 -124 207 -114 q 172 -135 188 -135 z "},"ф":{"ha":813,"x_min":29,"x_max":771,"o":"m 310 -161 l 342 60 q 284 9 321 28 q 185 -10 247 -10 q 58 42 86 -10 q 43 189 29 94 l 81 461 q 109 561 89 519 q 169 625 129 603 q 279 647 210 647 q 370 628 338 647 q 413 575 403 608 l 449 821 l 499 821 l 463 578 q 521 628 482 610 q 615 647 560 647 q 720 625 686 647 q 763 561 754 603 q 763 461 771 519 l 725 189 q 669 42 711 94 q 528 -10 628 -10 q 436 9 468 -10 q 392 61 404 28 l 360 -161 l 310 -161 m 199 24 q 290 48 258 24 q 338 109 322 72 q 357 179 353 146 l 396 451 q 399 525 401 488 q 370 588 396 563 q 282 614 344 614 q 192 592 224 614 q 149 534 161 569 q 131 456 136 499 l 93 186 q 90 105 86 142 q 119 46 94 68 q 199 24 143 24 m 525 24 q 610 46 581 24 q 655 105 640 68 q 675 186 669 142 l 714 456 q 717 534 719 499 q 690 592 714 569 q 607 614 665 614 q 515 591 549 614 q 467 534 482 568 q 449 465 453 500 l 408 183 q 408 111 403 149 q 440 49 413 74 q 525 24 467 24 z "},"è":{"ha":472,"x_min":31,"x_max":465,"o":"m 189 -12 q 89 3 125 -12 q 42 60 53 19 q 40 174 31 100 l 90 533 q 153 663 104 629 q 292 697 203 697 q 430 655 394 697 q 443 510 465 613 q 389 412 431 449 q 294 355 347 375 q 190 326 240 335 q 110 313 139 317 l 89 167 q 97 55 78 86 q 192 24 117 24 q 296 55 267 24 q 336 165 325 86 l 346 242 l 396 242 l 386 169 q 356 58 376 97 q 295 3 335 19 q 189 -12 256 -12 m 115 350 q 192 363 149 354 q 276 388 235 371 q 349 436 318 406 q 392 513 381 467 q 390 625 410 585 q 294 665 371 665 q 185 635 221 665 q 140 529 150 604 l 115 350 m 299 757 l 210 879 l 269 879 l 331 757 l 299 757 z "},"ẻ":{"ha":472,"x_min":31,"x_max":465,"o":"m 189 -12 q 89 3 125 -12 q 42 60 53 19 q 40 174 31 100 l 90 533 q 153 663 104 629 q 292 697 203 697 q 430 655 394 697 q 443 510 465 613 q 389 412 431 449 q 294 355 347 375 q 190 326 240 335 q 110 313 139 317 l 89 167 q 97 55 78 86 q 192 24 117 24 q 296 55 267 24 q 336 165 325 86 l 346 242 l 396 242 l 386 169 q 356 58 376 97 q 295 3 335 19 q 189 -12 256 -12 m 115 350 q 192 363 149 354 q 276 388 235 371 q 349 436 318 406 q 392 513 381 467 q 390 625 410 585 q 294 665 371 665 q 185 635 221 665 q 140 529 150 604 l 115 350 m 272 750 l 276 776 q 295 803 279 796 q 327 817 311 810 q 343 847 343 825 l 343 853 q 337 885 343 869 q 306 900 331 900 q 261 865 272 900 l 231 872 q 260 912 240 897 q 313 926 279 926 q 365 906 351 926 q 376 851 378 886 l 376 847 q 366 810 376 822 q 341 793 356 799 q 316 783 326 788 q 306 768 306 779 l 303 750 l 272 750 z "},"л":{"ha":532,"x_min":-22,"x_max":496,"o":"m -22 0 l -17 33 q 17 43 3 33 q 44 76 32 53 q 64 136 56 100 l 188 686 l 496 686 l 399 0 l 347 0 l 439 647 l 232 647 l 111 119 q 100 84 107 104 q 81 44 93 64 q 48 13 68 25 q 0 0 28 0 l -22 0 z "},"…":{"ha":576,"x_min":22,"x_max":465,"o":"m 58 -8 q 33 3 43 -8 q 25 29 22 14 q 40 56 28 44 q 68 67 53 67 q 94 56 83 67 q 101 29 106 44 q 87 3 100 14 q 58 -8 74 -8 m 242 -8 q 216 2 226 -8 q 208 28 206 13 q 224 54 211 43 q 251 65 236 65 q 278 54 267 65 q 286 28 289 43 q 270 2 283 13 q 242 -8 257 -8 m 418 -8 q 392 2 403 -8 q 385 28 382 13 q 400 54 388 43 q 428 65 413 65 q 454 54 443 65 q 463 28 465 43 q 447 2 460 13 q 418 -8 433 -8 z "},"м":{"ha":638,"x_min":17,"x_max":621,"o":"m 17 0 l 114 688 l 168 688 l 282 71 l 571 688 l 621 688 l 524 0 l 479 0 l 557 563 l 292 0 l 250 0 l 143 563 l 63 0 l 17 0 z "},"ē":{"ha":472,"x_min":31,"x_max":465,"o":"m 189 -12 q 89 3 125 -12 q 42 60 53 19 q 40 174 31 100 l 90 533 q 153 663 104 629 q 292 697 203 697 q 430 655 394 697 q 443 510 465 613 q 389 412 431 449 q 294 355 347 375 q 190 326 240 335 q 110 313 139 317 l 89 167 q 97 55 78 86 q 192 24 117 24 q 296 55 267 24 q 336 165 325 86 l 346 242 l 396 242 l 386 169 q 356 58 376 97 q 295 3 335 19 q 189 -12 256 -12 m 115 350 q 192 363 149 354 q 276 388 235 371 q 349 436 318 406 q 392 513 381 467 q 390 625 410 585 q 294 665 371 665 q 185 635 221 665 q 140 529 150 604 l 115 350 m 176 790 l 179 821 l 424 821 l 419 790 l 176 790 z "},"—":{"ha":794,"x_min":26,"x_max":767,"o":"m 26 338 l 31 376 l 767 376 l 763 338 l 26 338 z "},"∅":{"ha":567,"x_min":7,"x_max":632,"o":"m 7 90 l 536 781 l 568 781 l 38 90 l 7 90 m 221 -17 q 127 9 167 -17 q 75 90 88 35 q 86 226 63 144 l 190 593 q 301 774 224 715 q 463 832 378 832 q 590 773 547 832 q 599 593 632 714 l 494 228 q 428 88 471 143 q 332 8 386 33 q 221 -17 278 -17 m 232 18 q 357 70 299 18 q 440 215 415 122 l 549 597 q 546 745 575 693 q 451 797 517 797 q 327 745 386 797 q 240 597 268 693 l 135 215 q 138 70 107 122 q 232 18 168 18 z "},"н":{"ha":494,"x_min":17,"x_max":478,"o":"m 17 0 l 114 688 l 164 688 l 119 383 l 385 383 l 428 688 l 478 688 l 381 0 l 331 0 l 381 343 l 115 343 l 67 0 l 17 0 z "},"–":{"ha":463,"x_min":26,"x_max":436,"o":"m 26 338 l 31 376 l 436 376 l 431 338 l 26 338 z "},"ŋ":{"ha":507,"x_min":36,"x_max":464,"o":"m 199 -154 q 181 -153 190 -154 q 167 -150 171 -151 l 169 -121 q 176 -121 171 -121 q 190 -122 182 -121 q 203 -122 197 -122 q 290 -105 257 -122 q 332 -26 324 -87 l 407 504 q 413 561 411 533 q 408 611 415 589 q 378 647 401 633 q 306 661 354 661 q 232 644 260 661 q 189 606 204 628 q 165 564 174 583 l 86 0 l 36 0 l 132 688 l 172 688 l 169 618 q 235 681 193 663 q 321 699 278 699 q 408 683 378 699 q 451 642 439 668 q 464 583 464 615 q 460 517 464 550 l 383 -21 q 350 -107 376 -78 q 285 -145 324 -136 q 199 -154 246 -154 z "},"ę":{"ha":472,"x_min":31,"x_max":465,"o":"m 189 -12 q 89 3 125 -12 q 42 60 53 19 q 40 174 31 100 l 90 533 q 153 663 104 629 q 292 697 203 697 q 430 655 394 697 q 443 510 465 613 q 389 412 431 449 q 294 355 347 375 q 190 326 240 335 q 110 313 139 317 l 89 167 q 97 55 78 86 q 192 24 117 24 q 296 55 267 24 q 336 165 325 86 l 346 242 l 396 242 l 386 169 q 356 58 376 97 q 295 3 335 19 q 189 -12 256 -12 m 115 350 q 192 363 149 354 q 276 388 235 371 q 349 436 318 406 q 392 513 381 467 q 390 625 410 585 q 294 665 371 665 q 185 635 221 665 q 140 529 150 604 l 115 350 m 200 -182 q 142 -161 165 -182 q 124 -106 119 -140 q 160 -38 131 -65 q 219 0 190 -11 l 254 0 q 192 -44 215 -18 q 164 -99 168 -71 q 176 -140 160 -126 q 210 -154 192 -154 q 234 -151 224 -154 q 250 -144 244 -147 l 257 -167 q 233 -177 247 -172 q 200 -182 218 -182 z "},"=":{"ha":561,"x_min":46,"x_max":515,"o":"m 88 533 l 93 575 l 515 575 l 510 533 l 88 533 m 46 233 l 51 275 l 474 275 l 468 233 l 46 233 z "},"р":{"ha":499,"x_min":14,"x_max":465,"o":"m 14 -161 l 132 688 l 175 688 l 171 624 q 221 676 189 654 q 319 697 253 697 q 424 672 393 697 q 460 606 456 646 q 458 519 465 565 l 410 178 q 388 86 404 129 q 333 17 372 43 q 221 -10 294 -10 q 135 6 165 -10 q 93 47 104 22 l 64 -161 l 14 -161 m 215 26 q 308 49 279 26 q 347 108 338 72 q 363 181 357 144 l 407 506 q 413 561 411 533 q 408 612 415 589 q 376 648 400 635 q 304 661 353 661 q 228 644 256 661 q 185 599 200 626 q 163 538 169 571 q 153 474 157 504 l 110 169 q 107 98 106 131 q 133 46 108 65 q 215 26 157 26 z "},"э":{"ha":496,"x_min":36,"x_max":458,"o":"m 201 -10 q 103 4 139 -10 q 53 44 68 18 q 38 106 39 69 q 42 183 36 142 l 50 239 l 100 239 l 92 182 q 90 103 88 139 q 117 44 92 67 q 206 22 142 22 q 300 45 269 22 q 342 105 331 68 q 358 179 353 142 l 379 332 l 163 332 l 167 368 l 383 368 l 404 508 q 409 564 407 536 q 403 615 411 592 q 369 651 394 638 q 296 665 344 665 q 201 644 232 665 q 157 586 169 622 q 138 506 144 550 l 131 453 l 81 453 l 89 511 q 113 606 96 564 q 174 673 131 647 q 301 699 218 699 q 397 683 363 699 q 444 640 431 667 q 458 581 458 614 q 454 513 458 549 l 408 182 q 384 87 401 131 q 325 17 367 43 q 201 -10 283 -10 z "},"с":{"ha":469,"x_min":33,"x_max":451,"o":"m 189 -12 q 109 -4 142 -12 q 58 24 76 4 q 37 81 40 44 q 40 174 33 118 l 90 533 q 149 665 104 629 q 289 701 193 701 q 418 665 385 701 q 438 533 451 629 l 426 450 l 376 450 l 388 535 q 379 636 399 604 q 283 668 360 668 q 181 636 210 668 q 142 535 151 604 l 89 163 q 99 53 79 85 q 192 22 118 22 q 295 53 267 22 q 336 163 324 85 l 347 246 l 397 246 l 389 174 q 356 60 378 100 q 293 3 333 19 q 189 -12 253 -12 z "},"ð":{"ha":486,"x_min":31,"x_max":500,"o":"m 183 -11 q 127 -7 156 -11 q 76 13 99 -3 q 42 63 53 28 q 39 160 31 97 l 89 515 q 128 630 101 593 q 194 676 156 667 q 276 686 232 686 q 351 674 314 686 q 400 631 389 663 q 409 768 410 713 q 383 853 408 824 q 290 883 358 883 q 218 876 251 883 q 161 864 185 869 l 167 899 q 223 913 189 904 q 300 921 257 921 q 428 881 393 921 q 462 763 463 842 q 443 563 461 683 l 393 217 q 376 135 389 175 q 340 63 364 96 q 278 9 317 29 q 183 -11 240 -11 m 186 22 q 274 51 243 22 q 322 122 306 79 q 343 204 338 164 l 393 567 q 385 596 394 575 q 351 635 376 617 q 275 654 326 654 q 195 635 222 654 q 157 585 168 617 q 139 511 146 553 l 88 146 q 91 76 82 101 q 117 40 100 51 q 154 25 135 28 q 186 22 174 22 m 256 751 l 240 775 l 483 961 l 500 936 l 256 751 z "},"ẽ":{"ha":472,"x_min":31,"x_max":465,"o":"m 189 -12 q 89 3 125 -12 q 42 60 53 19 q 40 174 31 100 l 90 533 q 153 663 104 629 q 292 697 203 697 q 430 655 394 697 q 443 510 465 613 q 389 412 431 449 q 294 355 347 375 q 190 326 240 335 q 110 313 139 317 l 89 167 q 97 55 78 86 q 192 24 117 24 q 296 55 267 24 q 336 165 325 86 l 346 242 l 396 242 l 386 169 q 356 58 376 97 q 295 3 335 19 q 189 -12 256 -12 m 115 350 q 192 363 149 354 q 276 388 235 371 q 349 436 318 406 q 392 513 381 467 q 390 625 410 585 q 294 665 371 665 q 185 635 221 665 q 140 529 150 604 l 115 350 m 351 771 q 324 776 335 771 q 296 796 313 782 q 274 812 286 803 q 244 821 261 821 q 215 810 228 821 q 193 772 201 799 l 165 772 q 195 830 174 807 q 249 853 217 853 q 281 844 267 853 q 310 825 296 836 q 333 810 322 815 q 357 804 343 804 q 387 815 374 804 q 408 850 400 825 l 436 850 q 406 793 428 815 q 351 771 383 771 z "},"€":{"ha":624,"x_min":53,"x_max":604,"o":"m 300 -17 q 203 -3 246 -17 q 141 50 161 10 q 133 174 121 90 l 154 331 l 53 331 l 69 358 l 158 358 l 172 456 l 71 456 l 88 483 l 176 483 l 200 650 q 242 769 211 731 q 320 819 274 807 q 421 832 367 832 q 520 819 478 832 q 583 767 563 806 q 593 650 604 729 l 588 613 l 535 613 l 542 650 q 535 747 550 715 q 490 789 521 779 q 415 799 458 799 q 339 789 374 799 q 281 747 304 779 q 247 650 258 715 l 225 483 l 443 483 l 425 456 l 222 456 l 208 358 l 371 358 l 354 331 l 203 331 l 181 167 q 186 69 172 101 q 232 28 200 38 q 306 18 264 18 q 384 28 350 18 q 441 69 418 38 q 472 167 464 101 l 485 239 l 535 239 l 525 174 q 481 49 513 89 q 404 -4 450 8 q 300 -17 358 -17 z "},"!":{"ha":217,"x_min":10,"x_max":194,"o":"m 68 269 l 90 500 l 142 875 l 194 875 l 140 501 l 97 269 l 68 269 m 46 -7 q 19 4 29 -7 q 11 32 10 15 q 27 57 15 46 q 57 68 39 68 q 84 57 72 68 q 92 32 96 46 q 76 4 90 15 q 46 -7 63 -7 z "},"¡":{"ha":217,"x_min":26,"x_max":203,"o":"m 113 414 l 140 414 l 124 183 l 79 -192 l 26 -192 l 74 185 l 113 414 m 163 692 q 191 681 179 692 q 200 653 203 669 q 185 628 199 639 q 156 617 171 617 q 128 628 139 617 q 119 653 118 639 q 135 681 122 669 q 163 692 147 692 z "},"f":{"ha":303,"x_min":38,"x_max":378,"o":"m 38 0 l 126 626 l 83 626 l 88 661 l 131 661 l 143 754 q 167 826 150 797 q 210 868 183 854 q 274 882 238 882 q 313 881 293 882 q 351 879 333 881 q 378 876 368 878 l 374 843 q 342 847 374 843 q 276 850 311 850 q 217 817 236 850 q 192 750 197 785 l 179 661 l 347 661 l 343 626 l 175 626 l 86 0 l 38 0 z "},"ﬁ":{"ha":511,"x_min":38,"x_max":511,"o":"m 38 0 l 126 626 l 83 626 l 88 661 l 131 661 l 143 754 q 167 826 150 797 q 210 868 183 854 q 274 882 238 882 q 313 881 293 882 q 351 879 333 881 q 378 876 368 878 l 374 843 q 342 847 374 843 q 276 850 311 850 q 217 817 236 850 q 192 750 197 785 l 179 661 l 347 661 l 343 626 l 175 626 l 86 0 l 38 0 m 329 0 l 426 688 l 476 688 l 379 0 l 329 0 m 474 776 q 448 788 458 776 q 436 813 438 799 q 447 838 436 828 q 474 849 458 849 q 501 838 490 849 q 511 813 511 828 q 501 788 513 799 q 474 776 489 776 z "},"ﬂ":{"ha":519,"x_min":38,"x_max":513,"o":"m 38 0 l 126 626 l 83 626 l 88 661 l 131 661 l 143 754 q 167 826 150 797 q 210 868 183 854 q 274 882 238 882 q 313 881 293 882 q 351 879 333 881 q 378 876 368 878 l 374 843 q 342 847 374 843 q 276 850 311 850 q 217 817 236 850 q 192 750 197 785 l 179 661 l 347 661 l 343 626 l 175 626 l 86 0 l 38 0 m 339 0 l 463 882 l 511 882 l 388 0 l 339 0 z "},"ƒ":{"ha":406,"x_min":-212,"x_max":463,"o":"m -117 -204 q -155 -203 -135 -204 q -191 -200 -175 -201 q -212 -199 -207 -199 l -204 -164 l -117 -169 q -60 -154 -82 -169 q -24 -114 -37 -139 q -3 -61 -11 -89 l 163 567 l 96 567 l 104 599 l 171 599 l 210 743 q 262 840 228 807 q 353 874 296 874 q 383 874 367 874 q 413 873 399 874 q 440 871 428 872 q 463 868 453 869 l 453 835 q 417 839 443 838 q 360 840 392 840 q 290 808 313 840 q 257 739 268 775 l 217 599 l 371 599 l 364 567 l 211 567 l 44 -69 q -11 -169 28 -133 q -117 -204 -50 -204 z "},"⁴":{"ha":322,"x_min":18,"x_max":310,"o":"m 197 328 l 211 429 l 18 429 l 24 461 l 272 821 l 307 821 l 257 458 l 310 458 l 304 429 l 251 429 l 238 328 l 197 328 m 61 458 l 215 458 l 253 733 l 61 458 z "},"⁄":{"ha":417,"x_min":-150,"x_max":454,"o":"m -150 0 l 410 814 l 454 814 l -108 0 l -150 0 z "},"₣":{"ha":526,"x_min":38,"x_max":531,"o":"m 72 0 l 103 218 l 38 218 l 40 247 l 108 247 l 189 821 l 531 821 l 525 783 l 235 783 l 188 451 l 413 451 l 408 411 l 182 411 l 160 247 l 297 247 l 293 218 l 156 218 l 124 0 l 72 0 z "},"g":{"ha":483,"x_min":36,"x_max":460,"o":"m 149 -161 q 118 -160 136 -161 q 84 -157 100 -158 q 56 -154 68 -156 q 40 -151 44 -153 l 44 -118 q 89 -124 61 -119 q 142 -128 117 -128 q 185 -126 158 -128 q 239 -110 211 -124 q 289 -63 267 -96 q 319 31 311 -31 l 332 124 q 296 72 318 93 q 244 40 274 50 q 176 29 214 29 q 128 33 154 29 q 79 51 101 36 q 47 101 57 67 q 44 197 36 136 l 90 531 q 126 639 101 604 q 187 685 150 674 q 269 697 224 697 q 327 691 299 697 q 377 671 356 685 q 403 629 399 657 l 418 683 l 460 683 l 369 36 q 340 -58 361 -19 q 290 -119 319 -96 q 224 -151 260 -142 q 149 -161 188 -161 m 193 65 q 280 93 249 65 q 327 163 311 121 q 349 247 343 206 l 396 582 q 381 617 392 599 q 345 650 369 636 q 276 664 321 664 q 183 635 214 664 q 140 528 151 606 l 94 189 q 97 119 88 144 q 124 82 107 93 q 160 68 142 71 q 193 65 179 65 z "},"ğ":{"ha":483,"x_min":36,"x_max":460,"o":"m 149 -161 q 118 -160 136 -161 q 84 -157 100 -158 q 56 -154 68 -156 q 40 -151 44 -153 l 44 -118 q 89 -124 61 -119 q 142 -128 117 -128 q 185 -126 158 -128 q 239 -110 211 -124 q 289 -63 267 -96 q 319 31 311 -31 l 332 124 q 296 72 318 93 q 244 40 274 50 q 176 29 214 29 q 128 33 154 29 q 79 51 101 36 q 47 101 57 67 q 44 197 36 136 l 90 531 q 126 639 101 604 q 187 685 150 674 q 269 697 224 697 q 327 691 299 697 q 377 671 356 685 q 403 629 399 657 l 418 683 l 460 683 l 369 36 q 340 -58 361 -19 q 290 -119 319 -96 q 224 -151 260 -142 q 149 -161 188 -161 m 193 65 q 280 93 249 65 q 327 163 311 121 q 349 247 343 206 l 396 582 q 381 617 392 599 q 345 650 369 636 q 276 664 321 664 q 183 635 214 664 q 140 528 151 606 l 94 189 q 97 119 88 144 q 124 82 107 93 q 160 68 142 71 q 193 65 179 65 m 297 756 q 240 767 263 756 q 206 796 217 778 q 190 834 194 814 q 188 871 186 854 l 222 871 q 245 807 224 828 q 303 786 267 786 q 370 806 342 786 q 408 871 399 826 l 443 871 q 420 820 438 847 q 374 774 403 793 q 297 756 344 756 z "},"ģ":{"ha":483,"x_min":36,"x_max":460,"o":"m 365 910 q 331 857 343 879 q 319 825 319 835 q 324 814 319 819 q 333 802 329 808 q 336 785 338 796 q 327 766 336 775 q 304 757 318 757 q 282 766 290 757 q 274 786 274 775 q 285 823 274 801 q 311 868 296 844 q 342 910 326 892 l 365 910 m 149 -161 q 118 -160 136 -161 q 84 -157 100 -158 q 56 -154 68 -156 q 40 -151 44 -153 l 44 -118 q 89 -124 61 -119 q 142 -128 117 -128 q 185 -126 158 -128 q 239 -110 211 -124 q 289 -63 267 -96 q 319 31 311 -31 l 332 124 q 296 72 318 93 q 244 40 274 50 q 176 29 214 29 q 128 33 154 29 q 79 51 101 36 q 47 101 57 67 q 44 197 36 136 l 90 531 q 126 639 101 604 q 187 685 150 674 q 269 697 224 697 q 327 691 299 697 q 377 671 356 685 q 403 629 399 657 l 418 683 l 460 683 l 369 36 q 340 -58 361 -19 q 290 -119 319 -96 q 224 -151 260 -142 q 149 -161 188 -161 m 193 65 q 280 93 249 65 q 327 163 311 121 q 349 247 343 206 l 396 582 q 381 617 392 599 q 345 650 369 636 q 276 664 321 664 q 183 635 214 664 q 140 528 151 606 l 94 189 q 97 119 88 144 q 124 82 107 93 q 160 68 142 71 q 193 65 179 65 z "},"ġ":{"ha":483,"x_min":36,"x_max":460,"o":"m 149 -161 q 118 -160 136 -161 q 84 -157 100 -158 q 56 -154 68 -156 q 40 -151 44 -153 l 44 -118 q 89 -124 61 -119 q 142 -128 117 -128 q 185 -126 158 -128 q 239 -110 211 -124 q 289 -63 267 -96 q 319 31 311 -31 l 332 124 q 296 72 318 93 q 244 40 274 50 q 176 29 214 29 q 128 33 154 29 q 79 51 101 36 q 47 101 57 67 q 44 197 36 136 l 90 531 q 126 639 101 604 q 187 685 150 674 q 269 697 224 697 q 327 691 299 697 q 377 671 356 685 q 403 629 399 657 l 418 683 l 460 683 l 369 36 q 340 -58 361 -19 q 290 -119 319 -96 q 224 -151 260 -142 q 149 -161 188 -161 m 193 65 q 280 93 249 65 q 327 163 311 121 q 349 247 343 206 l 396 582 q 381 617 392 599 q 345 650 369 636 q 276 664 321 664 q 183 635 214 664 q 140 528 151 606 l 94 189 q 97 119 88 144 q 124 82 107 93 q 160 68 142 71 q 193 65 179 65 m 307 776 q 281 788 292 776 q 269 813 271 799 q 281 838 269 828 q 307 849 292 849 q 334 838 324 849 q 344 813 344 828 q 334 788 346 799 q 307 776 322 776 z "},"г":{"ha":394,"x_min":35,"x_max":438,"o":"m 35 0 l 132 688 l 438 688 l 431 649 l 178 649 l 88 0 l 35 0 z "},"ß":{"ha":501,"x_min":-125,"x_max":517,"o":"m -56 -204 q -92 -202 -71 -204 q -125 -199 -114 -200 q -124 -192 -125 -196 q -123 -183 -124 -187 q -122 -174 -122 -178 q -121 -167 -121 -169 l -101 -169 q -85 -172 -94 -171 q -61 -172 -75 -172 q 11 -143 -10 -172 q 38 -74 32 -114 l 139 647 l 94 647 l 100 688 l 146 688 l 150 725 q 176 811 158 778 q 235 860 194 844 q 349 876 275 876 q 476 847 435 876 q 506 740 517 817 l 488 608 q 451 514 479 550 q 393 475 422 478 l 392 469 q 433 451 414 467 q 463 408 453 436 q 467 339 474 381 l 443 168 q 407 60 433 96 q 341 12 381 24 q 250 0 301 0 l 144 0 l 150 33 l 251 33 q 318 44 289 33 q 367 88 347 56 q 394 183 386 119 l 415 332 q 407 406 422 379 q 362 444 392 433 q 293 454 332 454 l 235 454 l 239 488 l 314 488 q 405 522 379 488 q 440 617 431 557 l 457 732 q 437 817 464 789 q 343 844 410 844 q 258 826 288 844 q 217 782 228 808 q 201 729 206 756 l 89 -65 q 73 -126 85 -100 q 43 -170 61 -153 q 0 -196 25 -187 q -56 -204 -25 -204 z "},"ѓ":{"ha":394,"x_min":35,"x_max":438,"o":"m 35 0 l 132 688 l 438 688 l 431 649 l 178 649 l 88 0 l 35 0 m 258 757 l 344 879 l 404 879 l 290 757 l 258 757 z "},"`":{"ha":138,"x_min":75,"x_max":196,"o":"m 164 757 l 75 879 l 135 879 l 196 757 l 164 757 z "},"̀":{"ha":0,"x_min":75,"x_max":196,"o":"m 164 757 l 75 879 l 135 879 l 196 757 l 164 757 z "},">":{"ha":486,"x_min":44,"x_max":411,"o":"m 44 210 l 51 268 l 357 454 l 106 642 l 113 699 l 411 476 l 403 432 l 44 210 z "},"≥":{"ha":492,"x_min":32,"x_max":456,"o":"m 57 214 l 68 258 l 413 453 l 178 650 l 189 693 l 456 472 l 444 435 l 57 214 m 32 -1 l 40 28 l 356 28 l 349 -1 l 32 -1 z "},"«":{"ha":624,"x_min":64,"x_max":593,"o":"m 453 156 l 319 396 l 538 657 l 593 657 l 376 396 l 508 156 l 453 156 m 199 156 l 64 396 l 283 657 l 338 657 l 122 396 l 253 156 l 199 156 z "},"»":{"ha":624,"x_min":44,"x_max":556,"o":"m 300 156 l 499 396 l 356 657 l 410 657 l 556 396 l 354 156 l 300 156 m 44 156 l 244 396 l 101 657 l 156 657 l 301 396 l 100 156 l 44 156 z "},"‹":{"ha":367,"x_min":64,"x_max":336,"o":"m 199 156 l 64 396 l 282 657 l 336 657 l 122 396 l 253 156 l 199 156 z "},"›":{"ha":367,"x_min":43,"x_max":300,"o":"m 43 156 l 243 396 l 101 657 l 156 657 l 300 396 l 99 156 l 43 156 z "},"h":{"ha":507,"x_min":36,"x_max":465,"o":"m 36 0 l 158 875 l 207 875 l 174 638 q 231 683 196 667 q 321 699 267 699 q 408 683 378 699 q 452 641 439 667 q 465 583 465 615 q 460 517 464 551 l 388 0 l 338 0 l 408 503 q 413 553 411 526 q 408 604 415 581 q 377 643 400 628 q 306 658 354 658 q 231 644 260 658 q 187 610 201 629 q 168 576 172 592 l 86 0 l 36 0 z "},"х":{"ha":407,"x_min":-33,"x_max":432,"o":"m -33 0 q 8 110 -21 53 q 70 222 36 168 q 136 314 104 275 q 186 367 168 353 q 144 420 165 383 q 109 505 124 457 q 87 601 94 553 q 83 688 79 650 l 129 688 q 138 579 126 638 q 171 474 150 521 q 217 406 192 426 q 259 447 233 414 q 311 524 285 481 q 358 613 338 568 q 385 688 378 657 l 432 688 q 396 592 421 643 q 341 492 371 540 q 283 410 311 444 q 240 367 256 376 q 276 321 257 357 q 315 232 296 285 q 344 119 333 179 q 354 0 356 58 l 304 0 q 297 94 306 44 q 272 191 288 144 q 240 272 257 238 q 208 318 224 306 q 156 263 192 306 q 81 152 119 219 q 15 0 42 85 l -33 0 z "},"ъ":{"ha":524,"x_min":49,"x_max":467,"o":"m 53 0 l 144 651 l 49 651 l 56 688 l 201 688 l 171 471 l 315 471 q 415 451 381 471 q 458 391 449 431 q 458 292 467 351 l 446 199 q 425 110 439 147 q 388 48 411 72 q 330 12 364 24 q 247 0 296 0 l 53 0 m 107 33 l 244 33 q 330 54 300 33 q 374 111 360 75 q 396 192 389 147 l 407 279 q 411 356 414 319 q 385 414 408 392 q 301 436 361 436 l 167 436 l 107 33 z "},"ħ":{"ha":486,"x_min":36,"x_max":465,"o":"m 46 771 l 50 804 l 274 804 l 269 771 l 46 771 m 36 0 l 158 875 l 207 875 l 174 638 q 231 683 196 667 q 321 699 267 699 q 408 683 378 699 q 452 641 439 667 q 465 583 465 615 q 460 517 464 551 l 388 0 l 338 0 l 408 503 q 413 553 411 526 q 408 604 415 581 q 377 643 400 628 q 306 658 354 658 q 231 644 260 658 q 187 610 201 629 q 168 576 172 592 l 86 0 l 36 0 z "},"̉":{"ha":0,"x_min":76,"x_max":224,"o":"m 118 750 l 122 776 q 141 803 125 796 q 173 817 157 810 q 189 847 189 825 l 189 853 q 183 885 189 869 q 151 900 176 900 q 107 865 118 900 l 76 872 q 106 912 86 897 q 158 926 125 926 q 210 906 197 926 q 222 851 224 886 l 222 847 q 212 810 222 822 q 187 793 201 799 q 162 783 172 788 q 151 768 151 779 l 149 750 l 118 750 z "},"̛":{"ha":0,"x_min":47,"x_max":182,"o":"m 49 647 l 47 678 l 61 678 q 139 739 131 678 l 142 760 l 182 760 l 181 746 q 138 672 174 699 q 49 647 103 646 z "},"˝":{"ha":181,"x_min":58,"x_max":257,"o":"m 58 757 l 119 879 l 172 879 l 85 757 l 58 757 m 140 757 l 204 879 l 257 879 l 168 757 l 140 757 z "},"̋":{"ha":0,"x_min":58,"x_max":257,"o":"m 58 757 l 119 879 l 172 879 l 85 757 l 58 757 m 140 757 l 204 879 l 257 879 l 168 757 l 140 757 z "},"-":{"ha":411,"x_min":64,"x_max":347,"o":"m 64 338 l 69 376 l 347 376 l 343 338 l 64 338 z "},"i":{"ha":217,"x_min":35,"x_max":217,"o":"m 35 0 l 132 688 l 182 688 l 85 0 l 35 0 m 178 776 q 152 788 163 776 q 140 813 142 799 q 151 838 140 828 q 178 849 163 849 q 205 838 194 849 q 215 813 215 828 q 205 788 217 799 q 178 776 193 776 z "},"і":{"ha":217,"x_min":35,"x_max":217,"o":"m 35 0 l 132 688 l 182 688 l 85 0 l 35 0 m 178 776 q 152 788 163 776 q 140 813 142 799 q 151 838 140 828 q 178 849 163 849 q 205 838 194 849 q 215 813 215 828 q 205 788 217 799 q 178 776 193 776 z "},"я":{"ha":522,"x_min":14,"x_max":504,"o":"m 14 0 l 139 246 q 181 309 157 283 q 233 338 204 335 q 134 380 165 340 q 113 497 103 419 l 119 544 q 179 656 131 624 q 293 688 228 688 l 504 688 l 407 0 l 354 0 l 401 331 l 292 326 q 227 288 254 321 q 172 203 200 254 l 72 0 l 14 0 m 285 361 l 406 361 l 446 653 l 288 653 q 213 626 247 653 q 169 546 178 600 l 163 496 q 187 392 154 424 q 285 361 219 361 z "},"í":{"ha":217,"x_min":35,"x_max":274,"o":"m 35 0 l 132 688 l 182 688 l 85 0 l 35 0 m 128 757 l 214 879 l 274 879 l 160 757 l 128 757 z "},"ǐ":{"ha":217,"x_min":35,"x_max":336,"o":"m 35 0 l 132 688 l 182 688 l 85 0 l 35 0 m 157 760 l 54 878 l 94 878 l 183 789 l 299 878 l 336 878 l 200 760 l 157 760 z "},"î":{"ha":217,"x_min":31,"x_max":313,"o":"m 35 0 l 132 688 l 182 688 l 85 0 l 35 0 m 31 760 l 168 878 l 210 878 l 313 760 l 275 760 l 183 849 l 69 760 l 31 760 z "},"ï":{"ha":217,"x_min":35,"x_max":272,"o":"m 35 0 l 132 688 l 182 688 l 85 0 l 35 0 m 118 778 q 92 788 103 778 q 82 813 82 799 q 92 836 82 826 q 118 846 103 846 q 142 836 132 846 q 153 813 153 826 q 142 788 153 799 q 118 778 132 778 m 236 778 q 212 788 222 778 q 201 813 201 799 q 212 836 201 826 q 236 846 222 846 q 261 836 251 846 q 271 813 271 826 q 261 788 271 799 q 236 778 251 778 z "},"ị":{"ha":217,"x_min":15,"x_max":217,"o":"m 35 0 l 132 688 l 182 688 l 85 0 l 35 0 m 178 776 q 152 788 163 776 q 140 813 142 799 q 151 838 140 828 q 178 849 163 849 q 205 838 194 849 q 215 813 215 828 q 205 788 217 799 q 178 776 193 776 m 50 -135 q 26 -124 36 -135 q 15 -100 15 -114 q 26 -76 15 -85 q 50 -67 36 -67 q 75 -76 65 -67 q 85 -100 85 -85 q 75 -124 85 -114 q 50 -135 65 -135 z "},"ı":{"ha":217,"x_min":35,"x_max":182,"o":"m 35 0 l 132 688 l 182 688 l 85 0 l 35 0 z "},"е":{"ha":472,"x_min":31,"x_max":465,"o":"m 189 -12 q 89 3 125 -12 q 42 60 53 19 q 40 174 31 100 l 90 533 q 153 663 104 629 q 292 697 203 697 q 430 655 394 697 q 443 510 465 613 q 389 412 431 449 q 294 355 347 375 q 190 326 240 335 q 110 313 139 317 l 89 167 q 97 55 78 86 q 192 24 117 24 q 296 55 267 24 q 336 165 325 86 l 346 242 l 396 242 l 386 169 q 356 58 376 97 q 295 3 335 19 q 189 -12 256 -12 m 115 350 q 192 363 149 354 q 276 388 235 371 q 349 436 318 406 q 392 513 381 467 q 390 625 410 585 q 294 665 371 665 q 185 635 221 665 q 140 529 150 604 l 115 350 z "},"ѐ":{"ha":472,"x_min":31,"x_max":465,"o":"m 189 -12 q 89 3 125 -12 q 42 60 53 19 q 40 174 31 100 l 90 533 q 153 663 104 629 q 292 697 203 697 q 430 655 394 697 q 443 510 465 613 q 389 412 431 449 q 294 355 347 375 q 190 326 240 335 q 110 313 139 317 l 89 167 q 97 55 78 86 q 192 24 117 24 q 296 55 267 24 q 336 165 325 86 l 346 242 l 396 242 l 386 169 q 356 58 376 97 q 295 3 335 19 q 189 -12 256 -12 m 115 350 q 192 363 149 354 q 276 388 235 371 q 349 436 318 406 q 392 513 381 467 q 390 625 410 585 q 294 665 371 665 q 185 635 221 665 q 140 529 150 604 l 115 350 m 299 757 l 210 879 l 269 879 l 331 757 l 299 757 z "},"ì":{"ha":217,"x_min":35,"x_max":207,"o":"m 35 0 l 132 688 l 182 688 l 85 0 l 35 0 m 176 757 l 88 879 l 147 879 l 208 757 l 176 757 z "},"ỉ":{"ha":217,"x_min":35,"x_max":256,"o":"m 35 0 l 132 688 l 182 688 l 85 0 l 35 0 m 150 750 l 154 776 q 173 803 157 796 q 205 817 189 810 q 221 847 221 825 l 221 853 q 215 885 221 869 q 183 900 208 900 q 139 865 150 900 l 108 872 q 138 912 118 897 q 190 926 157 926 q 242 906 229 926 q 254 851 256 886 l 254 847 q 244 810 254 822 q 219 793 233 799 q 194 783 204 788 q 183 768 183 779 l 181 750 l 150 750 z "},"и":{"ha":529,"x_min":35,"x_max":494,"o":"m 35 0 l 132 686 l 181 686 l 97 94 l 446 686 l 494 686 l 397 0 l 350 0 l 435 600 q 259 301 346 450 q 82 0 172 151 l 35 0 z "},"ѝ":{"ha":529,"x_min":35,"x_max":494,"o":"m 35 0 l 132 686 l 181 686 l 97 94 l 446 686 l 494 686 l 397 0 l 350 0 l 435 600 q 259 301 346 450 q 82 0 172 151 l 35 0 m 328 757 l 239 879 l 299 879 l 360 757 l 328 757 z "},"й":{"ha":529,"x_min":35,"x_max":494,"o":"m 35 0 l 132 686 l 181 686 l 97 94 l 446 686 l 494 686 l 397 0 l 350 0 l 435 600 q 259 301 346 450 q 82 0 172 151 l 35 0 m 321 756 q 263 767 286 756 q 229 796 240 778 q 214 834 218 814 q 211 871 210 854 l 246 871 q 269 807 247 828 q 326 786 290 786 q 394 806 365 786 q 432 871 422 826 l 467 871 q 444 820 461 847 q 397 774 426 793 q 321 756 368 756 z "},"ī":{"ha":217,"x_min":35,"x_max":300,"o":"m 35 0 l 132 688 l 182 688 l 85 0 l 35 0 m 53 790 l 56 821 l 300 821 l 296 790 l 53 790 z "},"∞":{"ha":996,"x_min":50,"x_max":943,"o":"m 203 140 q 88 188 125 140 q 64 335 50 236 q 124 475 78 421 q 258 529 169 529 q 340 514 306 529 q 410 462 374 499 q 503 361 447 425 q 623 463 576 426 q 708 515 669 500 q 793 529 747 529 q 911 475 879 529 q 932 335 943 421 q 873 194 919 249 q 739 140 826 140 q 658 156 693 140 q 586 210 624 172 q 494 310 549 247 q 373 208 421 246 q 287 156 325 171 q 203 140 249 140 m 208 179 q 324 219 267 179 q 465 338 382 258 q 403 405 435 369 q 337 465 372 440 q 253 489 301 489 q 151 444 188 489 q 106 333 114 399 q 119 225 96 271 q 208 179 143 179 m 743 181 q 843 223 804 181 q 890 336 882 265 q 876 444 900 399 q 788 490 851 490 q 737 484 758 490 q 690 461 715 478 q 626 414 664 444 q 531 335 589 383 q 612 245 579 279 q 674 196 644 211 q 743 181 704 181 z "},"∫":{"ha":531,"x_min":-207,"x_max":581,"o":"m -111 -401 q -158 -399 -133 -400 q -207 -394 -183 -397 l -196 -358 l -106 -364 q -32 -332 -60 -364 q 6 -267 -4 -300 l 325 749 q 360 822 339 793 q 412 863 381 850 q 485 876 443 876 q 534 874 508 875 q 581 869 560 872 l 571 833 l 481 839 q 407 806 432 838 q 371 739 382 774 l 50 -276 q 15 -347 36 -318 q -37 -388 -7 -375 q -111 -401 -68 -401 z "},"ё":{"ha":472,"x_min":31,"x_max":465,"o":"m 189 -12 q 89 3 125 -12 q 42 60 53 19 q 40 174 31 100 l 90 533 q 153 663 104 629 q 292 697 203 697 q 430 655 394 697 q 443 510 465 613 q 389 412 431 449 q 294 355 347 375 q 190 326 240 335 q 110 313 139 317 l 89 167 q 97 55 78 86 q 192 24 117 24 q 296 55 267 24 q 336 165 325 86 l 346 242 l 396 242 l 386 169 q 356 58 376 97 q 295 3 335 19 q 189 -12 256 -12 m 115 350 q 192 363 149 354 q 276 388 235 371 q 349 436 318 406 q 392 513 381 467 q 390 625 410 585 q 294 665 371 665 q 185 635 221 665 q 140 529 150 604 l 115 350 m 242 778 q 216 788 226 778 q 206 813 206 799 q 216 836 206 826 q 242 846 226 846 q 266 836 256 846 q 276 813 276 826 q 266 788 276 799 q 242 778 256 778 m 360 778 q 335 788 346 778 q 325 813 325 799 q 335 836 325 826 q 360 846 346 846 q 385 836 375 846 q 394 813 394 826 q 385 788 394 799 q 360 778 375 778 z "},"į":{"ha":217,"x_min":-47,"x_max":217,"o":"m 35 0 l 132 688 l 182 688 l 85 0 l 35 0 m 178 776 q 152 788 163 776 q 140 813 142 799 q 151 838 140 828 q 178 849 163 849 q 205 838 194 849 q 215 813 215 828 q 205 788 217 799 q 178 776 193 776 m 33 -182 q -24 -161 -1 -182 q -43 -106 -47 -140 q -6 -38 -36 -65 q 53 0 24 -11 l 88 0 q 25 -44 49 -18 q -3 -99 1 -71 q 9 -140 -7 -126 q 43 -154 25 -154 q 67 -151 57 -154 q 83 -144 78 -147 l 90 -167 q 66 -177 81 -172 q 33 -182 51 -182 z "},"ĩ":{"ha":217,"x_min":35,"x_max":314,"o":"m 35 0 l 132 688 l 182 688 l 85 0 l 35 0 m 229 771 q 201 776 213 771 q 174 796 190 782 q 151 812 164 803 q 122 821 139 821 q 92 810 106 821 q 71 772 79 799 l 43 772 q 73 830 51 807 q 126 853 94 853 q 159 844 144 853 q 188 825 174 836 q 210 810 200 815 q 235 804 221 804 q 265 815 251 804 q 286 850 278 825 l 314 850 q 283 793 306 815 q 229 771 261 771 z "},"ю":{"ha":796,"x_min":17,"x_max":758,"o":"m 506 -10 q 414 6 447 -10 q 367 47 381 21 q 353 106 354 72 q 358 179 353 140 l 406 517 q 428 605 413 564 q 485 672 444 646 q 606 699 526 699 q 697 683 664 699 q 744 642 731 668 q 758 584 758 617 q 754 517 758 551 l 708 179 q 683 85 700 128 q 625 16 665 42 q 506 -10 585 -10 m 17 0 l 114 688 l 164 688 l 119 383 l 396 383 l 392 343 l 115 343 l 67 0 l 17 0 m 510 22 q 598 44 568 22 q 640 103 628 67 q 658 176 653 139 l 704 514 q 708 586 710 551 q 683 643 706 621 q 601 665 661 665 q 514 643 543 665 q 473 586 485 621 q 456 514 461 551 l 407 176 q 403 103 401 139 q 428 44 404 67 q 510 22 451 22 z "},"j":{"ha":186,"x_min":-154,"x_max":197,"o":"m -124 -153 q -140 -152 -131 -153 q -154 -150 -150 -151 l -149 -119 q -137 -122 -147 -121 q -117 -122 -126 -122 q -26 -103 -61 -122 q 17 -25 8 -85 l 117 688 l 165 688 l 65 -21 q 30 -108 57 -79 q -37 -145 3 -136 q -124 -153 -76 -154 m 158 776 q 133 788 143 776 q 121 813 122 799 q 132 838 121 828 q 158 849 143 849 q 185 838 175 849 q 196 813 196 828 q 185 788 197 799 q 158 776 174 776 z "},"ȷ":{"ha":186,"x_min":-154,"x_max":165,"o":"m -124 -153 q -140 -152 -131 -153 q -154 -150 -150 -151 l -149 -119 q -137 -122 -147 -121 q -117 -122 -126 -122 q -26 -103 -61 -122 q 17 -25 8 -85 l 117 688 l 165 688 l 65 -21 q 30 -108 57 -79 q -37 -145 3 -136 q -124 -153 -76 -154 z "},"ј":{"ha":186,"x_min":-154,"x_max":197,"o":"m -124 -153 q -140 -152 -131 -153 q -154 -150 -150 -151 l -149 -119 q -137 -122 -147 -121 q -117 -122 -126 -122 q -26 -103 -61 -122 q 17 -25 8 -85 l 117 688 l 165 688 l 65 -21 q 30 -108 57 -79 q -37 -145 3 -136 q -124 -153 -76 -154 m 158 776 q 133 788 143 776 q 121 813 122 799 q 132 838 121 828 q 158 849 143 849 q 185 838 175 849 q 196 813 196 828 q 185 788 197 799 q 158 776 174 776 z "},"k":{"ha":436,"x_min":36,"x_max":457,"o":"m 36 0 l 160 882 l 208 882 l 85 0 l 36 0 m 310 0 l 171 400 l 406 688 l 457 688 l 222 400 l 364 0 l 310 0 z "},"к":{"ha":457,"x_min":35,"x_max":476,"o":"m 35 0 l 132 688 l 183 688 l 136 354 q 251 513 188 444 q 375 621 315 581 q 476 664 435 661 l 472 626 q 397 591 433 615 q 328 533 360 567 q 282 485 303 511 q 240 432 261 460 l 379 0 l 322 0 l 194 381 q 153 322 174 353 q 125 275 133 290 l 86 0 l 35 0 z "},"ķ":{"ha":436,"x_min":36,"x_max":457,"o":"m 36 0 l 160 882 l 208 882 l 85 0 l 36 0 m 310 0 l 171 400 l 406 688 l 457 688 l 222 400 l 364 0 l 310 0 m 129 -194 q 163 -142 151 -164 q 175 -110 175 -121 q 171 -98 175 -103 q 162 -87 167 -93 q 158 -71 157 -81 q 167 -51 158 -61 q 190 -42 176 -42 q 213 -50 204 -42 q 221 -71 221 -58 q 210 -108 221 -86 q 184 -152 199 -129 q 153 -194 169 -175 l 129 -194 z "},"ќ":{"ha":457,"x_min":35,"x_max":476,"o":"m 35 0 l 132 688 l 183 688 l 136 354 q 251 513 188 444 q 375 621 315 581 q 476 664 435 661 l 472 626 q 397 591 433 615 q 328 533 360 567 q 282 485 303 511 q 240 432 261 460 l 379 0 l 322 0 l 194 381 q 153 322 174 353 q 125 275 133 290 l 86 0 l 35 0 m 282 757 l 368 879 l 428 879 l 314 757 l 282 757 z "},"l":{"ha":217,"x_min":36,"x_max":208,"o":"m 36 0 l 160 882 l 208 882 l 85 0 l 36 0 z "},"ĺ":{"ha":217,"x_min":36,"x_max":304,"o":"m 36 0 l 160 882 l 208 882 l 85 0 l 36 0 m 118 933 l 244 1042 l 304 1042 l 157 933 l 118 933 z "},"ľ":{"ha":231,"x_min":36,"x_max":324,"o":"m 36 0 l 160 882 l 208 882 l 85 0 l 36 0 m 239 725 l 285 893 l 324 893 l 264 725 l 239 725 z "},"ļ":{"ha":217,"x_min":-12,"x_max":208,"o":"m 36 0 l 160 882 l 208 882 l 85 0 l 36 0 m -11 -194 q 23 -142 11 -164 q 35 -110 35 -121 q 31 -98 35 -103 q 22 -87 26 -93 q 18 -71 17 -81 q 27 -51 18 -61 q 50 -42 36 -42 q 72 -50 64 -42 q 81 -71 81 -58 q 69 -108 81 -86 q 44 -152 58 -129 q 13 -194 29 -175 l -11 -194 z "},"←":{"ha":1117,"x_min":65,"x_max":1047,"o":"m 364 113 l 65 397 l 364 686 l 390 661 l 146 419 l 1047 419 l 1047 378 l 147 381 l 389 139 l 364 113 z "},"↔":{"ha":1329,"x_min":65,"x_max":1263,"o":"m 368 74 l 65 360 l 368 647 l 393 621 l 151 379 l 1176 379 l 935 621 l 963 647 l 1263 360 l 963 74 l 935 97 l 1178 339 l 151 339 l 393 97 l 368 74 z "},"<":{"ha":486,"x_min":75,"x_max":442,"o":"m 372 210 l 75 432 l 82 476 l 442 699 l 433 642 l 128 453 l 381 267 l 372 210 z "},"≤":{"ha":463,"x_min":32,"x_max":436,"o":"m 367 210 l 71 432 l 76 476 l 436 699 l 429 642 l 124 454 l 375 268 l 367 210 m 350 -1 l 32 -1 l 35 38 l 351 38 l 350 -1 z "},"љ":{"ha":818,"x_min":-22,"x_max":761,"o":"m -22 0 l -17 33 q 17 43 3 33 q 44 76 32 53 q 64 136 56 100 l 188 686 l 496 686 l 465 471 l 610 471 q 713 449 681 471 q 753 386 746 426 q 753 292 761 346 l 744 229 q 725 133 738 176 q 690 61 713 90 q 633 16 668 32 q 542 0 597 0 l 347 0 l 439 647 l 232 647 l 111 119 q 100 84 107 104 q 81 44 93 64 q 48 13 68 25 q 0 0 28 0 l -22 0 m 404 33 l 540 33 q 626 54 597 33 q 670 111 656 75 q 689 192 685 147 l 703 279 q 706 356 708 319 q 679 414 703 392 q 594 436 656 436 l 461 436 l 404 33 z "},"¬":{"ha":774,"x_min":81,"x_max":728,"o":"m 649 276 l 682 521 l 81 521 l 88 561 l 728 561 l 688 276 l 649 276 z "},"ſ":{"ha":308,"x_min":-132,"x_max":433,"o":"m -32 -204 q -87 -203 -60 -204 q -132 -197 -115 -201 l -128 -162 l -94 -167 q -63 -168 -79 -168 q -31 -168 -47 -168 q 27 -135 8 -165 q 51 -71 46 -104 l 143 575 l 99 575 l 103 611 l 147 611 l 168 754 q 192 826 175 797 q 238 868 208 854 q 304 882 267 882 q 372 878 342 882 q 433 867 403 874 l 422 833 q 367 843 394 839 q 301 847 339 847 q 241 814 261 847 q 215 746 221 781 l 101 -64 q 78 -140 96 -110 q 33 -187 61 -171 q -32 -204 6 -203 z "},"◊":{"ha":649,"x_min":65,"x_max":582,"o":"m 299 -49 l 65 406 l 299 858 l 349 858 l 582 406 l 349 -49 l 299 -49 m 325 4 l 525 407 l 325 801 l 122 407 l 325 4 z "},"ł":{"ha":381,"x_min":32,"x_max":304,"o":"m 101 0 l 138 251 l 32 206 l 35 242 l 143 286 l 226 882 l 274 882 l 193 310 l 304 356 l 299 321 l 189 274 l 150 0 l 101 0 z "},"m":{"ha":788,"x_min":36,"x_max":754,"o":"m 36 0 l 132 688 l 174 688 l 169 618 q 233 676 189 656 q 318 697 278 697 q 419 676 388 697 q 454 606 451 654 q 519 672 479 646 q 613 697 560 697 q 731 655 707 697 q 742 515 754 613 l 669 0 l 619 0 l 690 522 q 692 610 700 581 q 660 649 683 639 q 596 658 636 658 q 503 624 544 658 q 453 539 463 590 l 378 0 l 328 0 l 401 528 q 400 613 410 585 q 365 650 390 642 q 303 658 340 658 q 217 630 250 658 q 165 563 183 601 l 86 0 l 36 0 z "},"¯":{"ha":246,"x_min":64,"x_max":311,"o":"m 64 790 l 67 821 l 311 821 l 307 790 l 64 790 z "},"̄":{"ha":0,"x_min":65,"x_max":313,"o":"m 65 790 l 68 821 l 313 821 l 308 790 l 65 790 z "},"µ":{"ha":479,"x_min":4,"x_max":475,"o":"m 4 -179 l 126 688 l 176 688 l 97 125 q 133 53 104 79 q 214 26 161 26 q 276 35 249 26 q 324 74 304 44 q 351 165 343 104 l 425 688 l 475 688 l 403 172 q 376 68 394 108 q 321 9 357 28 q 219 -10 285 -10 q 140 8 178 -10 q 88 69 101 26 l 47 -179 l 4 -179 z "},"−":{"ha":581,"x_min":68,"x_max":499,"o":"m 68 326 l 76 372 l 499 372 l 492 326 l 68 326 z "},"×":{"ha":482,"x_min":56,"x_max":428,"o":"m 361 189 l 238 332 l 85 199 l 56 232 l 207 365 l 85 507 l 124 540 l 244 397 l 400 532 l 428 500 l 275 365 l 396 221 l 361 189 z "},"n":{"ha":507,"x_min":36,"x_max":464,"o":"m 36 0 l 132 688 l 172 688 l 169 618 q 235 681 193 663 q 321 699 278 699 q 408 683 378 699 q 451 641 439 667 q 463 583 464 615 q 458 517 463 551 l 388 0 l 338 0 l 408 504 q 414 560 413 532 q 408 609 415 588 q 378 644 401 631 q 306 658 354 658 q 233 642 261 658 q 189 605 204 626 q 165 564 174 583 l 86 0 l 36 0 z "},"ń":{"ha":507,"x_min":36,"x_max":464,"o":"m 36 0 l 132 688 l 172 688 l 169 618 q 235 681 193 663 q 321 699 278 699 q 408 683 378 699 q 451 641 439 667 q 463 583 464 615 q 458 517 463 551 l 388 0 l 338 0 l 408 504 q 414 560 413 532 q 408 609 415 588 q 378 644 401 631 q 306 658 354 658 q 233 642 261 658 q 189 605 204 626 q 165 564 174 583 l 86 0 l 36 0 m 278 757 l 364 879 l 424 879 l 310 757 l 278 757 z "},"ň":{"ha":507,"x_min":36,"x_max":486,"o":"m 36 0 l 132 688 l 172 688 l 169 618 q 235 681 193 663 q 321 699 278 699 q 408 683 378 699 q 451 641 439 667 q 463 583 464 615 q 458 517 463 551 l 388 0 l 338 0 l 408 504 q 414 560 413 532 q 408 609 415 588 q 378 644 401 631 q 306 658 354 658 q 233 642 261 658 q 189 605 204 626 q 165 564 174 583 l 86 0 l 36 0 m 307 760 l 204 878 l 244 878 l 333 789 l 449 878 l 486 878 l 350 760 l 307 760 z "},"ņ":{"ha":507,"x_min":36,"x_max":464,"o":"m 36 0 l 132 688 l 172 688 l 169 618 q 235 681 193 663 q 321 699 278 699 q 408 683 378 699 q 451 641 439 667 q 463 583 464 615 q 458 517 463 551 l 388 0 l 338 0 l 408 504 q 414 560 413 532 q 408 609 415 588 q 378 644 401 631 q 306 658 354 658 q 233 642 261 658 q 189 605 204 626 q 165 564 174 583 l 86 0 l 36 0 m 142 -194 q 176 -142 164 -164 q 188 -110 188 -121 q 183 -98 188 -103 q 174 -87 179 -93 q 171 -71 169 -81 q 180 -51 171 -61 q 203 -42 189 -42 q 225 -50 217 -42 q 233 -71 233 -58 q 222 -108 233 -86 q 197 -152 211 -129 q 165 -194 182 -175 l 142 -194 z "},"њ":{"ha":801,"x_min":17,"x_max":744,"o":"m 17 0 l 114 688 l 164 688 l 119 383 l 385 383 l 428 688 l 478 688 l 447 471 l 593 471 q 696 449 663 471 q 737 386 729 426 q 736 292 744 346 l 728 229 q 708 133 719 176 q 674 61 696 90 q 615 16 651 32 q 524 0 579 0 l 331 0 l 381 343 l 115 343 l 67 0 l 17 0 m 385 33 l 522 33 q 608 54 578 33 q 651 111 638 75 q 672 192 665 147 l 685 279 q 688 356 690 319 q 663 414 686 392 q 578 436 639 436 l 443 436 l 385 33 z "},"↗":{"ha":832,"x_min":58,"x_max":768,"o":"m 89 115 l 58 144 l 697 782 l 356 783 l 356 817 l 768 825 l 763 413 l 725 413 l 725 754 l 89 115 z "},"↖":{"ha":840,"x_min":68,"x_max":778,"o":"m 750 110 l 113 749 l 113 407 l 76 407 l 68 821 l 482 814 l 482 776 l 142 778 l 778 139 l 750 110 z "},"≠":{"ha":556,"x_min":22,"x_max":539,"o":"m 22 -4 l 181 233 l 54 233 l 61 275 l 207 275 l 378 533 l 97 533 l 104 575 l 404 575 l 500 722 l 539 722 l 442 575 l 518 575 l 513 533 l 413 533 l 242 275 l 478 275 l 471 233 l 215 233 l 58 -4 l 22 -4 z "},"ñ":{"ha":507,"x_min":36,"x_max":464,"o":"m 36 0 l 132 688 l 172 688 l 169 618 q 235 681 193 663 q 321 699 278 699 q 408 683 378 699 q 451 641 439 667 q 463 583 464 615 q 458 517 463 551 l 388 0 l 338 0 l 408 504 q 414 560 413 532 q 408 609 415 588 q 378 644 401 631 q 306 658 354 658 q 233 642 261 658 q 189 605 204 626 q 165 564 174 583 l 86 0 l 36 0 m 379 771 q 351 776 363 771 q 324 796 340 782 q 301 812 314 803 q 272 821 289 821 q 242 810 256 821 q 221 772 229 799 l 193 772 q 223 830 201 807 q 276 853 244 853 q 309 844 294 853 q 338 825 324 836 q 360 810 350 815 q 385 804 371 804 q 415 815 401 804 q 436 850 428 825 l 464 850 q 433 793 456 815 q 379 771 411 771 z "},"#":{"ha":944,"x_min":65,"x_max":879,"o":"m 181 0 l 267 272 l 65 272 l 75 304 l 278 304 l 354 551 l 151 551 l 164 583 l 365 583 l 432 796 l 463 796 l 397 583 l 647 583 l 713 796 l 746 796 l 678 583 l 879 583 l 868 551 l 667 551 l 590 304 l 792 304 l 781 272 l 579 272 l 494 0 l 463 0 l 549 272 l 299 272 l 213 0 l 181 0 m 308 304 l 558 304 l 635 551 l 386 551 l 308 304 z "},"o":{"ha":478,"x_min":36,"x_max":442,"o":"m 190 -10 q 98 6 131 -10 q 51 47 65 21 q 37 108 38 74 q 42 179 36 142 l 88 515 q 113 604 96 563 q 170 672 129 646 q 290 699 211 699 q 381 683 349 699 q 428 642 414 668 q 442 583 442 615 q 438 515 442 551 l 390 179 q 367 85 385 129 q 308 16 349 42 q 190 -10 268 -10 m 194 26 q 283 49 253 26 q 324 107 313 72 q 342 178 336 142 l 388 511 q 392 583 393 549 q 367 640 390 617 q 285 663 343 663 q 197 640 226 663 q 155 583 167 617 q 139 511 143 549 l 92 178 q 88 107 86 142 q 113 49 89 72 q 194 26 136 26 z "},"о":{"ha":478,"x_min":36,"x_max":442,"o":"m 190 -10 q 98 6 131 -10 q 51 47 65 21 q 37 108 38 74 q 42 179 36 142 l 88 515 q 113 604 96 563 q 170 672 129 646 q 290 699 211 699 q 381 683 349 699 q 428 642 414 668 q 442 583 442 615 q 438 515 442 551 l 390 179 q 367 85 385 129 q 308 16 349 42 q 190 -10 268 -10 m 194 26 q 283 49 253 26 q 324 107 313 72 q 342 178 336 142 l 388 511 q 392 583 393 549 q 367 640 390 617 q 285 663 343 663 q 197 640 226 663 q 155 583 167 617 q 139 511 143 549 l 92 178 q 88 107 86 142 q 113 49 89 72 q 194 26 136 26 z "},"ó":{"ha":478,"x_min":36,"x_max":442,"o":"m 190 -10 q 98 6 131 -10 q 51 47 65 21 q 37 108 38 74 q 42 179 36 142 l 88 515 q 113 604 96 563 q 170 672 129 646 q 290 699 211 699 q 381 683 349 699 q 428 642 414 668 q 442 583 442 615 q 438 515 442 551 l 390 179 q 367 85 385 129 q 308 16 349 42 q 190 -10 268 -10 m 194 26 q 283 49 253 26 q 324 107 313 72 q 342 178 336 142 l 388 511 q 392 583 393 549 q 367 640 390 617 q 285 663 343 663 q 197 640 226 663 q 155 583 167 617 q 139 511 143 549 l 92 178 q 88 107 86 142 q 113 49 89 72 q 194 26 136 26 m 254 757 l 340 879 l 400 879 l 286 757 l 254 757 z "},"ǒ":{"ha":478,"x_min":36,"x_max":463,"o":"m 190 -10 q 98 6 131 -10 q 51 47 65 21 q 37 108 38 74 q 42 179 36 142 l 88 515 q 113 604 96 563 q 170 672 129 646 q 290 699 211 699 q 381 683 349 699 q 428 642 414 668 q 442 583 442 615 q 438 515 442 551 l 390 179 q 367 85 385 129 q 308 16 349 42 q 190 -10 268 -10 m 194 26 q 283 49 253 26 q 324 107 313 72 q 342 178 336 142 l 388 511 q 392 583 393 549 q 367 640 390 617 q 285 663 343 663 q 197 640 226 663 q 155 583 167 617 q 139 511 143 549 l 92 178 q 88 107 86 142 q 113 49 89 72 q 194 26 136 26 m 283 760 l 181 878 l 221 878 l 310 789 l 425 878 l 463 878 l 326 760 l 283 760 z "},"ô":{"ha":478,"x_min":36,"x_max":442,"o":"m 190 -10 q 98 6 131 -10 q 51 47 65 21 q 37 108 38 74 q 42 179 36 142 l 88 515 q 113 604 96 563 q 170 672 129 646 q 290 699 211 699 q 381 683 349 699 q 428 642 414 668 q 442 583 442 615 q 438 515 442 551 l 390 179 q 367 85 385 129 q 308 16 349 42 q 190 -10 268 -10 m 194 26 q 283 49 253 26 q 324 107 313 72 q 342 178 336 142 l 388 511 q 392 583 393 549 q 367 640 390 617 q 285 663 343 663 q 197 640 226 663 q 155 583 167 617 q 139 511 143 549 l 92 178 q 88 107 86 142 q 113 49 89 72 q 194 26 136 26 m 157 760 l 294 878 l 336 878 l 439 760 l 401 760 l 310 849 l 196 760 l 157 760 z "},"ố":{"ha":478,"x_min":36,"x_max":586,"o":"m 190 -10 q 98 6 131 -10 q 51 47 65 21 q 37 108 38 74 q 42 179 36 142 l 88 515 q 113 604 96 563 q 170 672 129 646 q 290 699 211 699 q 381 683 349 699 q 428 642 414 668 q 442 583 442 615 q 438 515 442 551 l 390 179 q 367 85 385 129 q 308 16 349 42 q 190 -10 268 -10 m 194 26 q 283 49 253 26 q 324 107 313 72 q 342 178 336 142 l 388 511 q 392 583 393 549 q 367 640 390 617 q 285 663 343 663 q 197 640 226 663 q 155 583 167 617 q 139 511 143 549 l 92 178 q 88 107 86 142 q 113 49 89 72 q 194 26 136 26 m 157 760 l 294 878 l 336 878 l 439 760 l 401 760 l 310 849 l 196 760 l 157 760 m 440 831 l 526 953 l 586 953 l 472 831 l 440 831 z "},"ộ":{"ha":478,"x_min":36,"x_max":442,"o":"m 190 -10 q 98 6 131 -10 q 51 47 65 21 q 37 108 38 74 q 42 179 36 142 l 88 515 q 113 604 96 563 q 170 672 129 646 q 290 699 211 699 q 381 683 349 699 q 428 642 414 668 q 442 583 442 615 q 438 515 442 551 l 390 179 q 367 85 385 129 q 308 16 349 42 q 190 -10 268 -10 m 194 26 q 283 49 253 26 q 324 107 313 72 q 342 178 336 142 l 388 511 q 392 583 393 549 q 367 640 390 617 q 285 663 343 663 q 197 640 226 663 q 155 583 167 617 q 139 511 143 549 l 92 178 q 88 107 86 142 q 113 49 89 72 q 194 26 136 26 m 176 -135 q 152 -124 163 -135 q 142 -100 142 -114 q 152 -76 142 -85 q 176 -67 163 -67 q 201 -76 192 -67 q 211 -100 211 -85 q 201 -124 211 -114 q 176 -135 192 -135 m 157 760 l 294 878 l 336 878 l 439 760 l 401 760 l 310 849 l 196 760 l 157 760 z "},"ồ":{"ha":478,"x_min":36,"x_max":519,"o":"m 190 -10 q 98 6 131 -10 q 51 47 65 21 q 37 108 38 74 q 42 179 36 142 l 88 515 q 113 604 96 563 q 170 672 129 646 q 290 699 211 699 q 381 683 349 699 q 428 642 414 668 q 442 583 442 615 q 438 515 442 551 l 390 179 q 367 85 385 129 q 308 16 349 42 q 190 -10 268 -10 m 194 26 q 283 49 253 26 q 324 107 313 72 q 342 178 336 142 l 388 511 q 392 583 393 549 q 367 640 390 617 q 285 663 343 663 q 197 640 226 663 q 155 583 167 617 q 139 511 143 549 l 92 178 q 88 107 86 142 q 113 49 89 72 q 194 26 136 26 m 157 760 l 294 878 l 336 878 l 439 760 l 401 760 l 310 849 l 196 760 l 157 760 m 489 831 l 400 953 l 460 953 l 521 831 l 489 831 z "},"ổ":{"ha":478,"x_min":36,"x_max":567,"o":"m 190 -10 q 98 6 131 -10 q 51 47 65 21 q 37 108 38 74 q 42 179 36 142 l 88 515 q 113 604 96 563 q 170 672 129 646 q 290 699 211 699 q 381 683 349 699 q 428 642 414 668 q 442 583 442 615 q 438 515 442 551 l 390 179 q 367 85 385 129 q 308 16 349 42 q 190 -10 268 -10 m 194 26 q 283 49 253 26 q 324 107 313 72 q 342 178 336 142 l 388 511 q 392 583 393 549 q 367 640 390 617 q 285 663 343 663 q 197 640 226 663 q 155 583 167 617 q 139 511 143 549 l 92 178 q 88 107 86 142 q 113 49 89 72 q 194 26 136 26 m 157 760 l 294 878 l 336 878 l 439 760 l 401 760 l 310 849 l 196 760 l 157 760 m 461 824 l 465 850 q 484 876 468 869 q 516 891 500 883 q 532 921 532 899 l 532 926 q 526 958 532 943 q 494 974 519 974 q 450 939 461 974 l 419 946 q 449 985 429 971 q 501 1000 468 1000 q 553 980 540 1000 q 565 925 567 960 l 565 921 q 555 884 565 896 q 530 867 544 872 q 505 857 515 861 q 494 842 494 853 l 492 824 l 461 824 z "},"ỗ":{"ha":478,"x_min":36,"x_max":454,"o":"m 190 -10 q 98 6 131 -10 q 51 47 65 21 q 37 108 38 74 q 42 179 36 142 l 88 515 q 113 604 96 563 q 170 672 129 646 q 290 699 211 699 q 381 683 349 699 q 428 642 414 668 q 442 583 442 615 q 438 515 442 551 l 390 179 q 367 85 385 129 q 308 16 349 42 q 190 -10 268 -10 m 194 26 q 283 49 253 26 q 324 107 313 72 q 342 178 336 142 l 388 511 q 392 583 393 549 q 367 640 390 617 q 285 663 343 663 q 197 640 226 663 q 155 583 167 617 q 139 511 143 549 l 92 178 q 88 107 86 142 q 113 49 89 72 q 194 26 136 26 m 157 760 l 294 878 l 336 878 l 439 760 l 401 760 l 310 849 l 196 760 l 157 760 m 369 910 q 342 915 353 910 q 314 935 331 921 q 292 951 304 942 q 263 960 279 960 q 233 949 246 960 q 211 911 219 938 l 183 911 q 213 969 192 946 q 267 992 235 992 q 299 983 285 992 q 328 964 314 975 q 351 949 340 954 q 375 943 361 943 q 405 953 392 943 q 426 989 418 964 l 454 989 q 424 932 446 954 q 369 910 401 910 z "},"ö":{"ha":478,"x_min":36,"x_max":442,"o":"m 190 -10 q 98 6 131 -10 q 51 47 65 21 q 37 108 38 74 q 42 179 36 142 l 88 515 q 113 604 96 563 q 170 672 129 646 q 290 699 211 699 q 381 683 349 699 q 428 642 414 668 q 442 583 442 615 q 438 515 442 551 l 390 179 q 367 85 385 129 q 308 16 349 42 q 190 -10 268 -10 m 194 26 q 283 49 253 26 q 324 107 313 72 q 342 178 336 142 l 388 511 q 392 583 393 549 q 367 640 390 617 q 285 663 343 663 q 197 640 226 663 q 155 583 167 617 q 139 511 143 549 l 92 178 q 88 107 86 142 q 113 49 89 72 q 194 26 136 26 m 244 778 q 219 788 229 778 q 208 813 208 799 q 219 836 208 826 q 244 846 229 846 q 269 836 258 846 q 279 813 279 826 q 269 788 279 799 q 244 778 258 778 m 363 778 q 338 788 349 778 q 328 813 328 799 q 338 836 328 826 q 363 846 349 846 q 388 836 378 846 q 397 813 397 826 q 388 788 397 799 q 363 778 378 778 z "}}}
